<svg xmlns="http://www.w3.org/2000/svg" height="20.268mm" width="74.37mm" version="1.1" viewBox="0 0 74.369697 20.268397">
 <defs>
  <clipPath id="clipPath245-3" clipPathUnits="userSpaceOnUse">
   <rect height="219.34" width="217.63" y="115.85" x="5.1408" fill="#ff7f2a"/>
  </clipPath>
  <clipPath id="clipPath4204" clipPathUnits="userSpaceOnUse">
   <rect height="63.026" width="72.53" y="2.7758" x=".81745" fill="#fff"/>
  </clipPath>
 </defs>
 <g transform="translate(-65.789 -119.43)">
  <path d="m93.499 569.93c-0.068-0.0379-1.489-3.9374-3.1572-8.6655-1.9491-5.5246-2.7374-8.9562-2.2058-9.6029 0.5759-0.70054 0.4678-0.89537-0.3559-0.64121-1.5378 0.47447-2.3241-1.9706-0.9847-3.0618 0.8245-0.67171 0.7903-0.77824-0.1713-0.53266-0.661 0.16884-1.3418-0.1282-1.5129-0.66006-0.171-0.53187 0.3187-0.82903 1.0883-0.66035 1.0585 0.23199 0.9886 0.0475-0.2871-0.7578-1.3782-0.86993-1.4916-1.2226-0.6205-1.9295 0.8156-0.66193 0.7837-0.79293-0.1361-0.55802-0.9218 0.23544-2.4504-3.694-6.5598-16.862-3.3236-10.65-4.5549-15.514-3.243-12.811 1.6071 3.3113 1.9214 3.6337 1.3087 1.3424-0.94902-3.5493-0.72902-3.6916 3.6623-2.3691 1.8941 0.57044 4.0099 0.54359 4.8775-0.0619 0.8427-0.58818 2.5533-0.72994 3.8013-0.31504 1.2479 0.4149 3.8125 0.2724 5.699-0.31665s4.1674-0.61781 5.0687-0.0639c0.9056 0.55659 2.3133 0.5363 3.1467-0.0454 0.8294-0.57887 1.9185-0.71259 2.4202-0.29726 0.5016 0.41539 2.1081 0.37062 3.5698-0.0995 1.4618-0.4701 3.323-0.44589 4.1361 0.0538 0.813 0.49969 3.6303 0.50937 6.2606 0.0215 2.6303-0.48784 6.9395-0.53043 9.5759-0.0946 2.6365 0.43579 5.2814 0.4403 5.8776 0.01 0.5962-0.43029 1.7332-0.53462 2.5267-0.23183 0.7935 0.30278 4.3554 0.14386 7.9153-0.35316 3.5599-0.49703 7.9207-0.76865 9.6906-0.60362 1.7698 0.16505 4.5742 0.14963 6.2319-0.0342 3.6353-0.40325 22.811-0.86859 25.811-0.62637 1.1751 0.0949 5.3166-0.13047 9.2034-0.50077 6.4627-0.61569 17.534-0.99451 38.824-1.3284 4.3977-0.069 8.7124-0.35584 9.5882-0.63752 1.5557-0.50029 9.9399-1.0329 16.177-1.0277 1.7173 0.001 5.8726-0.1808 9.2342-0.405 3.3615-0.2242 6.6316-0.17457 7.2669 0.11028 0.6352 0.28486 2.1059 0.21212 3.2682-0.16165 1.1622-0.37377 2.5076-0.35301 2.9896 0.0461 0.4821 0.39915 2.1244 0.32439 3.6497-0.16613 2.0181-0.64899 2.9093-0.45543 3.2727 0.71079 0.3909 1.2542 0.2354 1.389-0.7152 0.61979-1.0255-0.8298-1.2324-0.76328-1.3282 0.42715-0.093 1.1563-0.3728 1.2214-1.5544 0.36197-1.2807-0.93157-1.395-0.89479-1.0292 0.33098 0.3659 1.2258 0.2611 1.2595-0.9429 0.30325-1.2041-0.95621-1.3089-0.92252-0.943 0.30325s0.2611 1.2595-0.943 0.30326c-0.903-0.71717-1.237-0.69373-1.0019 0.0703 0.221 0.71951-1.0224 1.5883-3.3407 2.3338-2.0723 0.66644-4.0632 0.7539-4.536 0.19926-0.6741-0.79078-0.7842-0.7554-0.5501 0.17689 0.161 0.64095-0.5206 1.4269-1.5147 1.7466-0.994 0.31968-2.1866 0.13642-2.65-0.40724-0.6742-0.79078-0.7842-0.7554-0.5501 0.1769 0.2061 0.82092-1.7745 1.8301-6.7011 3.4145-4.7126 1.5155-7.2685 1.9267-7.8364 1.2606-0.6741-0.79078-0.7841-0.7554-0.55 0.1769 0.1649 0.65696-0.9415 1.5622-2.5363 2.0751-1.6268 0.52316-2.9911 0.42668-3.2104-0.22704-0.2794-0.83245-0.4924-0.73343-0.7956 0.36987-0.3496 1.272-0.5561 1.3384-1.3256 0.42629-0.6472-0.76706-0.8266-0.7424-0.6189 0.085 0.2065 0.82216-1.7902 1.8352-6.7796 3.4398-5.0215 1.6149-7.1829 1.9447-7.4538 1.1376-0.3041-0.90617-0.4592-0.85541-0.7643 0.24982-0.5058 1.8333-17.781 7.2978-19.273 6.0965-0.7032-0.56615-0.9005-0.39156-0.6199 0.54845 0.3658 1.2258 0.2611 1.2595-0.943 0.30326-0.9031-0.71717-1.2371-0.69373-1.002 0.0703 0.1941 0.63071-0.4959 1.4194-1.5331 1.7529-1.0373 0.33358-2.0577 0.095-2.2675-0.53028-0.2853-0.85017-0.4839-0.76459-0.7876 0.33933-0.2233 0.81187-0.7355 1.5821-1.1382 1.7116-0.4026 0.12949-1.2677-0.19778-1.9224-0.72728-0.8065-0.6522-1.0826-0.61137-0.856 0.1266 0.4092 1.3332-3.3974 2.4071-3.845 1.0847-0.2157-0.63705-0.4432-0.55824-0.7022 0.24323-0.5157 1.596-26.433 9.9222-27.791 8.9284-0.6837-0.5004-0.908-0.43081-0.7096 0.22013 0.4306 1.4122-5.1505 3.4358-5.6195 2.0375-0.2382-0.71026-0.5391-0.71613-0.7853-0.0154-0.6275 1.7859-2.7644 2.6345-4.0392 1.604-0.9109-0.73642-1.0729-0.6414-0.7502 0.43977 0.3658 1.2258 0.2611 1.2595-0.943 0.30325-1.2041-0.95622-1.3088-0.92252-0.943 0.30325 0.3659 1.2258 0.2611 1.2595-0.9429 0.30325-0.9031-0.71716-1.2371-0.69372-1.002 0.0703 0.194 0.63033-0.496 1.419-1.5333 1.7526-1.0373 0.33357-2.0576 0.0949-2.2674-0.53029-0.2794-0.83245-0.4924-0.73343-0.7956 0.36987-0.3496 1.272-0.5561 1.3384-1.3256 0.42629-0.6472-0.76706-0.8266-0.7424-0.6189 0.085 0.2132 0.84901-2.2459 1.9818-9.0585 4.1726-6.5986 2.122-9.5992 2.7163-10.194 2.0188-0.6742-0.79078-0.7842-0.7554-0.5501 0.17689 0.163 0.6491-0.9258 1.5572-2.4577 2.0498-1.5126 0.48647-3.1295 0.43967-3.593-0.10399-0.6741-0.79078-0.7842-0.7554-0.5501 0.1769 0.165 0.65697-0.9415 1.5622-2.5362 2.0751-1.6268 0.52316-2.9911 0.42668-3.2105-0.22703-0.2793-0.83246-0.4923-0.73344-0.7956 0.36986-0.3496 1.272-0.556 1.3384-1.3255 0.42629-0.6472-0.76706-0.8267-0.7424-0.6189 0.085 0.161 0.64096-0.556 1.4383-1.5933 1.7719-1.0373 0.33358-2.0576 0.0949-2.2675-0.53028-0.2805-0.83576-0.4755-0.7971-0.7367 0.14596-0.2659 0.95975-11.396 5.4043-12.291 4.9081zm-14.144-46.695c-1.1936-3.0797-0.51833-0.46305 1.5006 5.8148 2.0189 6.2779 2.9955 8.7976 2.1702 5.5995-0.82531-3.1982-2.4771-8.3346-3.6707-11.414zm213.96-18.18c-0.1615-0.50223 0.1557-1.0577 0.705-1.2343 0.5492-0.17663 0.8685 0.1741 0.7095 0.77941-0.1591 0.60531-0.4763 1.1607-0.705 1.2343-0.2287 0.0735-0.548-0.27718-0.7095-0.77941zm276.8-89.685c0.5668-0.4618 1.6276-0.80296 2.3574-0.75813 0.7298 0.0448 0.266 0.42268-1.0306 0.83964-1.2966 0.41697-1.8937 0.38029-1.3268-0.0815zm201.08-74.67c-0.2969-1.0783-0.143-1.3665 0.3922-0.73491 0.4844 0.57157 0.7042 1.3699 0.4885 1.7741-0.2158 0.4042-0.6121-0.0635-0.8807-1.0392zm-60.98-10.605c-1.6672-0.29061-3.1618-0.93401-3.3212-1.4298-0.163-0.50674-1.2463-0.31557-2.4743 0.43664-2.7021 1.655-5.1002 0.8237-7.0289-2.4366-1.7246-2.9155-2.5322-2.8825-3.3406 0.13635-0.8525 3.1835-4.039 3.8611-6.1297 1.3034-1.3199-1.6147-1.9178-1.7851-2.4917-0.71007-0.4152 0.77796-2.4332 1.9542-4.4843 2.6138-3.1232 1.0044-4.5021 0.79385-8.4844-1.2954-3.9871-2.0917-4.8151-2.2176-5.1259-0.77936-0.222 1.0267-1.3231 1.8839-2.743 2.1352-3.0281 0.5359-4.4707-2.2247-4.0275-7.7067 0.1816-2.2456 0.1346-4.6909-0.1044-5.4341-0.6089-1.8935-3.321-0.79962-3.3306 1.3434-0.015 3.3814-0.6775 10.048-1.0955 11.025-0.2314 0.5414-1.5137 0.80012-2.8496 0.57493-2.5693-0.43311-2.7874-1.0808-3.2147-9.5486-0.3013-5.9702-2.2801-5.9289-3.1635 0.0659-0.9587 6.5056-4.2379 10.4-8.6111 10.226-1.6643-0.066-4.4791-0.79455-6.2552-1.619-2.0559-0.9543-3.343-1.0663-3.5422-0.30816-0.4375 1.6654-2.6952 2.2282-8.018 1.9987-3.6193-0.15601-4.8727-0.71646-5.9801-2.6739-0.9889-1.7482-1.6039-2.0964-2.0908-1.1841-0.3795 0.71084-2.895 2.0015-5.59 2.8682-4.4195 1.4212-5.2851 1.3538-8.8257-0.6883-3.8592-2.2258-6.1539-2.5246-5.5754-0.72592 0.1615 0.50223-1.3418 1.4391-3.3406 2.0819-3.5735 1.1492-9.642-0.39082-10.362-2.6296-0.4876-1.5162 2.3575-3.8256 4.17-3.3849 3.2174 0.78235 3.1656-0.11891-0.1214-2.1083-4.0436-2.4474-4.4506-3.4801-2.9208-7.4119 1.4315-3.6793 6.0889-5.5435 10.125-4.0527 3.0992 1.1448 3.4582 3.9674 0.7224 5.6795-2.0247 1.2671-1.9164 2.2276 0.3489 3.0954 1.2767 0.48907 1.8039 0.0277 2.4327-2.1287 0.448-1.5362 2.329-3.7828 4.2558-5.0827 2.9128-1.9652 4.0326-2.2589 7.1571-1.8776 2.0372 0.24868 4.8423 1.554 6.2335 2.9008l2.5294 2.4486 1.0845-2.6739c1.1486-2.8322 3.5658-3.4276 5.3098-1.3078 0.5531 0.67228 0.9711 3.5862 0.929 6.4755-0.073 4.9912 0.026 5.2855 1.9806 5.9008 4.0199 1.2655 5.2168-0.10011 5.3495-6.1032 0.1508-6.828 1.8834-9.5123 4.825-7.4756 1.0774 0.74595 1.883 2.0738 1.7901 2.9509-0.5055 4.7731 0.433 10.061 1.9124 10.775 1.2138 0.58589 1.7763 0.14984 2.6959-2.09 0.6391-1.5567 1.0302-4.0527 0.869-5.5467-0.4737-4.3902 0.7838-5.4479 7.3848-6.2114 3.2-0.37012 7.5136-0.49673 9.5858-0.28134 2.0722 0.2154 4.9021 0.2795 6.2887 0.14245 1.6537-0.16344 2.8625 0.44539 3.5132 1.7694 0.7317 1.4887 1.3546 1.727 2.373 0.90793 5.5581-4.4703 10.573-4.5727 15.634-0.31938 2.5903 2.1769 2.6596 2.1759 3.0948-0.0424 0.2449-1.248 1.2132-2.5161 2.1519-2.818 2.052-0.65991 5.7175 1.2141 6.3753 3.2594 0.718 2.2329 2.4794 2.2042 2.3731-0.0387-0.1222-2.576 4.5461-4.2645 5.9214-2.1418 0.7648 1.1803 1.7444 1.1359 5.0882-0.23082 3.0081-1.2295 4.7843-1.4142 6.4919-0.67519 3.0518 1.3208 3.9719 4.256 1.7668 5.6359-0.9474 0.5929-1.3469 1.3891-0.8877 1.7693 0.4592 0.38024 1.2967 2.1273 1.8611 3.8823 1.9137 5.9508-2.2466 9.9628-9.0935 8.7693zm-1.8088-8.9178c-0.9708-0.79613-2.0874-1.3439-2.4812-1.2172-0.3939 0.12667-0.4519 1.0521-0.1289 2.0566 0.3924 1.2201 1.216 1.6241 2.4813 1.2172 1.6579-0.53316 1.6739-0.78948 0.1288-2.0566zm-28-2.0788c-0.841-2.615-1.4288-3.1253-3.2338-2.8072-1.5708 0.27678-2.3041 1.147-2.5467 3.0218-0.4908 3.7943 1.2655 5.4705 4.3028 4.1066 2.2024-0.98899 2.3812-1.5118 1.4777-4.3211zm-73.059 2.7678c1.3443-2.5182 0.9851-3.3557-2.0889-4.8718-2.3069-1.1377-2.7272-1.0663-4.1928 0.71306-1.9577 2.3768-1.839 4.8952 0.2925 6.2052 2.0454 1.2571 4.7122 0.34594 5.9892-2.0465zm-43.803 9.1133c-2.297-0.0481-4.8561-0.56541-5.6869-1.1497-0.9671-0.68012-3.0212-0.57651-5.7093 0.28798-8.7499 2.8139-16.032-5.507-11.784-13.465 2.7536-5.1586 6.9652-6.988 12.522-5.4393 2.4384 0.6796 4.9306 0.8443 5.5382 0.36598 1.3754-1.0829 10.464-1.1607 12.789-0.10957 1.4111 0.63795 1.585 1.1041 0.9637 2.584-0.4168 0.99314-1.4273 2.021-2.2455 2.2841-1.157 0.37208-1.1578 0.64103 0 1.2103 0.8162 0.40253 1.7218 1.4715 2.0125 2.3755 0.5072 1.577-0.7322 2.5383-4.372 3.3912-0.9313 0.21819-1.5627 0.80285-1.4031 1.2992 0.1597 0.49631 0.6843 0.77566 1.1659 0.62078 1.603-0.5155 4.6585 1.5618 4.5567 3.0979-0.1244 1.8788-2.9042 2.7605-8.344 2.6467zm-6.2389-11.219c-0.337-1.0739-1.4312-1.9522-2.4325-1.9515-1.0013 0.00066-2.8902-0.34559-4.1976-0.76946-2.1309-0.69086-2.5453-0.55553-4.0017 1.307-2.9028 3.7121 0.085 7.4444 4.7761 5.9658 1.3249-0.418 3.1575-0.57746 4.0723-0.35521 1.9596 0.47609 2.7011-1.2688 1.7834-4.1967zm124.47-28.758c-2.8196 0.12975-6.7365 0.32586-8.7041 0.4358-5.9059 0.33002-15.149-0.88323-19.369-2.5424-2.181-0.85751-5.9923-3.3802-8.4695-5.6059l-4.5041-4.0468-0.6932 4.6155c-0.5671 3.7759-1.2009 4.8335-3.4846 5.8141-3.1962 1.3725-8.8345-0.14225-9.6199-2.5844-0.2732-0.84953-0.3411-4.082-0.1508-7.1833 0.1902-3.1013 0.3407-8.3575 0.3344-11.68-0.01-3.323 0.2343-12.015 0.5345-19.316 0.3003-7.3008 0.658-17.844 0.7948-23.43 0.1369-5.5857 0.4818-15.445 0.7664-21.909 0.2847-6.4645 0.5932-14.952 0.6856-18.861 0.092-3.9089 0.4419-14.45 0.7766-23.424 0.3346-8.9743 0.667-18.376 0.7386-20.893 0.072-2.5168 0.5077-5.3208 0.9692-6.2312 1.1471-2.263 5.0838-3.3748 8.6592-2.4457 4.0178 1.0442 4.4116 3.6953 3.5769 24.078-0.9633 23.526-1.0121 29.012-0.2613 29.383 0.3666 0.18081 2.0838-0.88158 3.8159-2.3608 10.789-9.2135 39.89-10.468 54.631-2.3544 9.8115 5.4004 16.799 16.839 17.977 29.431 0.3075 3.286-0.3569 26.336-1.0114 35.087-0.1062 1.4196-0.1972 4.396-0.2022 6.6143-0.022 9.5024-7.4246 24.468-15.344 31.017-4.5259 3.7432-16.192 8.1057-22.447 8.3935zm16.301-20.865c6.6407-7.0904 7.6447-12.742 8.5523-48.139 0.4163-16.231-2.9443-25.265-11.089-29.809-5.4024-3.0142-7.8236-3.4653-19.768-3.6827-10.939-0.19908-19.907 2.2184-24.785 6.6814-4.3668 3.9948-8.4032 14.536-8.5936 22.442-0.085 3.5399-0.4224 13.323-0.7492 21.741-0.5322 13.706-0.3443 16.073 1.7988 22.656 2.1943 6.7403 2.7532 7.6202 6.7286 10.592 5.1966 3.8846 9.0059 4.8712 20.181 5.2266 9.9055 0.31504 11.589 0.14027 18.54-1.9251 4.18-1.242 6.0151-2.3972 9.1854-5.7822zm-632.71 211.5c-0.40378-1.2556-0.35493-1.838 0.10855-1.2944 0.46348 0.54366 0.79384 1.5709 0.73414 2.2828-0.0597 0.71192-0.43891 0.2671-0.84269-0.98847zm468.2-152.28c-2.3784-1.679-3.3806-1.7343-7.4891-0.41302-7.1757 2.3076-8.1675 1.1932-5.1852-5.8263 2.8039-6.5993 5.8744-11.02 8.1655-11.757 2.2453-0.72208 4.6812 2.834 7.5714 11.053 2.1465 6.1044 2.3285 7.4146 1.1225 8.0835-0.796 0.4415-2.6666-0.0681-4.1851-1.1401zm-470.84 144.06c-0.40378-1.2556-0.35494-1.838 0.10854-1.2944 0.46349 0.54366 0.79385 1.5709 0.73415 2.2828-0.0597 0.71191-0.43891 0.2671-0.84269-0.98847zm444.47-142.83c-0.6617-0.31492-2.5192-0.29754-4.1279 0.0386-2.6079 0.54494-3.0761 0.25015-4.3189-2.719-1.5856-3.7883-2.5959-3.9743-2.9888-0.55018-0.1486 1.2947-1.1276 2.7665-2.1755 3.2708-1.5062 0.72477-2.2262 0.34985-3.4364-1.7895-1.3021-2.3017-1.6896-2.4656-2.5919-1.0964-0.5835 0.88544-2.8414 2.1825-5.0175 2.8823-3.3287 1.0705-4.5717 0.91865-7.8338-0.95683-3.6028-2.0714-4.0167-2.09-5.8462-0.26299-2.4864 2.483-6.1372 2.8322-10.162 0.97195-2.4356-1.1257-3.7309-1.1237-5.7921 0.009-3.4678 1.9055-10.343 1.4063-11.81-0.85752-0.7809-1.2052-1.5181-1.3891-2.4434-0.6095-4.4081 3.7142-10.659 3.8161-13.597 0.22164-1.8379-2.2484-2.5013-2.1735-4.441 0.5009-1.9477 2.6856-4.9562 3.4399-8.5925 2.1543-5.0122-1.772-5.3325-6.649-0.3819-5.8145 3.3375 0.56259 3.5291-0.79162 0.3516-2.4841-3.4073-1.8148-4.7031-5.606-3.004-8.789 1.8388-3.4447 5.5247-4.3083 9.6676-2.2651 2.6719 1.3178 3.8232 1.4021 4.8257 0.35367 0.9207-0.9628 1.8614-1.1083 3.1276-0.48383 1.5901 0.78421 1.8243 1.5806 1.9209 6.5317 0.1191 6.1083 0.8779 7.4332 3.7314 6.5156 1.7687-0.56879 2.1209-1.8754 2.7508-10.205 0.2289-3.0275 3.1499-4.822 4.7275-2.9044 0.5794 0.70424 1.7384 0.64617 3.239-0.16229 3.0521-1.6444 9.6637-0.50157 11.21 1.9377 1.4003 2.2093 2.0245 2.1342 3.9139-0.47093 2.0413-2.8145 4.4721-3.3124 8.895-1.822 2.5032 0.84349 4.5076 0.91149 5.5441 0.18808 2.6539-1.8522 4.4491 0.67309 4.5265 6.3673 0.037 2.7134 0.4799 5.4353 0.9845 6.0487 1.6129 1.9604 4.7697 0.0925 5.0368-2.9803 0.8759-10.079 1.4836-11.322 4.7508-9.7102 0.768 0.37876 2.9119 0.29778 4.7641-0.17997 3.9897-1.029 9.0552 0.081 10.492 2.2992 1.2458 1.9228 1.7296 1.8167 3.2454-0.71174 1.0044-1.6754 1.8177-1.9859 5.6332-2.1506 2.4527-0.10587 5.2142 0.13556 6.1368 0.53654 2.4787 1.0774 1.8591 3.8496-1.071 4.7919-2.4574 0.79029-2.4658 0.85214-0.2818 2.0683 3.4996 1.9487 2.794 4.5425-1.3861 5.0951-3.0351 0.40124-3.4613 0.77567-3.8512 3.3831-0.4652 3.1106-2.3338 4.7567-4.3241 3.8093zm-1.7152-10.254c-0.2423-0.75335-0.7832-0.9793-1.202-0.50212-0.4188 0.47719-0.5632 1.484-0.321 2.2373 0.2423 0.75334 0.7832 0.97929 1.202 0.50211s0.5633-1.484 0.321-2.2373zm-7.7098-2.9434c0.1591-0.60531-0.1602-0.95605-0.7095-0.77941-0.5492 0.17663-0.8664 0.73206-0.7049 1.2343 0.1615 0.50222 0.4808 0.85296 0.7095 0.77941 0.2287-0.0736 0.5459-0.62898 0.7049-1.2343zm-34.585 7.3158c-0.1256-0.39061-1.1784-1.1164-2.3395-1.6128-1.1612-0.49645-2.8681-1.5219-3.7931-2.2787-1.5215-1.2448-1.6005-1.1046-0.828 1.4699 0.6228 2.0751 1.5151 2.9296 3.2944 3.1546 3.0064 0.38013 3.9627 0.18896 3.6662-0.73292zm8.007-7.4564c-0.2554-0.7943-1.4676-0.91602-3.2891-0.33025-2.8859 0.92807-2.7661 1.6069 0.6138 3.48 1.5654 0.86752 3.3076-1.1836 2.6753-3.1497zm-49.321 1.9364c-0.5113-1.5898-1.3724-2.0343-3.4309-1.771-3.7223 0.47614-3.7413 0.91187-0.1385 3.1837 3.4606 2.1822 4.5827 1.7381 3.5694-1.4128zm171.51-29.054c-3.9866-0.6964-5.2746-2.7918-4.8609-7.9083 0.1908-2.3593 0.016-4.4529-0.3886-4.6524-0.4045-0.19951-2.5831 1.2121-4.8413 3.1369-11.272 9.6078-31.181 13.23-46.464 8.4528-9.5172-2.9748-15.224-9.1884-18.813-20.486-1.9049-5.9953-2.053-11.658-1.1005-42.079 0.4645-14.835 0.9471-31.086 1.0725-36.114 0.2814-11.282 1.0889-13.32 5.5548-14.019 4.364-0.68312 6.4993 0.22787 7.4239 3.1673 0.4159 1.3224 0.5065 10.419 0.2013 20.215-1.662 53.346-1.6388 59.384 0.2505 65.259 2.9888 9.2936 8.0507 12.586 20.393 13.264 6.2816 0.34516 8.8585-0.046 16.865-2.5602 8.4825-2.6636 9.9733-3.433 14.554-7.5104 5.675-5.052 6.1793-6.488 6.3405-18.056 0.056-3.9844 0.498-19.387 0.9833-34.229s0.8574-28.398 0.8269-30.125c-0.081-4.5565 1.9505-9.0564 4.4504-9.8604 1.189-0.38237 3.6026-0.18587 5.3636 0.43669 4.0353 1.4266 4.3309 2.9866 3.6636 19.331-0.5924 14.508-1.7664 52.851-2.2745 74.285-0.1985 8.3764-0.7905 16.161-1.3154 17.3-1.1488 2.4918-3.8916 3.4489-7.885 2.7514zm-321.17 93.675c0.012-0.59966 0.4254-1.2199 0.9181-1.3784 0.4927-0.15845 1.1899 0.10474 1.5494 0.58487s-0.054 1.1004-0.9181 1.3784c-0.8644 0.27798-1.5616 0.0148-1.5494-0.58487zm115.85-51.659c-1.7385-0.0675-3.8658-0.30028-4.7274-0.51728-0.8615-0.217-2.917-0.0568-4.5677 0.35612-4.1921 1.0486-10.929 0.36525-11.419-1.1582-0.2248-0.69915-0.4256-3.4916-0.4461-6.2053-0.049-6.4309-0.3928-7.3388-2.5225-6.6538-1.7671 0.56825-2.4131 3.4654-2.0034 8.9834 0.216 2.9085-1.9966 5.9352-3.9988 5.4703-1.3236-0.30733-2.4899-5.3386-2.4181-10.431 0.038-2.7001-0.3553-3.4689-2.3814-4.654-1.3348-0.78078-2.3137-1.8509-2.1752-2.3781 0.428-1.629 6.3537-3.0139 11.214-2.6207 2.5459 0.20596 6.4235 0.13116 8.6169-0.16621 2.1935-0.29737 5.7161-0.26324 7.8281 0.0759 2.112 0.3391 5.5729 0.30461 7.6908-0.0766 2.5323-0.45583 5.2859-0.021 8.0421 1.2699 3.8205 1.7894 4.2667 2.3372 5.0428 6.1907 0.6446 3.2004 0.3365 5.0744-1.2679 7.7127-2.266 3.7261-5.0823 5.0134-10.507 4.8028zm5.5693-9.0775c0.6228-2.1361 0.4608-3.2031-0.6202-4.0828-2.0909-1.7016-4.7572-1.1111-4.7594 1.0541 0 1.0111-0.173 2.7053-0.3821 3.7649-0.8874 4.496 4.4343 3.816 5.7617-0.73618zm-11.85 2.7606c0.141-2.1282 0.1826-2.1135-4.3029-1.517-2.4985 0.33222-3.6334 0.83476-3.4155 1.5123 0.1795 0.55813 0.9109 0.82679 1.6253 0.59703 0.7145-0.22976 2.0255 0.0287 2.9134 0.57445 2.0891 1.284 3.0405 0.93483 3.1797-1.1668zm-0.1885-8.7289c-1.2374-0.54978-7.041 0.53798-6.8039 1.2752 0.3853 1.1982 5.9482 1.1907 6.6909-0.009 0.3515-0.56784 0.4024-1.1376 0.113-1.2662zm-35.711 13.932c-1.341-2.0698-6.7904-2.2348-8.7451-0.26469-1.7799 1.7938-7.3876 2.5973-10.179 1.4584-1.1527-0.47037-2.398-1.7946-2.7672-2.9427-0.9633-2.9955-2.8807-3.0527-2.7095-0.0807 0.1699 2.949-2.6248 4.2976-4.9498 2.3887-1.2063-0.99041-2.5258-0.87532-6.0443 0.52719-5.7685 2.2994-10.473 1.084-13.716-3.5433-1.5442-2.2038-2.8162-3.0741-3.9569-2.7072-0.9245 0.29733-2.0754 0.21403-2.5574-0.18512-1.1494-0.95173-3.68-0.11878-3.2932 1.0839 0.1655 0.51466 1.3883 0.98103 2.7172 1.0364 3.0676 0.12776 5.8651 1.8216 5.4731 3.3137-0.4361 1.6602-5.0107 2.903-9.4779 2.5748-4.0161-0.29502-5.7647-2.6329-5.0435-6.7433 0.1736-0.98917 0.1474-3.218-0.058-4.953-0.3368-2.8433-0.5952-3.0832-2.6197-2.4321-1.8956 0.60959-2.2486 1.5861-2.2623 6.2572-0.019 6.5278-1.0856 8.7582-3.7077 7.7537-2.2722-0.8704-2.8098-2.6238-2.6464-8.6319 0.1197-4.3991-0.047-4.9345-1.8052-5.8016-1.7582-0.86714-1.973-0.62697-2.328 2.6023-0.2151 1.9567-0.4711 5.0419-0.5689 6.856-0.098 1.8141-0.9199 3.8162-1.8268 4.4491-1.951 1.3617-4.8919 0.46251-5.5903-1.7092-0.2723-0.84697-1.3496-2.1408-2.3938-2.8751-1.8323-1.2885-1.9117-1.2345-2.2713 1.5454-0.4003 3.0946-4.1068 5.2146-5.71 3.2659-0.5453-0.66289-1.849-0.57502-3.5207 0.23733-3.7834 1.8384-4.4703 0.34767-4.1243-8.9506 0.3311-8.8995 1.8321-11.957 4.8469-9.8715 1.2376 0.85593 2.3966 0.87088 3.5783 0.0462 2.136-1.4908 7.6695 0.90895 8.5728 3.7177 0.8229 2.5589 2.1125 1.9102 2.5238-1.2696 0.3313-2.5612 3.2323-4.4881 4.8012-3.189 0.4181 0.3462 2.707 0.2299 5.0865-0.25846 2.3795-0.48837 6.478-0.61273 9.1078-0.27636 2.6297 0.33635 5.5879 0.35216 6.5738 0.0351 2.9312-0.94267 10.802-0.27687 11.196 0.94704 0.6559 2.0396-1.4586 4.0016-4.8938 4.5409l-3.3609 0.52753 3.8359 0.60374c3.7876 0.59614 3.8676 0.56463 6.3631-2.5043 3.2174-3.9566 8.4973-5.741 12.647-4.274 3.4149 1.2072 5.3089 4.9766 3.2967 6.5607-0.6824 0.53721-0.8876 1.2691-0.4561 1.6264 1.4336 1.1871 2.3272 0.18721 2.618-2.9293 0.443-4.7468 1.5952-5.9536 5.6911-5.961 6.9315-0.0126 11.691 4.2899 9.0979 8.2247-0.974 1.478 0 7.0542 1.1624 6.6792 0.2867-0.0922 2.0855-3.3912 3.9974-7.331 5.4198-11.168 8.0112-10.521 13.638 3.4099l2.9763 7.3683-2.5858 0.83156c-1.7647 0.56752-2.9181 0.31869-3.6323-0.78367zm-37.144-9.2751c2.4506-1.27 2.47-1.384 0.408-2.4004-2.4713-1.2181-4.3209-0.8281-6.503 1.3711-1.9024 1.9172-0.7672 5.8152 1.8387 6.3138 1.5516 0.29688 1.9145-0.0617 1.8119-1.79-0.084-1.4206 0.7533-2.6182 2.4444-3.4945zm15.227-2.8839c-0.1615-0.50223-0.718-0.77668-1.2366-0.60989-0.5187 0.16678-0.8109 0.71416-0.6493 1.2164 0.1615 0.50223 0.7179 0.77668 1.2366 0.60989 0.5186-0.16679 0.8108-0.71416 0.6493-1.2164zm136.89-27.29c-23.074 1.979-35.898-1.0248-45.056-10.554-3.7858-3.9389-5.0072-6.0008-6.7335-11.367-2.5161-7.8209-1.8059-10.288 3.1319-10.881 4.8613-0.58325 8.577 1.9962 10.216 7.0918 2.1495 6.684 7.1236 10.746 14.901 12.17 12.004 2.1972 29.81 0.72377 35.58-2.9443 6.8191-4.3345 10.269-12.541 8.7891-20.91-1.6071-9.0893-8.9381-12.658-32.167-15.66-12.72-1.6437-22.652-4.1452-27.067-6.8171-5.1594-3.1227-10.484-10.374-11.628-15.837-2.3624-11.277 1.3699-24.643 8.8162-31.573 4.5409-4.226 16.202-8.209 25.273-8.6322 17.171-0.80108 27.318 0.83669 34.708 5.6022 6.1378 3.9576 8.2548 6.5088 11.177 13.469 4.3599 10.384 2.7532 16.687-4.1631 16.33-5.1782-0.26726-6.3117-1.4192-7.7595-7.886-2.0643-9.2206-6.7458-13.322-16.851-14.762-11.364-1.6194-27.532 0.32422-32.063 3.8542-7.0464 5.4899-8.4859 18.48-2.8143 25.397 4.0764 4.9715 8.7993 6.5739 26.686 9.0541 24.515 3.3993 34.669 8.0374 39.291 17.947 5.5792 11.962 1.0703 30.926-9.1822 38.62-4.7796 3.5868-16.237 7.6997-23.085 8.2871zm-86.379-0.0569c-9.6915 0.27035-13.638 0.28896-20.778 0.098-3.239-0.0866-25.342 0.19897-39.893 0.51545-2.8414 0.0618-6.1125 0.082-7.269 0.0448-3.69-0.11851-11.281-0.0642-17.406 0.12455-6.7812 0.20896-8.9503-1.2024-9.5538-6.2164-1.0783-8.9588 3.5705-32.796 8.2012-42.053 2.6795-5.3561 10.172-13.647 14.615-16.173 8.317-4.7278 18.446-9.6022 26.675-12.836 18.76-7.3733 37.286-16.399 40.68-19.819 4.1372-4.1695 6.7728-10.538 7.5429-18.227 0.698-6.9688 0.4724-9.0269-1.7278-15.766-2.9676-9.089-5.4881-12.255-12.205-15.331-10.039-4.5972-29.188-5.379-43.312-1.7684-8.1253 2.077-9.2072 2.5827-12.46 5.8246-4.3946 4.3798-6.8844 10.202-8.8902 20.79-1.4084 7.4346-1.8107 8.2586-4.6163 9.4566-3.8187 1.6306-8.5372-0.20817-9.6838-3.7737-2.4512-7.6222 5.99-28.775 14.519-36.384 10.88-9.7059 30.064-13.321 54.742-10.317 9.1705 1.1165 21.177 6.4258 26.008 11.501 7.5952 7.979 11.556 17.383 11.812 28.042 0.3665 15.272-3.4575 25.963-12.441 34.783-6.2192 6.1062-19.255 12.914-42.244 22.061-19.776 7.8688-26.346 11.674-31.756 18.393-4.9568 6.1554-7.1856 11.739-8.8445 22.156-1.0843 6.8096-1.0893 9.0214-0.025 11.446 0.2466 0.56181 7.3302 0.94538 15.741 0.8524 8.4111-0.093 22.071-0.20325 30.356-0.24504 8.2845-0.0418 21.238-0.15692 28.784-0.25583 14.654-0.19207 16.838 0.51048 17.134 5.5103 0.178 3.0146-1.297 6.6591-2.8479 7.0371-0.5811 0.14164-5.4651 0.3805-10.853 0.5308zm-130.64 0.33498-3.3118-1.3357 0.9011-49.527c0.4955-27.24 0.911-51.989 0.9231-54.997 0.029-7.1733 1.5647-10.056 5.618-10.544 3.9938-0.48093 7.3005 0.98681 8.146 3.6157 0.526 1.6358 0.1113 43.699-0.5871 59.539-0.074 1.6864-0.1907 7.1648-0.2587 12.174-0.1829 13.493-0.8099 32.86-1.192 36.819-0.2891 2.9962-0.7859 3.6161-3.6309 4.531-2.1129 0.67949-4.4846 0.5805-6.6077-0.27579zm-118.6 37.565c-2.5251-0.9114-3.486-1.9425-4.3691-4.6884-0.8731-2.7151-1.8393-3.7701-4.2252-4.6136-4.7783-1.6893-8.6764 0.0631-11.241 5.0532-1.1941 2.3236-2.9576 4.4777-3.9189 4.7868-6.6978 2.154-34.807-8.7312-36.551-14.154-0.40337-1.2543-0.0652-3.8426 0.75154-5.7517 1.9615-4.5852 0.57715-8.9495-3.415-10.766-2.3444-1.0667-3.9866-1.0173-7.5888 0.22847-3.3539 1.1599-5.1626 1.2749-6.6885 0.4252-3.5362-1.9691-8.3207-10.409-11.917-21.022-4.2116-12.43-3.8487-15.354 2.1446-17.281 5.3957-1.7352 7.7673-6.2575 5.5404-10.565-0.87704-1.6963-2.7902-3.721-4.2515-4.4993-3.6358-1.9365-4.5434-6.4293-1.5855-7.8484 4.0187-1.9279 14.106 4.6024 15.946 10.323 1.849 5.7496-1.4375 14.048-7.1776 18.124l-3.3883 2.4058 2.0947 7.4432c1.2188 4.3308 3.088 8.7849 4.4701 10.652 2.1606 2.9185 2.7435 3.1408 6.446 2.4575 5.2579-0.97025 11.93 1.3068 15.702 5.3589 3.858 4.1442 4.4937 6.2726 3.8011 12.726l-0.57104 5.3209 5.4625 2.361c3.0044 1.2986 7.6628 2.9913 10.352 3.7616l4.8895 1.4005 3.7372-3.9229c4.7808-5.0183 10.99-7.1734 17.827-6.1871 3.9389 0.56821 5.7098 1.5543 9.2904 5.1731l4.4239 4.4711 9.3456-3.7208c5.14-2.0464 9.7423-4.3072 10.227-5.0239 0.4849-0.71668 0.5555-2.3171 0.1569-3.5565-0.9447-2.9376 1.462-9.9095 4.8093-13.932 2.0273-2.4361 3.9339-3.5833 8.1272-4.8897 3.0131-0.93878 6.1252-1.4844 6.9156-1.2125 3.8929 1.339 5.2402 0.5396 8.4454-5.0114 1.7748-3.0738 3.8653-7.5813 4.6453-10.017l1.4184-4.4278-4.3179-3.3493c-7.0782-5.4905-8.4583-13.296-3.6578-20.689 1.1732-1.8067 3.4945-4.0125 5.1585-4.9019 2.2664-1.2114 3.05-2.3343 3.1237-4.4762 0.2505-7.2776 8.0792-6.1178 9.3519 1.3854 0.9939 5.8592 0.8806 6.412-1.4702 7.1741-4.8014 1.5567-8.6067 4.8672-9.1707 7.9784-0.8363 4.6131-0.1433 5.6947 5.2149 8.1378 2.6813 1.2226 5.1103 2.9518 5.3977 3.8427 1.5981 4.9529-11.255 33.57-15.723 35.007-0.9162 0.29464-3.9271-0.0891-6.6909-0.85265-6.1747-1.706-7.6083-1.3049-10.333 2.8903-1.8225 2.8066-1.9395 3.931-0.7867 7.558 0.7453 2.3434 1.1843 4.877 0.9764 5.63-0.7553 2.7359-8.9043 7.2502-21.357 11.831-11.951 4.3962-12.718 4.5638-15.798 3.4522zm-8.6106-40.526c-6.6807 0.59481-11.923-0.44208-19.116-3.781-7.5057-3.4841-9.5334-5.186-14.791-12.415-3.8668-5.3167-6.2314-14.856-5.4681-22.059 0.67577-6.3767 6.2506-17.467 10.772-21.429 4.3563-3.8173 12.155-8.5746 16.347-9.972 1.6798-0.55995 2.9416-1.3682 2.804-1.796-0.1376-0.42788-3.7683-1.1619-8.0681-1.6311-7.2773-0.79412-8.503-0.63402-17.724 2.3152-6.1245 1.9588-12.411 4.6426-16.468 7.0303-6.9733 4.1042-6.8378 4.074-24.269 5.4204-2.5128 0.1941-6.367 0.5849-8.5649 0.86846s-5.8404 0.60465-8.0945 0.71353c-2.2541 0.10889-5.3046 0.33871-6.7789 0.51072s-4.3284-0.33128-6.3425-1.1184c-4.882-1.908-6.3162-6.0788-3.9391-11.456 0.93816-2.122 1.5861-6.0868 1.4398-8.8106-0.44787-8.3412 0.35172-18.205 2.0231-24.958 2.5726-10.393 12.201-27.262 20.899-36.615 5.2933-5.692 17.781-14.15 27.548-18.658 7.5456-3.4829 10.145-4.2535 18.756-5.5604 22.714-3.4472 40.111-0.79408 58.123 8.8646 9.6565 5.178 15.822 10.323 23.997 20.024 8.8694 10.525 12.063 16.762 15.594 30.454l2.9565 11.465 4.7911 2.3108c2.6351 1.2709 10.729 3.5752 17.986 5.1205 15.547 3.3106 21.074 5.5076 22.132 8.7978 1.5403 4.7894-4.2479 9.4699-11.915 9.6347-3.02 0.0649-11.263 0.50575-18.996 1.0159-13.894 0.91654-37.504 1.1333-47.475 0.43585-3.6658-0.25641-6.8197-0.17667-7.0086 0.1772-0.1889 0.35389 0.9761 1.7832 2.5889 3.1763 11.675 10.084 15.059 26.201 8.4218 40.106-4.5579 9.5488-10.617 15.008-20.694 18.643-4.3595 1.5727-9.5196 3.0013-11.467 3.1747zm17.176-16.238c5.3481-4.8904 9.1042-12.843 9.2011-19.482 0.093-6.4089-0.8675-9.2601-4.9887-14.801-4.4353-5.9634-10.179-9.5397-17.364-10.813-5.2488-0.92994-6.7235-0.75715-13.861 1.624-9.1536 3.0538-12.826 5.7512-16.771 12.319-9.1964 15.311 0.5919 35.048 19.02 38.353 8.2183 1.474 18.568-1.5357 24.764-7.2013zm65.594-59.578c-0.1311-0.37349-3.5054-1.3554-7.4985-2.182-12.912-2.673-20.158-6.7942-22.396-12.739-0.6329-1.6807-1.9088-6.575-2.8353-10.876-1.6404-7.6158-2.6003-9.7275-9.6701-21.274-1.2757-2.0835-5.7667-7.3385-9.98-11.678-6.6293-6.8275-9.1105-8.6068-18.431-13.217-19.599-9.694-39.376-10.697-62.834-3.1863-8.302 2.6581-20.761 10.699-27.37 17.665-9.2672 9.7679-18.037 26.068-19.933 37.049-1.0887 6.3062-1.2947 16.655-0.38753 19.476 0.34858 1.084 0.30351 3.8557-0.10016 6.1595-0.40368 2.3038-0.64984 4.4502-0.54703 4.7699 0.1028 0.31968 4.403 0.22385 9.5561-0.21296 5.153-0.43681 11.887-0.97348 14.964-1.1926 9.0398-0.64375 14.114-1.8841 19.293-4.7162 11.406-6.2368 20.15-9.7017 25.841-10.239 7.6142-0.71956 17.769 0.42971 26.264 2.9725 3.9116 1.1708 11.229 2.709 16.261 3.4181 9.7361 1.372 29.599 2.6045 31.601 1.9608 0.66-0.21226 2.7759-0.26698 4.7019-0.1216 3.4894 0.26336 5.1758 0.23786 16.861-0.25498 3.3877-0.14288 8.0303-0.26622 10.317-0.2741 4.9059-0.0169 6.6492-0.37736 6.3229-1.3073zm-61.206-2.7275c-5.9467 0.0324-15.985-0.93903-19.83-1.9189-1.2249-0.31221-5.8221-1.5035-10.216-2.6474-10.647-2.7718-25.626-2.7359-29.648 0.0711-7.6285 5.3241-49.064 15.162-54.725 12.994-2.2201-0.85047-2.9647-3.4448-1.5882-5.5337 1.3193-2.002 5.4492-3.1776 15.641-4.4523 8.9713-1.122 25.597-5.951 35.685-10.365 11.776-5.1521 22.877-5.3177 39.668-0.59184 9.3931 2.6436 18.225 3.8352 24.801 3.3461 6.7499-0.50211 9.9126 0.43826 10.805 3.2125 0.5184 1.612 0.1069 2.7755-1.3978 3.9528-2.5464 1.9923-2.0778 1.8938-9.1955 1.9326zm-17.209-32.157c-5.6047-2.7642-7.2106-7.2029-4.466-12.344 3.4705-6.5015 12.261-7.2557 17.277-1.4825 2.7334 3.1459 2.3733 7.8521-0.8811 11.516-3.585 4.0364-7.0642 4.7102-11.93 2.3105zm-23.45 0.80224c-1.7141-0.60601-4.1782-2.1295-5.4757-3.3855-7.2977-7.0646 3.3497-18.754 12.826-14.08 7.9931 3.9421 6.3678 15.158-2.6151 18.047-0.89 0.2862-3.0206 0.0245-4.7348-0.58147zm-74.434 20.877c-1.836-1.3484-1.9642-2.03-1.3546-7.2048 1.615-13.71 12.567-31.474 25.493-41.351 7.444-5.6881 23.144-12.425 32.082-13.766 15.748-2.3626 30.047-0.66898 42.003 4.9751 5.2388 2.4732 7.1098 5.0308 5.663 7.7412-1.3741 2.5742-3.6676 2.5044-11.592-0.35275-22.678-8.1764-43.749-5.1906-62.961 8.9219-5.2865 3.8832-14.86 16.088-17.733 22.606-1.1995 2.7214-2.8438 7.9951-3.654 11.719-1.6202 7.4471-4.0968 9.5388-7.9466 6.7114zm50.22-20.954c-7.5566-1.7541-10.573-6.5106-7.9763-12.58 3.0037-7.0214 14.192-7.861 18.302-1.3734 4.1798 6.5971-2.5924 15.748-10.326 13.953zm176.21-35.7c-2.2598-0.3539-4.3196-1.1316-4.5774-1.7282-0.9696-2.2441-1.212-4.9642-0.6964-7.8126 0.7182-3.9675 5.8033-5.7512 10.206-3.5799 3.5497 1.7507 3.5985 1.8656 2.8053 6.599-0.96 5.728-2.816 7.2923-7.7375 6.5216zm385.38-198.56c-4.6368-0.18226-13.844-0.42176-20.461-0.53222-6.6167-0.11046-12.35-0.45464-12.741-0.76485-0.3909-0.31021-2.2479-0.26072-4.1266 0.10999-1.8788 0.3707 6.8531-2.701 19.404-6.826l22.82-7.5 2.4961 7.7617c1.3728 4.2689 2.1681 7.8339 1.7673 7.9222s-4.5225 0.0114-9.1593-0.17091z" clip-path="url(#clipPath245-3)" transform="matrix(.098351 0 0 .092405 65.217 108.73)" stroke-width=".97474" fill="#ff7f2a"/>
  <g aria-label="i2sub" style="word-spacing:0px;letter-spacing:0px" transform="matrix(.49119 0 0 .49345 35.762 79.614)" line-height="1.25" font-size="40px" font-family="sans-serif">
   <text style="word-spacing:0px;letter-spacing:0px" xml:space="preserve" transform="scale(1.0023 .99771)" line-height="1.25" font-size="21.497px" y="106.88746" x="12.238169" font-family="sans-serif" fill="#000000"><tspan y="125.90707" x="12.238169" stroke-width=".53742"/></text>
  </g>
  <g aria-label="Geotechnical,Drilling,Oil&amp;Gas" clip-path="url(#clipPath4204)" transform="matrix(.090689 0 0 .093629 73.182 129.11)" fill="#ff7f2a">
   <path d="m55.808 28.071c0.58323-0.18991 0.73301-1.9142 0.19097-2.1984-0.18053-0.09467-0.32824-0.70369-0.32824-1.3534 0-1.0862-0.42665-1.8497-1.0337-1.8497-0.13524 0-0.62476 0.42149-1.0878 0.93664-0.79793 0.8877-0.82257 1.015-0.47154 2.4371 0.20371 0.82526 0.42272 1.6571 0.48667 1.8486 0.1224 0.36643 1.3639 0.46554 2.2436 0.1791zm-10.692 33.184c3.6137-0.75549 8.1249-2.4895 10.99-4.2243 5.854-3.5449 10.737-9.4981 12.36-15.069 1.0802-3.7075 1.6827-7.8725 1.1388-7.8725-1.0887 0-3.564 2.0642-4.4469 3.7083-0.45309 0.84382-1.4832 0.99964-1.7237 0.26073-0.08725-0.26809-0.25002-1.0604-0.36169-1.7607-0.16667-1.0452-0.49071-1.5138-1.8087-2.6153-1.4179-1.1851-1.8081-1.3585-3.3373-1.4832-1.2016-0.09798-1.9867-0.34182-2.5648-0.79669-1.4507-1.1414-1.8148-0.6343-0.67927 0.94606 0.51663 0.71902 0.87087 0.90704 1.722 0.91408 1.1152 0.0093 2.2205 0.53118 2.2205 1.0486 0 0.28265-1.6341 1.1602-4.8671 2.6138-1.4068 0.63251-1.4242 0.63333-1.8036 0.08521-0.2107-0.30439-0.70704-1.2687-1.103-2.1428-0.73353-1.6195-1.9825-3.2849-2.4636-3.2849-0.5786 0-0.21067 1.4271 0.90216 3.4992 0.79259 1.4758 1.1386 2.4954 1.0752 3.1682-0.08962 0.95081-0.05047 0.9905 0.94023 0.95333 0.56856-0.02133 1.5119-0.24122 2.0964-0.48862 0.58446-0.24742 1.1121-0.40789 1.1726-0.3566 0.06043 0.05124-0.12362 0.67472-0.409 1.3854-0.36756 0.91535-1.0852 1.7371-2.4609 2.8178l-1.942 1.5256v3.7358l-2.4603 2.1012c-1.3532 1.1557-2.5433 2.3232-2.6448 2.5946-0.18177 0.48596-1.9824 1.07-3.2651 1.059-0.72904-0.0054-2.5263-2.0513-3.1614-3.5973-0.31945-0.77758-0.28506-1.1899 0.20027-2.4015 0.57654-1.4393 0.57495-1.4758-0.09881-2.2787-0.37662-0.4488-1.0009-1.533-1.3873-2.4094-0.77641-1.7609-1.6762-2.2843-3.4305-1.9957-3.844 0.63238-4.3739 0.52536-6.8931-1.3922l-1.313-0.9994v-5.7018l1.9197-1.8554c1.4316-1.3836 2.2007-1.9001 3.0245-2.0313 0.60764-0.09672 1.2759-0.35076 1.4849-0.56453 0.26151-0.26737 1.1256-0.38865 2.7691-0.38865h2.389l0.29094 1.0445 0.29094 1.0445 4.0909 0.0694c2.25 0.03823 4.7186-0.000605 5.4859-0.08666 1.3351-0.14943 1.395-0.1973 1.395-1.1139v-0.95778h-1.6493c-1.4684 0-1.6844-0.07837-1.9695-0.71446-0.17606-0.39295-0.32012-0.82693-0.32012-0.9644s1.3663-0.28598 3.0362-0.33002c2.9933-0.07896 3.0362-0.0899 3.0362-0.7753 0-0.54717-0.3495-0.85718-1.6412-1.4558-0.90267-0.4183-1.9989-0.76348-2.436-0.76706-1.0485-0.0086-1.9953 0.7481-1.9953 1.5946 0 0.43029-0.22594 0.72937-0.61647 0.81602-0.33906 0.07524-0.77902 0.43952-0.97769 0.80951-0.52201 0.97218-1.36 0.87181-1.36-0.16287 0-0.91916-0.87395-1.8219-2.1681-2.2393-1.7756-0.57282-1.922-0.10795-0.42259 1.3412l1.02 0.98579-0.77384 0.3532c-0.72579 0.33127-0.78749 0.2987-0.99373-0.52453-0.34119-1.3619-1.3874-1.9221-3.1962-1.7113-1.5537 0.18104-2.0753 0.53173-3.0618 2.0585-0.53178 0.82299-0.67343 0.87587-2.1336 0.79645l-1.564-0.08506-0.10093-1.1837-0.10093-1.1838h1.8242c1.7362 0 1.8242-0.03425 1.8242-0.70976 0-0.5369-0.25982-0.80259-1.0668-1.0909l-1.0668-0.38111 0.98473-0.18762c1.1468-0.21851 2.1463-0.60714 3.8568-1.4998 0.95611-0.49892 1.2309-0.81905 1.2309-1.434 0-1.0812 0.47888-1.2447 1.2023-0.41054 0.55288 0.63753 0.74772 0.68062 2.3425 0.51806 1.4576-0.14857 1.8145-0.30042 2.2025-0.93706 0.25465-0.41786 0.76434-0.82662 1.1326-0.90835 0.94712-0.21017 0.84532-1.1575-0.16642-1.5487-1.5344-0.59323-2.0624-0.41925-2.4518 0.8079-0.31874 1.0044-0.45804 1.1214-1.2436 1.0445-0.77032-0.07546-0.87836-0.20361-0.83621-0.99187 0.05675-1.0613-0.0013-1.0845-0.86901-0.34816-0.78259 0.66407-2.1482 0.73238-2.4245 0.12129-0.23587-0.52158 2.0032-2.4284 4.0672-3.4636 0.76353-0.38298 2.0398-1.3406 2.836-2.128 1.879-1.858 2.8157-2.1759 5.7333-1.9458 4.1581 0.32792 1.4949-0.77223-3.9296-1.6233-8.3462-1.3094-17.101 0.18755-24.103 4.1212-2.4232 1.3614-2.5245 1.4591-1.9356 1.8659 1.5693 1.0841 1.7925 2.764 0.55744 4.1948-0.4493 0.52052-1.2532 1.5104-1.7864 2.1998-1.735 2.2431-1.8428 2.3364-2.4651 2.1338-0.50191-0.16344-0.56784-0.45486-0.45203-1.9982 0.07457-0.99375 0.0126-1.8068-0.1377-1.8068-0.5956 0-2.0362 1.0101-2.9243 2.0503-1.2507 1.465-1.2043 2.5717 0.21225 5.0708 0.63187 1.1147 1.1488 2.2045 1.1488 2.4216 0 0.21716-0.4062 0.55053-0.90266 0.74081-1.3968 0.53539-4.0996 2.117-4.9677 2.9069-0.75936 0.69103-0.77804 0.8181-0.62847 4.2753 0.1734 4.0083 0.58535 5.0549 2.3297 5.9184 2.6009 1.2877 3.5127 1.8108 3.5127 2.0154 0 0.12106 0.45211 1.0781 1.0047 2.1267 0.97138 1.8434 1.0611 1.9219 2.708 2.3668 0.93682 0.25308 2.1656 0.70122 2.7305 0.99588 1.0209 0.53242 1.0253 0.54483 0.71105 2.0118-0.30963 1.4455-0.73012 2.279-1.7641 3.4966-0.49626 0.58438-0.44538 0.65349 1.3966 1.8969 3.863 2.6077 10.37 4.8149 16.354 5.5473 2.3416 0.28657 7.9966-0.1145 11.273-0.79952zm-13.571 3.6c-5.467-0.879-10.58-2.655-15.089-5.243-2.557-1.467-7.2005-5.412-8.9431-7.598-4.6769-5.867-7.1758-13.818-6.3312-20.144 2.0366-15.256 15.103-26.258 33.097-27.867 7.4402-0.66548 16.644 1.4273 23.404 5.3214 2.5 1.4402 6.8658 5.065 8.7757 7.2863 4.1542 4.8313 6.9166 12.023 6.9282 18.035 0.01064 5.5348-2.486 12.306-6.2733 17.014-3.1863 3.9609-8.832 8.18-13.741 10.268-2.7509 1.1704-8.2451 2.6377-11.488 3.068-2.8415 0.37707-7.5072 0.31296-10.34-0.14203zm65.471-22.351h-19.978v-0.82191q3.7091-0.17612 4.9735-1.0567 1.3488-0.88062 1.3488-2.818v-14.265q0-2.5244-0.59008-3.4638-0.50578-0.93932-2.1917-0.93932-1.0959 0-3.5405 0.46966v-0.82191l13.488-3.1702v22.191q0 1.9961 1.3488 2.8767 1.3488 0.82191 5.1421 0.99803zm-6.406-36.986q0 1.2329-1.2645 2.1135-1.2645 0.88061-2.9504 0.88061-1.8545 0-3.119-0.88061-1.1802-0.88061-1.1802-2.1135 0-1.2916 1.1802-2.1722 1.2645-0.88061 3.119-0.88061 1.6859 0 2.9504 0.88061t1.2645 2.1722zm49.849 28.943-4.7206 8.0429h-32.707v-0.82191l14.246-10.45q11.633-8.7474 11.633-15.675 0-3.8747-3.2876-6.1643-3.2033-2.3483-8.7669-2.3483-7.8396 0-12.055 7.6907l-1.7702-0.35225q1.3488-5.225 5.9851-8.3952 4.7206-3.1702 12.139-3.1702 6.238 0 10.621 2.9941 4.3834 2.9941 4.3834 7.2797 0 3.9334-2.6975 7.2797t-8.8512 7.8668l-13.403 9.7455h17.955q4.7206 0 6.1537-0.52837 1.5174-0.58708 4.0463-3.3463zm19.313-18.845q2.1074 0 4.552 0.64578t3.2876 0.64578q1.0959 0 1.686-0.7632h1.0116v7.9842h-1.2645q-1.4331-3.5225-3.4562-5.3424-1.9388-1.8199-5.9008-1.8199-2.5289 0-4.4678 1.0567-1.8545 1.0567-1.8545 2.7593 0 1.5851 2.0231 2.9941t4.8892 2.5244q2.9504 1.1154 5.8165 2.2896t4.8892 2.8767 2.0231 3.7573q0 3.6399-3.5405 5.8121-3.5405 2.1135-8.8512 2.1135-2.0231 0-5.1421-0.70449-3.0347-0.70449-4.3835-0.70449-1.433 0-1.8545 0.93932h-1.1802v-9.2171h1.433q1.9388 8.2191 10.959 8.2191 2.8661 0 4.8049-1.1154t1.9388-2.9941q0-1.7025-2.0231-3.0528-1.9388-1.409-4.8049-2.4657-2.7818-1.0567-5.5636-2.1722-2.7818-1.1742-4.8049-2.9354-1.9388-1.8199-1.9388-4.1095 0-3.2876 3.3719-5.225 3.4562-1.9961 8.3454-1.9961zm57.126 24.716q-3.0347 0.64578-11.886 2.818v-5.1663l-1.8545 1.3503q-4.6364 3.816-10.706 3.816-4.8892 0-7.4182-2.2309-2.4446-2.2309-2.4446-6.1643v-13.444q0-2.7006-0.92727-3.4638t-4.3835-0.7632v-0.82191h12.476v18.199q0 5.225 6.3223 5.225 3.2033 0 6.5752-1.8786 1.8545-1.0567 1.8545-2.5831v-13.796q0-2.818-1.0116-3.5812t-5.0578-0.7632v-0.82191h13.15v19.197q0 2.3483 0.75867 3.2289 0.75868 0.82191 3.6248 0.82191h0.92727zm34.144-9.5693q0-1.9374-0.50579-3.816-0.50578-1.8786-1.6859-3.6399-1.0959-1.8199-3.3719-2.9354-2.1917-1.1154-5.2264-1.1154-4.2992 0-6.3223 1.4677-1.9388 1.4677-1.9388 3.6399v14.031q0 1.0567 2.4446 1.9374 2.5289 0.82191 5.7322 0.82191 5.7322 0 8.2611-3.0528 2.6132-3.0528 2.6132-7.3385zm7.3339-2.5244q0 5.9882-5.5636 10.45-5.4793 4.4618-13.825 4.4618-4.805 0-9.5256-1.2329-4.7206-1.2916-4.7206-2.5831v-29.648q0-2.3483-0.59008-2.9354-0.59008-0.58708-2.5289-0.58708h-2.3603v-1.057q1.1802-0.23483 3.6248-0.64578 2.5289-0.41095 3.7934-0.70449l5.3107-1.2916v17.847q1.686-2.2309 4.8892-3.4638 3.2033-1.2329 6.9967-1.2329 6.8281 0 10.621 3.8747 3.8777 3.816 3.8777 8.7474zm-175.1 29.462v-2.4477h-2.0143v-1.0133h3.2352v3.9127q-0.71418 0.50664-1.5748 0.76911-0.86067 0.25637-1.8373 0.25637-2.1364 0-3.345-1.2452-1.2025-1.2513-1.2025-3.4793 0-2.2341 1.2025-3.4793 1.2086-1.2513 3.345-1.2513 0.89119 0 1.6908 0.21975 0.80574 0.21975 1.4833 0.64703v1.3124q-0.68366-0.57989-1.4528-0.87288-0.76911-0.293-1.6176-0.293-1.6725 0-2.5149 0.93392-0.83626 0.93392-0.83626 2.7835 0 1.8434 0.83626 2.7773 0.84236 0.93392 2.5149 0.93392 0.65313 0 1.1659-0.10987 0.51274-0.11598 0.92171-0.35404zm8.155-2.7285q-0.012-0.922-0.519-1.471-0.5-0.549-1.33-0.549-0.94002 0-1.5077 0.53105-0.56157 0.53105-0.64703 1.4955zm1.1231 0.32962v0.54937h-5.164q0.07325 1.1598 0.69586 1.7702 0.62872 0.6043 1.7458 0.6043 0.64703 0 1.2513-0.1587 0.61041-0.15871 1.2086-0.47612v1.0621q-0.6043 0.25637-1.2391 0.39066-0.63482 0.13429-1.288 0.13429-1.6359 0-2.5942-0.95223-0.95223-0.95223-0.95223-2.5759 0-1.6786 0.9034-2.6614 0.9095-0.98886 2.4477-0.98886 1.3795 0 2.1791 0.89119 0.80574 0.88509 0.80574 2.4111zm4.4926-3.3023q1.465 0 2.3012 0.95223 0.83626 0.95223 0.83626 2.637 0 1.6786-0.83626 2.637-0.83625 0.95223-2.3012 0.95223-1.4711 0-2.3073-0.95223-0.83015-0.95834-0.83015-2.637 0-1.6847 0.83015-2.637 0.83626-0.95223 2.3073-0.95223zm0 0.95223q-0.9034 0-1.4284 0.70807-0.52495 0.70197-0.52495 1.9289t0.51884 1.935q0.52495 0.70197 1.4345 0.70197 0.8973 0 1.4222-0.70807 0.52495-0.70807 0.52495-1.9289 0-1.2147-0.52495-1.9228-0.52495-0.71418-1.4222-0.71418zm6.1041-2.7285v1.9411h2.3134v0.87288h-2.3134v3.7113q0 0.83626 0.22585 1.0743 0.23195 0.23806 0.93392 0.23806h1.1537v0.94002h-1.1537q-1.3002 0-1.7946-0.48222-0.49443-0.48832-0.49443-1.7702v-3.7113h-0.82405v-0.87288h0.82405v-1.9411zm8.5213 4.749q-0.0122-0.92171-0.51885-1.4711-0.50053-0.54937-1.3307-0.54937-0.94003 0-1.5077 0.53105-0.56157 0.53105-0.64703 1.4955zm1.1231 0.32962v0.54937h-5.164q0.0732 1.1598 0.69586 1.7702 0.62872 0.6043 1.7458 0.6043 0.64703 0 1.2513-0.1587 0.6104-0.15871 1.2086-0.47612v1.0621q-0.6043 0.25637-1.2391 0.39066-0.63483 0.13429-1.288 0.13429-1.6359 0-2.5942-0.95223-0.95223-0.95223-0.95223-2.5759 0-1.6786 0.9034-2.6614 0.90951-0.98886 2.4477-0.98886 1.3795 0 2.1792 0.89119 0.80573 0.88509 0.80573 2.4111zm6.7633-2.875v1.0499q-0.47612-0.26248-0.95834-0.39066-0.47611-0.13429-0.96444-0.13429-1.0926 0-1.6969 0.69586-0.6043 0.68976-0.6043 1.9411t0.6043 1.9472q0.60431 0.68976 1.6969 0.68976 0.48833 0 0.96444-0.12818 0.48222-0.13429 0.95834-0.39676v1.0377q-0.47001 0.21975-0.97665 0.32962-0.50053 0.10987-1.0682 0.10987-1.5443 0-2.4538-0.97055-0.90951-0.97054-0.90951-2.6186 0-1.6725 0.91561-2.6308 0.92172-0.95834 2.521-0.95834 0.51885 0 1.0133 0.10987 0.49443 0.10377 0.95834 0.31741zm7.6484 2.4477v4.1263h-1.1232v-4.0897q0-0.97055-0.37845-1.4528-0.37845-0.48222-1.1354-0.48222-0.90951 0-1.4345 0.57988-0.52495 0.57989-0.52495 1.581v3.8639h-1.1292v-9.4979h1.1292v3.7235q0.40287-0.61651 0.94613-0.92171 0.54937-0.3052 1.2635-0.3052 1.1781 0 1.7824 0.73249 0.6043 0.72638 0.6043 2.1425zm7.9353 0v4.1263h-1.1232v-4.0897q0-0.97055-0.37845-1.4528-0.37845-0.48222-1.1354-0.48222-0.9095 0-1.4344 0.57988-0.52495 0.57989-0.52495 1.581v3.8639h-1.1292v-6.8365h1.1292v1.0621q0.40287-0.61651 0.94613-0.92171 0.54937-0.3052 1.2635-0.3052 1.1781 0 1.7824 0.73249 0.6043 0.72638 0.6043 2.1425zm2.2524-5.3716h1.1232v1.4222h-1.1232zm0 2.6614h1.1232v6.8365h-1.1232zm8.387 0.26247v1.0499q-0.47611-0.26248-0.95833-0.39066-0.47612-0.13429-0.96445-0.13429-1.0926 0-1.6969 0.69586-0.60431 0.68976-0.60431 1.9411t0.60431 1.9472q0.6043 0.68976 1.6969 0.68976 0.48833 0 0.96445-0.12818 0.48222-0.13429 0.95833-0.39676v1.0377q-0.47001 0.21975-0.97665 0.32962-0.50053 0.10987-1.0682 0.10987-1.5443 0-2.4538-0.97055-0.9095-0.97054-0.9095-2.6186 0-1.6725 0.91561-2.6308 0.92171-0.95834 2.521-0.95834 0.51885 0 1.0133 0.10987 0.49442 0.10377 0.95833 0.31741zm7.3127 2.6736v3.9005h-1.1232v-1.0377q-0.38455 0.62261-0.95833 0.92171-0.57379 0.293-1.4039 0.293-1.0499 0-1.6725-0.58599-0.61651-0.59209-0.61651-1.581 0-1.1537 0.76911-1.7397 0.77522-0.58599 2.3073-0.58599h1.5748v-0.111q0-0.77522-0.51274-1.1964-0.50663-0.42728-1.4284-0.42728-0.58599 0-1.1415 0.14039-0.55547 0.14039-1.0682 0.42118v-1.0377q0.61651-0.23806 1.1964-0.35404 0.57988-0.12208 1.1292-0.12208 1.4833 0 2.2158 0.76911 0.73249 0.76911 0.73249 2.3318zm-2.2402 0.46391q-1.3612 0-1.8862 0.31131-0.52495 0.31131-0.52495 1.0621 0 0.5982 0.39066 0.95223 0.39676 0.34793 1.0743 0.34793 0.93392 0 1.4955-0.65924 0.56767-0.66534 0.56767-1.7641v-0.25027zm4.5597-6.0613h1.1232v9.4979h-1.12zm3.754 7.9475h1.288v1.0499l-1.0011 1.9533h-0.78742l0.50053-1.9533zm3.7418-7.5629h2.5332q2.6492 0 3.8883 1.1048 1.2391 1.0987 1.2391 3.4427 0 2.3562-1.2452 3.461t-3.8822 1.1048h-2.5332zm1.233 1.0133v7.0868h1.4894q1.8862 0 2.759-0.85457 0.87898-0.85457 0.87898-2.698 0-1.8312-0.87898-2.6797-0.87288-0.85457-2.759-0.85457zm12.3 2.3134q-0.18923-0.10987-0.41508-0.15871-0.21974-0.05494-0.48832-0.05494-0.95223 0-1.465 0.62261-0.50663 0.61651-0.50663 1.7763v3.6014h-1.1292v-6.8365h1.1292v1.0621q0.35403-0.62261 0.92171-0.92171 0.56768-0.3052 1.3795-0.3052 0.11598 0 0.25637 0.01831 0.14039 0.01221 0.31131 0.04273zm1.1903-3.7113h1.1232v1.4222h-1.1232zm0 2.6614h1.1232v6.8365h-1.1232zm3.4671-2.6614h1.1232v9.4979h-1.1232zm3.4671 0h1.1232v9.4979h-1.1232zm3.4671 0h1.1232v1.4222h-1.1232zm0 2.6614h1.1232v6.8365h-1.1232zm9.15 2.7102v4.1263h-1.1231v-4.0897q0-0.97055-0.37846-1.4528-0.37845-0.48222-1.1354-0.48222-0.90951 0-1.4345 0.57988-0.52494 0.57989-0.52494 1.581v3.8639h-1.1293v-6.8365h1.1293v1.0621q0.40286-0.61651 0.94613-0.92171 0.54936-0.3052 1.2635-0.3052 1.1781 0 1.7824 0.73249 0.6043 0.72638 0.6043 2.1425zm7.8742 3.2779q0 1.7458-0.77521 2.5942-0.77522 0.85457-2.3745 0.85457-0.5921 0-1.117-0.09156-0.52494-0.08546-1.0194-0.26858v-1.0926q0.49443 0.26858 0.97665 0.39676t0.98275 0.12818q1.1048 0 1.6542-0.57988 0.54937-0.57378 0.54937-1.7397v-0.55547q-0.34794 0.6043-0.8912 0.9034t-1.3002 0.2991q-1.2574 0-2.0266-0.95834-0.76911-0.95834-0.76911-2.5393 0-1.5871 0.76911-2.5454 0.76911-0.95834 2.0266-0.95834 0.7569 0 1.3002 0.2991 0.54326 0.2991 0.8912 0.9034v-1.0377h1.1231zm-1.1231-2.6492q0-1.2208-0.50664-1.8923-0.50053-0.67145-1.41-0.67145-0.9034 0-1.41 0.67145-0.50053 0.67145-0.50053 1.8923 0 1.2147 0.50053 1.8862 0.50664 0.67145 1.41 0.67145 0.90951 0 1.41-0.67145 0.50664-0.67145 0.50664-1.8862zm3.7235 1.9472h1.288v1.0499l-1.0011 1.9533h-0.78742l0.50053-1.9533zm7.4408-7.7277q1.9167 0 3.0642 1.288 1.1476 1.2819 1.1476 3.4427 0 2.1547-1.1476 3.4427-1.1476 1.2819-3.0642 1.2819-1.9228 0-3.0764-1.2819-1.1476-1.2819-1.1476-3.4427t1.1476-3.4427q1.1537-1.288 3.0764-1.288zm0 1.0011q-1.3429 0-2.1364 1.0011-0.78743 1.0011-0.78743 2.7285 0 1.7213 0.78743 2.7224 0.79353 1.0011 2.1364 1.0011t2.1242-1.0011q0.78743-1.0011 0.78743-2.7224 0-1.7274-0.78743-2.7285-0.78132-1.0011-2.1242-1.0011zm6.0919-1.2208h1.1232v1.4222h-1.1232zm0 2.6614h1.1232v6.8365h-1.1232zm3.4671-2.6614h1.1232v9.4979h-1.1232zm6.1895 3.9127 3.1009 3.1741q0.36013-0.54326 0.56157-1.1598 0.20143-0.62261 0.23806-1.3185h1.1354q-0.0733 0.80574-0.39066 1.5932-0.31741 0.78742-0.88509 1.5565l1.703 1.7397h-1.5382l-0.86-0.898q-0.63482 0.54326-1.3307 0.81184-0.69586 0.26248-1.4955 0.26248-1.4711 0-2.405-0.83626-0.93392-0.84236-0.93392-2.1547 0-0.78132 0.40897-1.465 0.40898-0.68976 1.2269-1.2941-0.29299-0.38456-0.4456-0.76301-0.1526-0.38456-0.1526-0.7508 0-0.98886 0.67755-1.5871 0.67755-0.6043 1.8007-0.6043 0.50664 0 1.0072 0.10987 0.50664 0.10987 1.0255 0.32962v1.1109q-0.53105-0.28689-1.0133-0.43339-0.48222-0.1526-0.8973-0.1526-0.64092 0-1.0438 0.34183-0.39677 0.33572-0.39677 0.87288 0 0.31131 0.17702 0.62872 0.18312 0.31131 0.73859 0.88509zm-0.86067 0.68366q-0.55547 0.49443-0.81794 0.98886-0.25637 0.48832-0.25637 1.0255 0 0.89119 0.64703 1.4833 0.64703 0.59209 1.6237 0.59209 0.57988 0 1.0865-0.18923 0.50664-0.19533 0.95223-0.58599zm14.143 3.6014v-2.4477h-2.0143v-1.0133h3.2352v3.9127q-0.71417 0.50664-1.5748 0.76911-0.86067 0.25637-1.8373 0.25637-2.1364 0-3.345-1.2452-1.2025-1.2513-1.2025-3.4793 0-2.2341 1.2025-3.4793 1.2086-1.2513 3.345-1.2513 0.89119 0 1.6908 0.21975 0.80573 0.21975 1.4833 0.64703v1.3124q-0.68365-0.57989-1.4528-0.87288-0.76912-0.293-1.6176-0.293-1.6725 0-2.5149 0.93392-0.83626 0.93392-0.83626 2.7835 0 1.8434 0.83626 2.7773 0.84236 0.93392 2.5149 0.93392 0.65313 0 1.1659-0.10987 0.51274-0.11598 0.92171-0.35404zm8.7776-2.6003v3.9005h-1.1232v-1.0377q-0.38455 0.62261-0.95833 0.92171-0.57378 0.293-1.4039 0.293-1.0499 0-1.6725-0.58599-0.61651-0.59209-0.61651-1.581 0-1.1537 0.76911-1.7397 0.77522-0.58599 2.3073-0.58599h1.5748v-0.111q0-0.77522-0.51274-1.1964-0.50663-0.42728-1.4284-0.42728-0.58599 0-1.1415 0.14039-0.55546 0.14039-1.0682 0.42118v-1.0377q0.61651-0.23806 1.1964-0.35404 0.57989-0.12208 1.1292-0.12208 1.4833 0 2.2158 0.76911 0.73249 0.76911 0.73249 2.3318zm-2.2402 0.46391q-1.3612 0-1.8862 0.31131-0.52495 0.31131-0.52495 1.0621 0 0.5982 0.39066 0.95223 0.39676 0.34793 1.0743 0.34793 0.93392 0 1.4955-0.65924 0.56767-0.66534 0.56767-1.7641v-0.25027zm8.918-3.1985v1.0621q-0.47612-0.24416-0.98886-0.36624t-1.0621-0.12208q-0.83625 0-1.2574 0.25637-0.41508 0.25637-0.41508 0.76911 0 0.39066 0.2991 0.61651 0.2991 0.21975 1.2025 0.42118l0.38455 0.08546q1.1964 0.25637 1.6969 0.72638 0.50664 0.46391 0.50664 1.3002 0 0.95223-0.7569 1.5077-0.7508 0.55547-2.0693 0.55547-0.54937 0-1.1476-0.10987-0.5921-0.10377-1.2513-0.31741v-1.1598q0.62262 0.32352 1.2269 0.48832 0.6043 0.1587 1.1964 0.1587 0.79352 0 1.2208-0.26858 0.42728-0.27468 0.42728-0.76911 0-0.4578-0.3113-0.70197-0.30521-0.24416-1.349-0.47001l-0.39066-0.09156q-1.0438-0.21975-1.5077-0.67145-0.46391-0.4578-0.46391-1.2513 0-0.96444 0.68365-1.4894 0.68366-0.52495 1.9411-0.52495 0.62262 0 1.172 0.09156 0.54937 0.09156 1.0133 0.27468z" stroke-width=".98524" fill="#ff7f2a"/>
  </g>
 </g>
</svg>
