<?xml version="1.0" encoding="UTF-8" standalone="no"?>
<!-- Created with Inkscape (http://www.inkscape.org/) -->

<svg
   xmlns:dc="http://purl.org/dc/elements/1.1/"
   xmlns:cc="http://creativecommons.org/ns#"
   xmlns:rdf="http://www.w3.org/1999/02/22-rdf-syntax-ns#"
   xmlns:svg="http://www.w3.org/2000/svg"
   xmlns="http://www.w3.org/2000/svg"
   xmlns:sodipodi="http://sodipodi.sourceforge.net/DTD/sodipodi-0.dtd"
   xmlns:inkscape="http://www.inkscape.org/namespaces/inkscape"
   width="74.369698mm"
   height="20.268396mm"
   viewBox="0 0 74.369697 20.268397"
   version="1.1"
   id="svg306"
   inkscape:version="0.92.3 (3ce5693, 2018-03-11)"
   sodipodi:docname="i2SubHelmet.svg">
  <defs
     id="defs300">
    <clipPath
       clipPathUnits="userSpaceOnUse"
       id="clipPath245">
      <rect
         style="opacity:1;vector-effect:none;fill:#ff7f2a;fill-opacity:1;stroke-width:0.99999994;stroke-linecap:butt;stroke-linejoin:miter;stroke-miterlimit:4;stroke-dasharray:none;stroke-dashoffset:0;stroke-opacity:1"
         id="rect247"
         width="217.6284"
         height="219.34201"
         x="5.1408286"
         y="115.85088" />
    </clipPath>
    <clipPath
       clipPathUnits="userSpaceOnUse"
       id="clipPath245-3">
      <rect
         style="opacity:1;vector-effect:none;fill:#ff7f2a;fill-opacity:1;stroke-width:0.99999994;stroke-linecap:butt;stroke-linejoin:miter;stroke-miterlimit:4;stroke-dasharray:none;stroke-dashoffset:0;stroke-opacity:1"
         id="rect247-5"
         width="217.6284"
         height="219.34201"
         x="5.1408286"
         y="115.85088" />
    </clipPath>
  </defs>
  <sodipodi:namedview
     id="base"
     pagecolor="#ffffff"
     bordercolor="#666666"
     borderopacity="1.0"
     inkscape:pageopacity="0.0"
     inkscape:pageshadow="2"
     inkscape:zoom="1.979899"
     inkscape:cx="90.701486"
     inkscape:cy="12.70858"
     inkscape:document-units="mm"
     inkscape:current-layer="layer1"
     showgrid="false"
     inkscape:window-width="1301"
     inkscape:window-height="744"
     inkscape:window-x="65"
     inkscape:window-y="24"
     inkscape:window-maximized="1"
     fit-margin-top="0"
     fit-margin-left="0"
     fit-margin-right="0"
     fit-margin-bottom="0" />
  <metadata
     id="metadata303">
    <rdf:RDF>
      <cc:Work
         rdf:about="">
        <dc:format>image/svg+xml</dc:format>
        <dc:type
           rdf:resource="http://purl.org/dc/dcmitype/StillImage" />
        <dc:title></dc:title>
      </cc:Work>
    </rdf:RDF>
  </metadata>
  <g
     inkscape:label="Layer 1"
     inkscape:groupmode="layer"
     id="layer1"
     transform="translate(-65.788821,-119.4338)">
    <path
       transform="matrix(0.09835148,0,0,0.09240545,65.216992,108.72855)"
       style="fill:#ff7f2a;stroke-width:0.97474027"
       d="m 93.498935,569.93088 c -0.068,-0.0379 -1.489,-3.93735 -3.1572,-8.66549 -1.9491,-5.52455 -2.7374,-8.95623 -2.2058,-9.60292 0.5759,-0.70054 0.4678,-0.89537 -0.3559,-0.64121 -1.5378,0.47447 -2.3241,-1.97057 -0.9847,-3.0618 0.8245,-0.67171 0.7903,-0.77824 -0.1713,-0.53266 -0.661,0.16884 -1.3418,-0.1282 -1.5129,-0.66006 -0.171,-0.53187 0.3187,-0.82903 1.0883,-0.66035 1.0585,0.23199 0.9886,0.0475 -0.2871,-0.7578 -1.3782,-0.86993 -1.4916,-1.22257 -0.6205,-1.92948 0.8156,-0.66193 0.7837,-0.79293 -0.1361,-0.55802 -0.9218,0.23544 -2.45043,-3.69398 -6.5598,-16.86209 -3.32358,-10.65012 -4.5549,-15.51447 -3.24297,-12.81132 1.60712,3.31134 1.92138,3.63369 1.30873,1.34239 -0.94902,-3.54933 -0.72902,-3.69165 3.66234,-2.36913 1.89411,0.57044 4.0099,0.54359 4.8775,-0.0619 0.8427,-0.58818 2.5533,-0.72994 3.8013,-0.31504 1.2479,0.4149 3.8125,0.2724 5.699,-0.31665 1.8865,-0.58905 4.1674,-0.61781 5.0687,-0.0639 0.905605,0.55659 2.313305,0.5363 3.146705,-0.0454 0.8294,-0.57887 1.9185,-0.71259 2.4202,-0.29726 0.5016,0.41539 2.1081,0.37062 3.5698,-0.0995 1.4618,-0.4701 3.323,-0.44589 4.1361,0.0538 0.813,0.49969 3.6303,0.50937 6.2606,0.0215 2.6303,-0.48784 6.9395,-0.53043 9.5759,-0.0946 2.6365,0.43579 5.2814,0.4403 5.8776,0.01 0.5962,-0.43029 1.7332,-0.53462 2.5267,-0.23183 0.7935,0.30278 4.3554,0.14386 7.9153,-0.35316 3.5599,-0.49703 7.9207,-0.76865 9.6906,-0.60362 1.7698,0.16505 4.5742,0.14963 6.2319,-0.0342 3.6353,-0.40325 22.8108,-0.86859 25.8109,-0.62637 1.1751,0.0949 5.3166,-0.13047 9.2034,-0.50077 6.4627,-0.61569 17.5342,-0.99451 38.8236,-1.32836 4.3977,-0.069 8.7124,-0.35584 9.5882,-0.63752 1.5557,-0.50029 9.9399,-1.03292 16.1766,-1.02767 1.7173,10e-4 5.8726,-0.1808 9.2342,-0.405 3.3615,-0.2242 6.6316,-0.17457 7.2669,0.11028 0.6352,0.28486 2.1059,0.21212 3.2682,-0.16165 1.1622,-0.37377 2.5076,-0.35301 2.9896,0.0461 0.4821,0.39915 2.1244,0.32439 3.6497,-0.16613 2.0181,-0.64899 2.9093,-0.45543 3.2727,0.71079 0.3909,1.25422 0.2354,1.38896 -0.7152,0.61979 -1.0255,-0.8298 -1.2324,-0.76328 -1.3282,0.42715 -0.093,1.1563 -0.3728,1.22143 -1.5544,0.36197 -1.2807,-0.93157 -1.395,-0.89479 -1.0292,0.33098 0.3659,1.22577 0.2611,1.25947 -0.9429,0.30325 -1.2041,-0.95621 -1.3089,-0.92252 -0.943,0.30325 0.3659,1.22577 0.2611,1.25947 -0.943,0.30326 -0.903,-0.71717 -1.237,-0.69373 -1.0019,0.0703 0.221,0.71951 -1.0224,1.58826 -3.3407,2.3338 -2.0723,0.66644 -4.0632,0.7539 -4.536,0.19926 -0.6741,-0.79078 -0.7842,-0.7554 -0.5501,0.17689 0.161,0.64095 -0.5206,1.42693 -1.5147,1.7466 -0.994,0.31968 -2.1866,0.13642 -2.65,-0.40724 -0.6742,-0.79078 -0.7842,-0.7554 -0.5501,0.1769 0.2061,0.82092 -1.7745,1.83012 -6.7011,3.41448 -4.7126,1.51554 -7.2685,1.9267 -7.8364,1.26063 -0.6741,-0.79078 -0.7841,-0.7554 -0.55,0.1769 0.1649,0.65696 -0.9415,1.56225 -2.5363,2.07512 -1.6268,0.52316 -2.9911,0.42668 -3.2104,-0.22704 -0.2794,-0.83245 -0.4924,-0.73343 -0.7956,0.36987 -0.3496,1.27202 -0.5561,1.33841 -1.3256,0.42629 -0.6472,-0.76706 -0.8266,-0.7424 -0.6189,0.085 0.2065,0.82216 -1.7902,1.83518 -6.7796,3.43975 -5.0215,1.61486 -7.1829,1.94474 -7.4538,1.13759 -0.3041,-0.90617 -0.4592,-0.85541 -0.7643,0.24982 -0.5058,1.8333 -17.7814,7.29785 -19.2734,6.09651 -0.7032,-0.56615 -0.9005,-0.39156 -0.6199,0.54845 0.3658,1.22577 0.2611,1.25947 -0.943,0.30326 -0.9031,-0.71717 -1.2371,-0.69373 -1.002,0.0703 0.1941,0.63071 -0.4959,1.41937 -1.5331,1.75294 -1.0373,0.33358 -2.0577,0.095 -2.2675,-0.53028 -0.2853,-0.85017 -0.4839,-0.76459 -0.7876,0.33933 -0.2233,0.81187 -0.7355,1.58206 -1.1382,1.71156 -0.4026,0.12949 -1.2677,-0.19778 -1.9224,-0.72728 -0.8065,-0.6522 -1.0826,-0.61137 -0.856,0.1266 0.4092,1.33318 -3.3974,2.40707 -3.845,1.08472 -0.2157,-0.63705 -0.4432,-0.55824 -0.7022,0.24323 -0.5157,1.59597 -26.4333,9.92218 -27.7914,8.92839 -0.6837,-0.5004 -0.908,-0.43081 -0.7096,0.22013 0.4306,1.41222 -5.1505,3.43578 -5.6195,2.03753 -0.2382,-0.71026 -0.5391,-0.71613 -0.7853,-0.0154 -0.6275,1.78589 -2.7644,2.63447 -4.0392,1.60404 -0.9109,-0.73642 -1.0729,-0.6414 -0.7502,0.43977 0.3658,1.22578 0.2611,1.25947 -0.943,0.30325 -1.2041,-0.95622 -1.3088,-0.92252 -0.943,0.30325 0.3659,1.22578 0.2611,1.25947 -0.9429,0.30325 -0.9031,-0.71716 -1.2371,-0.69372 -1.002,0.0703 0.194,0.63033 -0.496,1.41899 -1.5333,1.75257 -1.0373,0.33357 -2.0576,0.0949 -2.2674,-0.53029 -0.2794,-0.83245 -0.4924,-0.73343 -0.7956,0.36987 -0.3496,1.27202 -0.5561,1.33841 -1.3256,0.42629 -0.6472,-0.76706 -0.8266,-0.7424 -0.6189,0.085 0.2132,0.84901 -2.2459,1.98175 -9.0585,4.17261 -6.5986,2.12204 -9.5992,2.71627 -10.1938,2.01876 -0.6742,-0.79078 -0.7842,-0.7554 -0.5501,0.17689 0.163,0.6491 -0.9258,1.5572 -2.4577,2.04985 -1.5126,0.48647 -3.1295,0.43967 -3.593,-0.10399 -0.6741,-0.79078 -0.7842,-0.7554 -0.5501,0.1769 0.165,0.65697 -0.9415,1.56225 -2.5362,2.07512 -1.6268,0.52316 -2.9911,0.42668 -3.2105,-0.22703 -0.2793,-0.83246 -0.4923,-0.73344 -0.7956,0.36986 -0.3496,1.27202 -0.556,1.33841 -1.3255,0.42629 -0.6472,-0.76706 -0.8267,-0.7424 -0.6189,0.085 0.161,0.64096 -0.556,1.4383 -1.5933,1.77187 -1.0373,0.33358 -2.0576,0.0949 -2.2675,-0.53028 -0.2805,-0.83576 -0.4755,-0.7971 -0.7367,0.14596 -0.2659,0.95975 -11.395905,5.4043 -12.291005,4.90811 z m -14.14414,-46.69487 c -1.19359,-3.07972 -0.51833,-0.46305 1.50057,5.8148 2.0189,6.27786 2.99547,8.79762 2.17015,5.59948 -0.82531,-3.19815 -2.47714,-8.33457 -3.67072,-11.41428 z M 293.32274,505.05682 c -0.1615,-0.50223 0.1557,-1.05766 0.705,-1.23429 0.5492,-0.17663 0.8685,0.1741 0.7095,0.77941 -0.1591,0.60531 -0.4763,1.16074 -0.705,1.23429 -0.2287,0.0735 -0.548,-0.27718 -0.7095,-0.77941 z m 276.8032,-89.68461 c 0.5668,-0.4618 1.6276,-0.80296 2.3574,-0.75813 0.7298,0.0448 0.266,0.42268 -1.0306,0.83964 -1.2966,0.41697 -1.8937,0.38029 -1.3268,-0.0815 z M 771.20444,340.711 c -0.2969,-1.07832 -0.143,-1.36654 0.3922,-0.73491 0.4844,0.57157 0.7042,1.36994 0.4885,1.77412 -0.2158,0.4042 -0.6121,-0.0635 -0.8807,-1.03922 z m -60.98,-10.60537 c -1.6672,-0.29061 -3.1618,-0.93401 -3.3212,-1.42977 -0.163,-0.50674 -1.2463,-0.31557 -2.4743,0.43664 -2.7021,1.65504 -5.1002,0.8237 -7.0289,-2.43665 -1.7246,-2.9155 -2.5322,-2.88254 -3.3406,0.13635 -0.8525,3.1835 -4.039,3.86107 -6.1297,1.30339 -1.3199,-1.6147 -1.9178,-1.78511 -2.4917,-0.71007 -0.4152,0.77796 -2.4332,1.95416 -4.4843,2.61379 -3.1232,1.00438 -4.5021,0.79385 -8.4844,-1.29539 -3.9871,-2.09173 -4.8151,-2.21762 -5.1259,-0.77936 -0.222,1.02671 -1.3231,1.88388 -2.743,2.13517 -3.0281,0.5359 -4.4707,-2.22471 -4.0275,-7.70671 0.1816,-2.24556 0.1346,-4.6909 -0.1044,-5.43408 -0.6089,-1.89349 -3.321,-0.79962 -3.3306,1.34337 -0.015,3.38145 -0.6775,10.04756 -1.0955,11.02523 -0.2314,0.5414 -1.5137,0.80012 -2.8496,0.57493 -2.5693,-0.43311 -2.7874,-1.08085 -3.2147,-9.54863 -0.3013,-5.97018 -2.2801,-5.92893 -3.1635,0.0659 -0.9587,6.50557 -4.2379,10.39984 -8.6111,10.2264 -1.6643,-0.066 -4.4791,-0.79455 -6.2552,-1.61899 -2.0559,-0.9543 -3.343,-1.06628 -3.5422,-0.30816 -0.4375,1.66538 -2.6952,2.22818 -8.018,1.99873 -3.6193,-0.15601 -4.8727,-0.71646 -5.9801,-2.67394 -0.9889,-1.74816 -1.6039,-2.09643 -2.0908,-1.18414 -0.3795,0.71084 -2.895,2.00154 -5.59,2.86825 -4.4195,1.42125 -5.2851,1.35375 -8.8257,-0.6883 -3.8592,-2.22583 -6.1539,-2.5246 -5.5754,-0.72592 0.1615,0.50223 -1.3418,1.43907 -3.3406,2.08187 -3.5735,1.14921 -9.642,-0.39082 -10.362,-2.6296 -0.4876,-1.51616 2.3575,-3.82559 4.17,-3.38488 3.2174,0.78235 3.1656,-0.11891 -0.1214,-2.10832 -4.0436,-2.44741 -4.4506,-3.48007 -2.9208,-7.41193 1.4315,-3.67931 6.0889,-5.54352 10.1249,-4.05266 3.0992,1.14482 3.4582,3.96745 0.7224,5.67946 -2.0247,1.26706 -1.9164,2.22761 0.3489,3.09541 1.2767,0.48907 1.8039,0.0277 2.4327,-2.12867 0.448,-1.53621 2.329,-3.78278 4.2558,-5.08273 2.9128,-1.96519 4.0326,-2.25894 7.1571,-1.87756 2.0372,0.24868 4.8423,1.55402 6.2335,2.90076 l 2.5294,2.44863 1.0845,-2.67392 c 1.1486,-2.83221 3.5658,-3.42756 5.3098,-1.30776 0.5531,0.67228 0.9711,3.58625 0.929,6.47549 -0.073,4.99115 0.026,5.28546 1.9806,5.9008 4.0199,1.26549 5.2168,-0.10011 5.3495,-6.10324 0.1508,-6.82797 1.8834,-9.5123 4.825,-7.47561 1.0774,0.74595 1.883,2.07384 1.7901,2.95087 -0.5055,4.77314 0.433,10.06097 1.9124,10.77503 1.2138,0.58589 1.7763,0.14984 2.6959,-2.08996 0.6391,-1.55668 1.0302,-4.05268 0.869,-5.54667 -0.4737,-4.39019 0.7838,-5.44789 7.3848,-6.2114 3.2,-0.37012 7.5136,-0.49673 9.5858,-0.28134 2.0722,0.2154 4.9021,0.2795 6.2887,0.14245 1.6537,-0.16344 2.8625,0.44539 3.5132,1.7694 0.7317,1.4887 1.3546,1.72703 2.373,0.90793 5.5581,-4.4703 10.5728,-4.57274 15.6338,-0.31938 2.5903,2.17686 2.6596,2.17592 3.0948,-0.0424 0.2449,-1.24801 1.2132,-2.51609 2.1519,-2.81795 2.052,-0.65991 5.7175,1.21414 6.3753,3.25942 0.718,2.23287 2.4794,2.20416 2.3731,-0.0387 -0.1222,-2.57603 4.5461,-4.26452 5.9214,-2.14176 0.7648,1.18034 1.7444,1.1359 5.0882,-0.23082 3.0081,-1.2295 4.7843,-1.41424 6.4919,-0.67519 3.0518,1.32079 3.9719,4.25595 1.7668,5.63589 -0.9474,0.5929 -1.3469,1.3891 -0.8877,1.76933 0.4592,0.38024 1.2967,2.12726 1.8611,3.88227 1.9137,5.95078 -2.2466,9.9628 -9.0935,8.76933 z m -1.8088,-8.91783 c -0.9708,-0.79613 -2.0874,-1.34388 -2.4812,-1.21721 -0.3939,0.12667 -0.4519,1.05213 -0.1289,2.05659 0.3924,1.22009 1.216,1.62411 2.4813,1.21721 1.6579,-0.53316 1.6739,-0.78948 0.1288,-2.05659 z m -28.0001,-2.0788 c -0.841,-2.61503 -1.4288,-3.12534 -3.2338,-2.80725 -1.5708,0.27678 -2.3041,1.14699 -2.5467,3.02177 -0.4908,3.79434 1.2655,5.47053 4.3028,4.10658 2.2024,-0.98899 2.3812,-1.51175 1.4777,-4.3211 z m -73.0593,2.7678 c 1.3443,-2.51816 0.9851,-3.35574 -2.0889,-4.87179 -2.3069,-1.13774 -2.7272,-1.06626 -4.1928,0.71306 -1.9577,2.3768 -1.839,4.89519 0.2925,6.2052 2.0454,1.25713 4.7122,0.34594 5.9892,-2.04647 z m -43.8033,9.11333 c -2.297,-0.0481 -4.8561,-0.56541 -5.6869,-1.14967 -0.9671,-0.68012 -3.0212,-0.57651 -5.7093,0.28798 -8.7499,2.81388 -16.0319,-5.50697 -11.7839,-13.46497 2.7536,-5.15864 6.9652,-6.98805 12.522,-5.43933 2.4384,0.6796 4.9306,0.8443 5.5382,0.36598 1.3754,-1.08286 10.4642,-1.16073 12.7893,-0.10957 1.4111,0.63795 1.585,1.10406 0.9637,2.58404 -0.4168,0.99314 -1.4273,2.02097 -2.2455,2.28409 -1.157,0.37208 -1.1578,0.64103 0,1.21026 0.8162,0.40253 1.7218,1.47152 2.0125,2.37553 0.5072,1.57697 -0.7322,2.53827 -4.372,3.39116 -0.9313,0.21819 -1.5627,0.80285 -1.4031,1.29916 0.1597,0.49631 0.6843,0.77566 1.1659,0.62078 1.603,-0.5155 4.6585,1.56175 4.5567,3.09786 -0.1244,1.87877 -2.9042,2.7605 -8.344,2.64669 z m -6.2389,-11.21907 c -0.337,-1.07386 -1.4312,-1.95217 -2.4325,-1.9515 -1.0013,6.6e-4 -2.8902,-0.34559 -4.1976,-0.76946 -2.1309,-0.69086 -2.5453,-0.55553 -4.0017,1.30699 -2.9028,3.71211 0.085,7.44438 4.7761,5.96585 1.3249,-0.418 3.1575,-0.57746 4.0723,-0.35521 1.9596,0.47609 2.7011,-1.26875 1.7834,-4.19668 z m 124.4711,-28.75784 c -2.8196,0.12975 -6.7365,0.32586 -8.7041,0.4358 -5.9059,0.33002 -15.1487,-0.88323 -19.3688,-2.54245 -2.181,-0.85751 -5.9923,-3.38016 -8.4695,-5.60591 l -4.5041,-4.0468 -0.6932,4.61547 c -0.5671,3.77591 -1.2009,4.83353 -3.4846,5.81413 -3.1962,1.37249 -8.8345,-0.14225 -9.6199,-2.58443 -0.2732,-0.84953 -0.3411,-4.08202 -0.1508,-7.18332 0.1902,-3.10128 0.3407,-8.35751 0.3344,-11.6805 -0.01,-3.32299 0.2343,-12.01515 0.5345,-19.31591 0.3003,-7.30077 0.658,-17.84424 0.7948,-23.42995 0.1369,-5.58571 0.4818,-15.44495 0.7664,-21.90944 0.2847,-6.46448 0.5932,-14.9518 0.6856,-18.86071 0.092,-3.90891 0.4419,-14.44974 0.7766,-23.42406 0.3346,-8.97433 0.667,-18.37615 0.7386,-20.89293 0.072,-2.51678 0.5077,-5.32082 0.9692,-6.23121 1.1471,-2.26295 5.0838,-3.37485 8.6592,-2.44569 4.0178,1.04415 4.4116,3.6953 3.5769,24.078 -0.9633,23.52572 -1.0121,29.01228 -0.2613,29.38259 0.3666,0.18081 2.0838,-0.88158 3.8159,-2.36085 10.7886,-9.21352 39.8904,-10.4677 54.6309,-2.35439 9.8115,5.40038 16.7987,16.83917 17.9771,29.43072 0.3075,3.28598 -0.3569,26.33594 -1.0114,35.08678 -0.1062,1.41957 -0.1972,4.396 -0.2022,6.61429 -0.022,9.50237 -7.4246,24.46776 -15.3435,31.01725 -4.5259,3.74323 -16.1924,8.10571 -22.4467,8.39352 z m 16.3006,-20.86489 c 6.6407,-7.09041 7.6447,-12.7415 8.5523,-48.13931 0.4163,-16.23121 -2.9443,-25.26468 -11.0894,-29.80923 -5.4024,-3.01425 -7.8236,-3.46531 -19.7682,-3.68271 -10.9387,-0.19908 -19.9066,2.21842 -24.7852,6.68144 -4.3668,3.99478 -8.4032,14.53571 -8.5936,22.44171 -0.085,3.53993 -0.4224,13.32339 -0.7492,21.74103 -0.5322,13.70615 -0.3443,16.07264 1.7988,22.65577 2.1943,6.74031 2.7532,7.62018 6.7286,10.59188 5.1966,3.88462 9.0059,4.87121 20.1809,5.22664 9.9055,0.31504 11.5887,0.14027 18.5396,-1.92506 4.18,-1.24201 6.0151,-2.3972 9.1854,-5.78216 z M 65.370655,481.63638 c -0.40378,-1.25557 -0.35493,-1.83804 0.10855,-1.29438 0.46348,0.54366 0.79384,1.57094 0.73414,2.28285 -0.0597,0.71192 -0.43891,0.2671 -0.84269,-0.98847 z M 533.56784,329.35588 c -2.3784,-1.67902 -3.3806,-1.73429 -7.4891,-0.41302 -7.1757,2.30764 -8.1675,1.19318 -5.1852,-5.82629 2.8039,-6.59927 5.8744,-11.02043 8.1655,-11.75722 2.2453,-0.72208 4.6812,2.83395 7.5714,11.05314 2.1465,6.10441 2.3285,7.4146 1.1225,8.08351 -0.796,0.4415 -2.6666,-0.0681 -4.1851,-1.14012 z M 62.727735,473.4181 c -0.40378,-1.25557 -0.35494,-1.83804 0.10854,-1.29438 0.46349,0.54366 0.79385,1.57094 0.73415,2.28285 -0.0597,0.71191 -0.43891,0.2671 -0.84269,-0.98847 z M 507.20114,330.58656 c -0.6617,-0.31492 -2.5192,-0.29754 -4.1279,0.0386 -2.6079,0.54494 -3.0761,0.25015 -4.3189,-2.71898 -1.5856,-3.7883 -2.5959,-3.97428 -2.9888,-0.55018 -0.1486,1.29466 -1.1276,2.76653 -2.1755,3.27079 -1.5062,0.72477 -2.2262,0.34985 -3.4364,-1.78949 -1.3021,-2.30168 -1.6896,-2.46562 -2.5919,-1.09643 -0.5835,0.88544 -2.8414,2.18248 -5.0175,2.88229 -3.3287,1.07048 -4.5717,0.91865 -7.8338,-0.95683 -3.6028,-2.07141 -4.0167,-2.09003 -5.8462,-0.26299 -2.4864,2.48298 -6.1372,2.83217 -10.1619,0.97195 -2.4356,-1.12571 -3.7309,-1.1237 -5.7921,0.009 -3.4678,1.90554 -10.3432,1.40633 -11.8099,-0.85752 -0.7809,-1.20525 -1.5181,-1.38914 -2.4434,-0.6095 -4.4081,3.71424 -10.6592,3.81614 -13.5974,0.22164 -1.8379,-2.24836 -2.5013,-2.17353 -4.441,0.5009 -1.9477,2.68559 -4.9562,3.43987 -8.5925,2.15433 -5.0122,-1.77196 -5.3325,-6.64905 -0.3819,-5.81452 3.3375,0.56259 3.5291,-0.79162 0.3516,-2.48406 -3.4073,-1.81479 -4.7031,-5.60602 -3.004,-8.78895 1.8388,-3.44472 5.5247,-4.3083 9.6676,-2.26507 2.6719,1.31777 3.8232,1.40213 4.8257,0.35367 0.9207,-0.9628 1.8614,-1.10833 3.1276,-0.48383 1.5901,0.78421 1.8243,1.58058 1.9209,6.53166 0.1191,6.10829 0.8779,7.43323 3.7314,6.51557 1.7687,-0.56879 2.1209,-1.87545 2.7508,-10.20475 0.2289,-3.0275 3.1499,-4.82197 4.7275,-2.90435 0.5794,0.70424 1.7384,0.64617 3.239,-0.16229 3.0521,-1.64443 9.6637,-0.50157 11.2096,1.93767 1.4003,2.20934 2.0245,2.13423 3.9139,-0.47093 2.0413,-2.81454 4.4721,-3.31245 8.895,-1.82201 2.5032,0.84349 4.5076,0.91149 5.5441,0.18808 2.6539,-1.85221 4.4491,0.67309 4.5265,6.36726 0.037,2.7134 0.4799,5.43534 0.9845,6.04874 1.6129,1.96045 4.7697,0.0925 5.0368,-2.98027 0.8759,-10.07944 1.4836,-11.3216 4.7508,-9.71025 0.768,0.37876 2.9119,0.29778 4.7641,-0.17997 3.9897,-1.02902 9.0552,0.081 10.4924,2.29919 1.2458,1.92279 1.7296,1.81669 3.2454,-0.71174 1.0044,-1.67537 1.8177,-1.9859 5.6332,-2.15062 2.4527,-0.10587 5.2142,0.13556 6.1368,0.53654 2.4787,1.07735 1.8591,3.84958 -1.071,4.79187 -2.4574,0.79029 -2.4658,0.85214 -0.2818,2.06827 3.4996,1.94867 2.794,4.54248 -1.3861,5.09509 -3.0351,0.40124 -3.4613,0.77567 -3.8512,3.38313 -0.4652,3.11059 -2.3338,4.75671 -4.3241,3.80934 z m -1.7152,-10.25388 c -0.2423,-0.75335 -0.7832,-0.9793 -1.202,-0.50212 -0.4188,0.47719 -0.5632,1.48397 -0.321,2.23732 0.2423,0.75334 0.7832,0.97929 1.202,0.50211 0.4188,-0.47718 0.5633,-1.48397 0.321,-2.23731 z m -7.7098,-2.94338 c 0.1591,-0.60531 -0.1602,-0.95605 -0.7095,-0.77941 -0.5492,0.17663 -0.8664,0.73206 -0.7049,1.23429 0.1615,0.50222 0.4808,0.85296 0.7095,0.77941 0.2287,-0.0736 0.5459,-0.62898 0.7049,-1.23429 z m -34.5848,7.31576 c -0.1256,-0.39061 -1.1784,-1.11639 -2.3395,-1.61284 -1.1612,-0.49645 -2.8681,-1.52188 -3.7931,-2.27873 -1.5215,-1.24481 -1.6005,-1.10457 -0.828,1.46991 0.6228,2.07513 1.5151,2.92959 3.2944,3.15458 3.0064,0.38013 3.9627,0.18896 3.6662,-0.73292 z m 8.007,-7.45639 c -0.2554,-0.7943 -1.4676,-0.91602 -3.2891,-0.33025 -2.8859,0.92807 -2.7661,1.60692 0.6138,3.47999 1.5654,0.86752 3.3076,-1.18362 2.6753,-3.14974 z m -49.3209,1.9364 c -0.5113,-1.58976 -1.3724,-2.03427 -3.4309,-1.77096 -3.7223,0.47614 -3.7413,0.91187 -0.1385,3.18373 3.4606,2.18218 4.5827,1.73807 3.5694,-1.41277 z m 171.5135,-29.05433 c -3.9866,-0.6964 -5.2746,-2.7918 -4.8609,-7.90831 0.1908,-2.35932 0.016,-4.4529 -0.3886,-4.6524 -0.4045,-0.19951 -2.5831,1.21209 -4.8413,3.13688 -11.272,9.60778 -31.1812,13.22971 -46.464,8.45282 -9.5172,-2.97476 -15.2235,-9.18838 -18.8131,-20.48564 -1.9049,-5.99533 -2.053,-11.65831 -1.1005,-42.07881 0.4645,-14.83485 0.9471,-31.08615 1.0725,-36.114 0.2814,-11.2819 1.0889,-13.31987 5.5548,-14.01895 4.364,-0.68312 6.4993,0.22787 7.4239,3.16732 0.4159,1.32237 0.5065,10.41929 0.2013,20.21539 -1.662,53.34573 -1.6388,59.38382 0.2505,65.25881 2.9888,9.29362 8.0507,12.58597 20.3933,13.26416 6.2816,0.34516 8.8585,-0.046 16.8651,-2.56022 8.4825,-2.66361 9.9733,-3.43299 14.5536,-7.51041 5.675,-5.05195 6.1793,-6.48804 6.3405,-18.05614 0.056,-3.98439 0.498,-19.38743 0.9833,-34.22898 0.4853,-14.84155 0.8574,-28.39771 0.8269,-30.12482 -0.081,-4.55648 1.9505,-9.0564 4.4504,-9.86036 1.189,-0.38237 3.6026,-0.18587 5.3636,0.43669 4.0353,1.42658 4.3309,2.98658 3.6636,19.33082 -0.5924,14.50799 -1.7664,52.85071 -2.2745,74.28479 -0.1985,8.37639 -0.7905,16.16139 -1.3154,17.3 -1.1488,2.49185 -3.8916,3.44892 -7.885,2.75136 z m -321.1736,93.67512 c 0.012,-0.59966 0.4254,-1.21993 0.9181,-1.37838 0.4927,-0.15845 1.1899,0.10474 1.5494,0.58487 0.3595,0.48013 -0.054,1.1004 -0.9181,1.37838 -0.8644,0.27798 -1.5616,0.0148 -1.5494,-0.58487 z m 115.8504,-51.65907 c -1.7385,-0.0675 -3.8658,-0.30028 -4.7274,-0.51728 -0.8615,-0.217 -2.917,-0.0568 -4.5677,0.35612 -4.1921,1.04857 -10.9289,0.36525 -11.4188,-1.15821 -0.2248,-0.69915 -0.4256,-3.49156 -0.4461,-6.20534 -0.049,-6.43087 -0.3928,-7.33877 -2.5225,-6.65385 -1.7671,0.56825 -2.4131,3.46537 -2.0034,8.98337 0.216,2.90851 -1.9966,5.93523 -3.9988,5.4703 -1.3236,-0.30733 -2.4899,-5.33865 -2.4181,-10.43142 0.038,-2.70007 -0.3553,-3.46892 -2.3814,-4.65402 -1.3348,-0.78078 -2.3137,-1.85094 -2.1752,-2.37812 0.428,-1.62901 6.3537,-3.01389 11.2137,-2.6207 2.5459,0.20596 6.4235,0.13116 8.6169,-0.16621 2.1935,-0.29737 5.7161,-0.26324 7.8281,0.0759 2.112,0.3391 5.5729,0.30461 7.6908,-0.0766 2.5323,-0.45583 5.2859,-0.021 8.0421,1.26992 3.8205,1.7894 4.2667,2.33716 5.0428,6.1907 0.6446,3.20035 0.3365,5.07443 -1.2679,7.71271 -2.266,3.72613 -5.0823,5.01344 -10.5071,4.80281 z m 5.5693,-9.07752 c 0.6228,-2.13614 0.4608,-3.20311 -0.6202,-4.08278 -2.0909,-1.7016 -4.7572,-1.11108 -4.7594,1.05409 0,1.01108 -0.173,2.70527 -0.3821,3.76487 -0.8874,4.49595 4.4343,3.81599 5.7617,-0.73618 z m -11.8495,2.76064 c 0.141,-2.12817 0.1826,-2.11347 -4.3029,-1.51703 -2.4985,0.33222 -3.6334,0.83476 -3.4155,1.51232 0.1795,0.55813 0.9109,0.82679 1.6253,0.59703 0.7145,-0.22976 2.0255,0.0287 2.9134,0.57445 2.0891,1.28395 3.0405,0.93483 3.1797,-1.16677 z m -0.1885,-8.72891 c -1.2374,-0.54978 -7.041,0.53798 -6.8039,1.27525 0.3853,1.19825 5.9482,1.19069 6.6909,-0.009 0.3515,-0.56784 0.4024,-1.13762 0.113,-1.26616 z m -35.7108,13.93212 c -1.341,-2.06983 -6.7904,-2.23476 -8.7451,-0.26469 -1.7799,1.79379 -7.3876,2.59727 -10.1786,1.45842 -1.1527,-0.47037 -2.398,-1.79455 -2.7672,-2.94266 -0.9633,-2.99554 -2.8807,-3.05269 -2.7095,-0.0807 0.1699,2.94895 -2.6248,4.29763 -4.9498,2.38871 -1.2063,-0.99041 -2.5258,-0.87532 -6.0443,0.52719 -5.7685,2.29938 -10.4732,1.08396 -13.7155,-3.54334 -1.5442,-2.20378 -2.8162,-3.07406 -3.9569,-2.70724 -0.9245,0.29733 -2.0754,0.21403 -2.5574,-0.18512 -1.1494,-0.95173 -3.68,-0.11878 -3.2932,1.08393 0.1655,0.51466 1.3883,0.98103 2.7172,1.03639 3.0676,0.12776 5.8651,1.82155 5.4731,3.31369 -0.4361,1.66025 -5.0107,2.90301 -9.4779,2.57485 -4.0161,-0.29502 -5.7647,-2.63294 -5.0435,-6.74334 0.1736,-0.98917 0.1474,-3.21802 -0.058,-4.95298 -0.3368,-2.8433 -0.5952,-3.08321 -2.6197,-2.43214 -1.8956,0.60959 -2.2486,1.5861 -2.2623,6.25715 -0.019,6.52779 -1.0856,8.7582 -3.7077,7.75371 -2.2722,-0.8704 -2.8098,-2.62382 -2.6464,-8.6319 0.1197,-4.39911 -0.047,-4.93453 -1.8052,-5.80165 -1.7582,-0.86714 -1.973,-0.62697 -2.328,2.60233 -0.2151,1.9567 -0.4711,5.04188 -0.5689,6.85596 -0.098,1.81409 -0.9199,3.81619 -1.8268,4.44914 -1.951,1.3617 -4.8919,0.46251 -5.5903,-1.70923 -0.2723,-0.84697 -1.3496,-2.14078 -2.3938,-2.87514 -1.8323,-1.28851 -1.9117,-1.23447 -2.2713,1.54542 -0.4003,3.09464 -4.1068,5.21458 -5.71,3.26586 -0.5453,-0.66289 -1.849,-0.57502 -3.5207,0.23733 -3.7834,1.83844 -4.4703,0.34767 -4.1243,-8.95065 0.3311,-8.89952 1.8321,-11.95653 4.8469,-9.87154 1.2376,0.85593 2.3966,0.87088 3.5783,0.0462 2.136,-1.49076 7.6695,0.90895 8.5728,3.71774 0.8229,2.55892 2.1125,1.91017 2.5238,-1.26965 0.3313,-2.56121 3.2323,-4.4881 4.8012,-3.18902 0.4181,0.3462 2.707,0.2299 5.0865,-0.25846 2.3795,-0.48837 6.478,-0.61273 9.1078,-0.27636 2.6297,0.33635 5.5879,0.35216 6.5738,0.0351 2.9312,-0.94267 10.8025,-0.27687 11.1961,0.94704 0.6559,2.03963 -1.4586,4.00165 -4.8938,4.54086 l -3.3609,0.52753 3.8359,0.60374 c 3.7876,0.59614 3.8676,0.56463 6.3631,-2.50428 3.2174,-3.95665 8.4973,-5.74102 12.6468,-4.27405 3.4149,1.20725 5.3089,4.97658 3.2967,6.56074 -0.6824,0.53721 -0.8876,1.26909 -0.4561,1.62641 1.4336,1.18706 2.3272,0.18721 2.618,-2.92926 0.443,-4.74676 1.5952,-5.95358 5.6911,-5.96101 6.9315,-0.0126 11.6909,4.28993 9.0979,8.22468 -0.974,1.47801 0,7.05421 1.1624,6.67925 0.2867,-0.0922 2.0855,-3.39116 3.9974,-7.33103 5.4198,-11.1685 8.0112,-10.52059 13.6382,3.4099 l 2.9763,7.36834 -2.5858,0.83156 c -1.7647,0.56752 -2.9181,0.31869 -3.6323,-0.78367 z m -37.1445,-9.27513 c 2.4506,-1.26997 2.47,-1.384 0.408,-2.40037 -2.4713,-1.21807 -4.3209,-0.8281 -6.503,1.37107 -1.9024,1.91723 -0.7672,5.81518 1.8387,6.3138 1.5516,0.29688 1.9145,-0.0617 1.8119,-1.78998 -0.084,-1.42055 0.7533,-2.61816 2.4444,-3.49452 z m 15.2273,-2.88391 c -0.1615,-0.50223 -0.718,-0.77668 -1.2366,-0.60989 -0.5187,0.16678 -0.8109,0.71416 -0.6493,1.21639 0.1615,0.50223 0.7179,0.77668 1.2366,0.60989 0.5186,-0.16679 0.8108,-0.71416 0.6493,-1.21639 z m 136.8928,-27.29022 c -23.0741,1.979 -35.8975,-1.02485 -45.0565,-10.55437 -3.7858,-3.9389 -5.0072,-6.00081 -6.7335,-11.36658 -2.5161,-7.82091 -1.8059,-10.28833 3.1319,-10.88073 4.8613,-0.58325 8.577,1.9962 10.2157,7.09185 2.1495,6.68396 7.1236,10.74638 14.9013,12.1701 12.0035,2.19724 29.81,0.72377 35.5805,-2.94426 6.8191,-4.33454 10.2688,-12.54148 8.7891,-20.90994 -1.6071,-9.08927 -8.9381,-12.65817 -32.1674,-15.65982 -12.72,-1.64366 -22.6521,-4.14517 -27.0666,-6.81706 -5.1594,-3.12271 -10.4838,-10.3742 -11.6282,-15.83676 -2.3624,-11.27669 1.3699,-24.64279 8.8162,-31.57291 4.5409,-4.22605 16.2022,-8.20902 25.2733,-8.63223 17.171,-0.80108 27.3178,0.83669 34.7085,5.60221 6.1378,3.95762 8.2548,6.50878 11.1772,13.46924 4.3599,10.3843 2.7532,16.68682 -4.1631,16.32987 -5.1782,-0.26726 -6.3117,-1.41924 -7.7595,-7.88595 -2.0643,-9.22058 -6.7458,-13.32172 -16.8507,-14.7617 -11.3636,-1.61935 -27.5325,0.32422 -32.0633,3.85416 -7.0464,5.48988 -8.4859,18.48026 -2.8143,25.39714 4.0764,4.97148 8.7993,6.57387 26.6858,9.05406 24.5152,3.39933 34.6691,8.03736 39.2911,17.94709 5.5792,11.96174 1.0703,30.92551 -9.1822,38.61951 -4.7796,3.58684 -16.2367,7.69969 -23.0853,8.28708 z m -86.3793,-0.0569 c -9.6915,0.27035 -13.6375,0.28896 -20.7783,0.098 -3.239,-0.0866 -25.3421,0.19897 -39.8933,0.51545 -2.8414,0.0618 -6.1125,0.082 -7.269,0.0448 -3.69,-0.11851 -11.2812,-0.0642 -17.4065,0.12455 -6.7812,0.20896 -8.9503,-1.20242 -9.5538,-6.2164 -1.0783,-8.9588 3.5705,-32.79603 8.2012,-42.05262 2.6795,-5.35614 10.1718,-13.64715 14.6147,-16.17273 8.317,-4.72778 18.4464,-9.60218 26.675,-12.83629 18.7601,-7.37334 37.2858,-16.39923 40.6795,-19.81942 4.1372,-4.16954 6.7728,-10.53841 7.5429,-18.22716 0.698,-6.96882 0.4724,-9.02694 -1.7278,-15.76576 -2.9676,-9.08898 -5.4881,-12.25501 -12.2052,-15.33102 -10.0389,-4.59716 -29.1875,-5.379 -43.3123,-1.76845 -8.1253,2.07701 -9.2072,2.58272 -12.4601,5.82465 -4.3946,4.37976 -6.8844,10.20221 -8.8902,20.7899 -1.4084,7.43459 -1.8107,8.25855 -4.6163,9.45655 -3.8187,1.63058 -8.5372,-0.20817 -9.6838,-3.77371 -2.4512,-7.62215 5.99,-28.77536 14.5193,-36.38446 10.8796,-9.70586 30.0638,-13.32135 54.742,-10.31676 9.1705,1.11652 21.177,6.42584 26.0078,11.50072 7.5952,7.97904 11.5563,17.3827 11.8121,28.04196 0.3665,15.27155 -3.4575,25.96261 -12.4413,34.78315 -6.2192,6.10624 -19.2552,12.91401 -42.2442,22.06119 -19.7762,7.86885 -26.3456,11.67379 -31.7563,18.39285 -4.9568,6.15535 -7.1856,11.7387 -8.8445,22.1556 -1.0843,6.80957 -1.0893,9.02145 -0.025,11.44564 0.2466,0.56181 7.3302,0.94538 15.7413,0.8524 8.4111,-0.093 22.0711,-0.20325 30.3556,-0.24504 8.2845,-0.0418 21.2375,-0.15692 28.7845,-0.25583 14.654,-0.19207 16.8385,0.51048 17.1336,5.51029 0.178,3.01457 -1.297,6.65913 -2.8479,7.03714 -0.5811,0.14164 -5.4651,0.3805 -10.8533,0.5308 z m -130.6391,0.33498 -3.3118,-1.33573 0.9011,-49.52749 c 0.4955,-27.24011 0.911,-51.98864 0.9231,-54.99673 0.029,-7.17331 1.5647,-10.05557 5.618,-10.54364 3.9938,-0.48093 7.3005,0.98681 8.146,3.61567 0.526,1.6358 0.1113,43.69918 -0.5871,59.53914 -0.074,1.68642 -0.1907,7.16479 -0.2587,12.17415 -0.1829,13.49306 -0.8099,32.85998 -1.192,36.81944 -0.2891,2.99615 -0.7859,3.61606 -3.6309,4.53098 -2.1129,0.67949 -4.4846,0.5805 -6.6077,-0.27579 z m -118.5964,37.56548 c -2.5251,-0.9114 -3.486,-1.94253 -4.3691,-4.68838 -0.8731,-2.71512 -1.8393,-3.77007 -4.2252,-4.61356 -4.7783,-1.68926 -8.6764,0.0631 -11.2408,5.05317 -1.1941,2.3236 -2.9576,4.47767 -3.9189,4.78681 -6.697805,2.15397 -34.807325,-8.73117 -36.551305,-14.15415 -0.40337,-1.25431 -0.0652,-3.84258 0.75154,-5.75171 1.96152,-4.58518 0.57715,-8.94949 -3.41502,-10.76601 -2.34435,-1.06673 -3.98662,-1.01728 -7.5888,0.22847 -3.35386,1.15989 -5.16258,1.27487 -6.68847,0.4252 -3.53622,-1.96907 -8.32071,-10.40936 -11.9168,-21.02233 -4.21163,-12.42961 -3.84873,-15.35393 2.14457,-17.28132 5.39571,-1.73521 7.7673,-6.25749 5.54035,-10.56466 -0.87704,-1.69629 -2.7902,-3.72098 -4.25147,-4.49929 -3.63581,-1.93654 -4.54343,-6.42933 -1.58549,-7.84838 4.01867,-1.92793 14.10641,4.60245 15.94602,10.32278 1.849,5.74957 -1.43753,14.0483 -7.17765,18.12405 l -3.38827,2.40584 2.09468,7.44315 c 1.21878,4.33076 3.08798,8.78489 4.47011,10.65186 2.16061,2.91853 2.74353,3.14077 6.44602,2.45754 5.25791,-0.97025 11.92981,1.30676 15.70208,5.35886 3.85803,4.14425 4.49373,6.27262 3.80112,12.72648 l -0.57104,5.32089 5.46254,2.36105 c 3.00438,1.29857 7.66278,2.99129 10.35198,3.76157 l 4.8895,1.40053 3.7372,-3.92289 c 4.780805,-5.01832 10.990305,-7.17337 17.827405,-6.18709 3.9389,0.56821 5.7098,1.55427 9.2904,5.1731 l 4.4239,4.47106 9.3456,-3.72081 c 5.14,-2.04645 9.7423,-4.30719 10.2271,-5.02387 0.4849,-0.71668 0.5555,-2.3171 0.1569,-3.55649 -0.9447,-2.93758 1.462,-9.90948 4.8093,-13.93187 2.0273,-2.43613 3.9339,-3.58326 8.1272,-4.88968 3.0131,-0.93878 6.1252,-1.4844 6.9156,-1.21251 3.8929,1.33904 5.2402,0.5396 8.4454,-5.0114 1.7748,-3.07384 3.8653,-7.58131 4.6453,-10.01661 l 1.4184,-4.42782 -4.3179,-3.34932 c -7.0782,-5.49047 -8.4583,-13.29615 -3.6578,-20.68863 1.1732,-1.80667 3.4945,-4.01252 5.1585,-4.90187 2.2664,-1.21135 3.05,-2.33427 3.1237,-4.47615 0.2505,-7.27755 8.0792,-6.11783 9.3519,1.38537 0.9939,5.85916 0.8806,6.41196 -1.4702,7.1741 -4.8014,1.5567 -8.6067,4.86716 -9.1707,7.97839 -0.8363,4.61313 -0.1433,5.69467 5.2149,8.13776 2.6813,1.22256 5.1103,2.95179 5.3977,3.84273 1.5981,4.95292 -11.255,33.57032 -15.7229,35.00715 -0.9162,0.29464 -3.9271,-0.0891 -6.6909,-0.85265 -6.1747,-1.70595 -7.6083,-1.30492 -10.3326,2.89028 -1.8225,2.80656 -1.9395,3.93095 -0.7867,7.55795 0.7453,2.34337 1.1843,4.87699 0.9764,5.62998 -0.7553,2.73594 -8.9043,7.25015 -21.3574,11.83114 -11.9508,4.39618 -12.718,4.56382 -15.7979,3.45219 z m -8.6106,-40.52586 c -6.6807,0.59481 -11.9231,-0.44208 -19.115905,-3.78095 -7.5057,-3.48407 -9.5334,-5.18604 -14.79089,-12.41502 -3.86675,-5.31672 -6.23141,-14.85587 -5.4681,-22.05855 0.67577,-6.3767 6.25059,-17.46659 10.77199,-21.42855 4.3563,-3.8173 12.154905,-8.57456 16.347305,-9.97205 1.6798,-0.55995 2.9416,-1.36817 2.804,-1.79605 -0.1376,-0.42788 -3.7683,-1.16187 -8.068105,-1.63109 -7.2773,-0.79412 -8.503,-0.63402 -17.72427,2.31516 -6.12447,1.95879 -12.41128,4.64263 -16.46801,7.03027 -6.97327,4.10421 -6.8378,4.07396 -24.26919,5.42037 -2.5128,0.1941 -6.36701,0.5849 -8.56491,0.86846 -2.19789,0.28356 -5.84041,0.60465 -8.09448,0.71353 -2.25407,0.10889 -5.30457,0.33871 -6.77889,0.51072 -1.47432,0.17201 -4.32845,-0.33128 -6.34251,-1.11842 -4.8819995,-1.90801 -6.3161995,-6.07884 -3.9391395,-11.45553 0.93816,-2.12203 1.58609,-6.08682 1.43983,-8.81063 -0.44787,-8.34124 0.35172,-18.20509 2.0231395,-24.95764 2.57258,-10.39323 12.20084,-27.2618 20.89943,-36.61547 5.29334,-5.69198 17.78113,-14.14989 27.54755,-18.6578 7.54564,-3.48286 10.14525,-4.25352 18.75635,-5.56039 22.714405,-3.44725 40.110705,-0.79408 58.123205,8.86459 9.6565,5.17804 15.8217,10.32259 23.9969,20.02428 8.8694,10.52543 12.063,16.76225 15.5937,30.4535 l 2.9565,11.46488 4.7911,2.31078 c 2.6351,1.27093 10.7287,3.57517 17.9859,5.12053 15.547,3.31064 21.0738,5.50765 22.1319,8.7978 1.5403,4.7894 -4.2479,9.46988 -11.9148,9.63471 -3.02,0.0649 -11.2633,0.50575 -18.9963,1.01587 -13.8941,0.91654 -37.5036,1.13329 -47.4746,0.43585 -3.6658,-0.25641 -6.8197,-0.17667 -7.0086,0.1772 -0.1889,0.35389 0.9761,1.78323 2.5889,3.17632 11.675,10.08442 15.0592,26.20063 8.4218,40.10592 -4.5579,9.54877 -10.6174,15.0076 -20.694,18.64273 -4.3595,1.57271 -9.5196,3.0013 -11.4668,3.17467 z m 17.1755,-16.23799 c 5.3481,-4.89038 9.1042,-12.84331 9.2011,-19.48159 0.093,-6.40886 -0.8675,-9.26006 -4.9887,-14.80118 -4.4353,-5.96338 -10.1786,-9.53972 -17.3645,-10.81281 -5.2488,-0.92994 -6.7235,-0.75715 -13.861,1.624 -9.153605,3.05376 -12.825805,5.75123 -16.771005,12.31944 -9.19637,15.31063 0.5919,35.04822 19.020205,38.35343 8.2183,1.47399 18.568,-1.53571 24.7639,-7.20129 z m 65.5936,-59.57825 c -0.1311,-0.37349 -3.5054,-1.35537 -7.4985,-2.18199 -12.9122,-2.67298 -20.158,-6.79423 -22.3964,-12.73858 -0.6329,-1.6807 -1.9088,-6.57503 -2.8353,-10.87629 -1.6404,-7.61585 -2.6003,-9.72753 -9.6701,-21.27433 -1.2757,-2.08351 -5.7667,-7.33853 -9.98,-11.67783 -6.6293,-6.82754 -9.1105,-8.60676 -18.431,-13.21677 -19.5994,-9.69397 -39.376405,-10.69685 -62.833995,-3.18627 -8.30204,2.65813 -20.76053,10.69937 -27.36954,17.66548 -9.26716,9.76788 -18.03694,26.06841 -19.93276,37.04934 -1.08874,6.3062 -1.29467,16.65502 -0.38753,19.47579 0.34858,1.08395 0.30351,3.85571 -0.10016,6.15947 -0.40368,2.30376 -0.64984,4.45021 -0.54703,4.7699 0.1028,0.31968 4.40304,0.22385 9.55607,-0.21296 5.15304,-0.43681 11.88673,-0.97348 14.96375,-1.1926 9.03979,-0.64375 14.11383,-1.88409 19.29319,-4.71618 11.4059,-6.23679 20.15014,-9.70171 25.8409,-10.23949 7.6142,-0.71956 17.768605,0.42971 26.263505,2.97247 3.9116,1.17085 11.229,2.70898 16.2609,3.41808 9.7361,1.37201 29.5994,2.60447 31.6011,1.96075 0.66,-0.21226 2.7759,-0.26698 4.7019,-0.1216 3.4894,0.26336 5.1758,0.23786 16.8613,-0.25498 3.3877,-0.14288 8.0303,-0.26622 10.3168,-0.2741 4.9059,-0.0169 6.6492,-0.37736 6.3229,-1.30731 z m -61.2059,-2.72754 c -5.9467,0.0324 -15.9853,-0.93903 -19.8299,-1.91889 -1.2249,-0.31221 -5.8221,-1.50354 -10.2158,-2.64739 -10.646805,-2.77178 -25.625945,-2.73587 -29.647805,0.0711 -7.62853,5.32412 -49.06408,15.16233 -54.72529,12.99365 -2.22011,-0.85047 -2.96471,-3.44485 -1.5882,-5.53366 1.31933,-2.00202 5.4492,-3.17759 15.64131,-4.45229 8.97132,-1.12202 25.59723,-5.95095 35.68532,-10.36465 11.77576,-5.15207 22.87656,-5.31769 39.668165,-0.59184 9.3931,2.64362 18.2252,3.83523 24.8007,3.34608 6.7499,-0.50211 9.9126,0.43826 10.8048,3.21254 0.5184,1.61196 0.1069,2.77554 -1.3978,3.95282 -2.5464,1.99227 -2.0778,1.8938 -9.1955,1.93256 z m -17.2087,-32.15724 c -5.6047,-2.76418 -7.2106,-7.20287 -4.466,-12.34435 3.4705,-6.50146 12.2609,-7.25573 17.277,-1.48246 2.7334,3.14594 2.3733,7.85208 -0.8811,11.5163 -3.585,4.03636 -7.0642,4.7102 -11.9299,2.31051 z m -23.449805,0.80224 c -1.7141,-0.60601 -4.1782,-2.12948 -5.4757,-3.38549 -7.2977,-7.06458 3.3497,-18.75376 12.825605,-14.08037 7.9931,3.94212 6.3678,15.1585 -2.6151,18.04733 -0.89,0.2862 -3.020605,0.0245 -4.734805,-0.58147 z m -74.43422,20.87728 c -1.83605,-1.34842 -1.96419,-2.03 -1.3546,-7.20477 1.61501,-13.70956 12.56692,-31.47419 25.49309,-41.35125 7.44405,-5.68811 23.14435,-12.42465 32.08234,-13.7656 15.74809,-2.36265 30.047195,-0.66898 42.002595,4.97506 5.2388,2.47318 7.1098,5.03078 5.663,7.74117 -1.3741,2.57416 -3.6676,2.50437 -11.5922,-0.35275 -22.678405,-8.17637 -43.748535,-5.19062 -62.960685,8.92187 -5.28648,3.88323 -14.86022,16.0876 -17.73302,22.60561 -1.19947,2.72145 -2.84375,7.9951 -3.65395,11.71921 -1.62016,7.44714 -4.09677,9.53881 -7.94657,6.71145 z m 50.22016,-20.9536 c -7.55664,-1.7541 -10.57258,-6.51063 -7.97628,-12.57963 3.00374,-7.02143 14.19167,-7.86096 18.30214,-1.37336 4.1798,6.59708 -2.59242,15.74813 -10.32586,13.95299 z M 249.53174,143.21369 c -2.2598,-0.3539 -4.3196,-1.13157 -4.5774,-1.72816 -0.9696,-2.24411 -1.212,-4.96425 -0.6964,-7.81259 0.7182,-3.96754 5.8033,-5.75121 10.206,-3.57986 3.5497,1.75066 3.5985,1.86559 2.8053,6.599 -0.96,5.72795 -2.816,7.29234 -7.7375,6.52161 z m 385.3768,-198.563589 c -4.6368,-0.18226 -13.8441,-0.42176 -20.4607,-0.53222 -6.6167,-0.11046 -12.3501,-0.45464 -12.741,-0.76485 -0.3909,-0.31021 -2.2479,-0.26072 -4.1266,0.10999 -1.8788,0.3707 6.8531,-2.70098 19.4041,-6.82596 l 22.8201,-7.49996 2.4961,7.76171 c 1.3728,4.26894 2.1681,7.83393 1.7673,7.9222 -0.4008,0.0883 -4.5225,0.0114 -9.1593,-0.17091 z"
       id="path114"
       inkscape:connector-curvature="0"
       clip-path="url(#clipPath245-3)" />
    <g
       aria-label="i2sub"
       transform="matrix(0.49119383,0,0,0.49345209,35.762217,79.614156)"
       style="font-style:normal;font-weight:normal;font-size:40px;line-height:1.25;font-family:sans-serif;letter-spacing:0px;word-spacing:0px;fill:#000000;fill-opacity:1;stroke:none"
       id="flowRoot357-3">
      <path
         id="path1920"
         style="font-style:normal;font-variant:normal;font-weight:bold;font-stretch:normal;font-size:48px;font-family:Kinnari;-inkscape-font-specification:'Kinnari Bold';fill:#000000"
         d="m 212.53586,103.42758 q 0,5.136 -3.312,8.976 -3.264,3.792 -8.304,3.792 -4.848,0 -7.92,-2.448 -0.816,-0.672 -0.816,-1.92 V 88.259578 q 0,-1.536 -0.288,-1.92 -0.288,-0.384 -1.344,-0.384 h -1.44 v -1.92 q 4.512,-1.248 4.56,-1.248 l 3.84,-1.344 v 13.632 q 2.304,-2.544 6.192,-2.544 4.128,0 6.48,3.312 2.352,3.312 2.352,7.584002 z m -15.024,7.968 q 0,1.056 1.392,1.536 1.392,0.432 2.688,0.432 2.064,0 3.36,-1.248 1.344,-1.248 1.776,-2.88 0.432,-1.68 0.432,-3.744 0,-1.488 -0.24,-2.88 -0.24,-1.44 -0.816,-2.832002 -0.576,-1.44 -1.728,-2.256 -1.152,-0.864 -2.736,-0.864 -2.16,0 -3.168,1.056 -0.96,1.008 -0.96,2.544002 z m -21.02625,0.816 q 1.2,0 2.688,-0.864 1.488,-0.912 1.488,-2.16 V 97.811578 q 0,-1.872 -0.576,-2.4 -0.528,-0.528 -2.88,-0.528 v -1.872 h 8.736 v 16.320002 q 0,1.536 0.336,2.112 0.384,0.576 1.824,0.576 0.528,0 0.864,-0.048 v 1.776 q -2.16,0.624 -7.968,2.736 v -3.6 q -2.928,3.312 -6.576,3.312 -3.072,0 -4.656,-1.968 -1.536,-2.016 -1.536,-5.472 V 97.763578 q 0,-1.824 -0.528,-2.352 -0.48,-0.528 -2.496,-0.528 v -1.872 h 8.256 v 15.504002 q 0,3.696 3.024,3.696 z M 155.81336,92.531578 q 1.392,0 2.784,0.528 1.392,0.48 1.584,0.48 0.144,0 0.24,-0.048 0.144,-0.048 0.192,-0.096 0.096,-0.096 0.192,-0.24 0.144,-0.144 0.192,-0.192 h 1.392 v 7.680002 h -1.776 q -0.816,-3.024002 -1.824,-4.416002 -1.008,-1.44 -3.024,-1.44 -1.2,0 -2.112,0.72 -0.912,0.672 -0.912,1.824 0,1.296 1.152,2.448 1.152,1.104002 2.784,2.016002 1.68,0.912 3.312,1.872 1.632,0.96 2.784,2.352 1.152,1.392 1.152,3.072 0,3.264 -2.208,5.184 -2.16,1.92 -5.424,1.92 -1.248,0 -2.976,-0.528 -1.728,-0.576 -2.304,-0.576 -0.576,0 -0.72,0.72 h -1.776 v -8.688 h 1.92 q 1.152,6.72 5.76,6.72 1.344,0 2.304,-0.768 0.96,-0.768 0.96,-2.064 0,-1.392 -1.152,-2.496 -1.104,-1.152 -2.736,-2.016 -1.584,-0.864 -3.216,-1.776 -1.584,-0.912 -2.736,-2.352 -1.104,-1.488 -1.104,-3.360002 0,-2.976 2.112,-4.704 2.16,-1.776 5.184,-1.776 z m -10.27725,15.696002 -3.024,7.44 h -19.68 l 0.144,-1.488 8.208,-8.784 q 6.48,-7.008002 6.48,-12.384002 0,-2.88 -1.728,-4.608 -1.68,-1.728 -4.56,-1.728 -4.176,0 -6.48,6.432 l -2.064,-0.672 q 0.864,-4.8 3.696,-7.584 2.832,-2.784 7.296,-2.784 3.744,0 6.432,2.64 2.688,2.592 2.688,6.336 0,3.312 -1.584,6.144 -1.536,2.832002 -5.136,6.624002 l -6.672,7.008 h 8.832 q 2.448,0 3.264,-0.48 0.816,-0.48 2.4,-2.928 z m -28.4805,-23.376002 q 0,1.2 -0.912,2.112 -0.912,0.912 -2.112,0.912 -1.296,0 -2.16,-0.864 -0.864,-0.912 -0.864,-2.16 0,-1.344 0.816,-2.208 0.864,-0.912 2.208,-0.912 1.2,0 2.112,0.912 0.912,0.912 0.912,2.208 z m 3.6,30.816002 h -12.528 v -1.824 q 2.112,-0.096 2.832,-0.672 0.768,-0.624 0.768,-1.92 V 99.587578 q 0,-1.68 -0.288,-2.256 -0.24,-0.624 -1.104,-0.624 -0.768,0 -2.208,0.432 v -1.872 l 8.832,-3.024 v 19.008002 q 0,1.344 0.768,1.92 0.768,0.576 2.928,0.672 z"
         inkscape:connector-curvature="0" />
    </g>
    <text
       xml:space="preserve"
       style="font-style:normal;font-weight:normal;font-size:10.02411366px;line-height:1.25;font-family:sans-serif;letter-spacing:0px;word-spacing:0px;fill:#000000;fill-opacity:1;stroke:none;stroke-width:0.25060281"
       x="88.176376"
       y="140.14275"
       id="text1644"
       transform="scale(1.0050528,0.99497258)"><tspan
         sodipodi:role="line"
         id="tspan1642"
         x="88.176376"
         y="140.14275"
         style="font-style:normal;font-variant:normal;font-weight:normal;font-stretch:normal;font-size:2.6730969px;font-family:Kinnari;-inkscape-font-specification:Kinnari;stroke-width:0.25060281">INTEGRATED SUBSURFACE SOLUTIONS</tspan></text>
  </g>
</svg>
