<svg xmlns="http://www.w3.org/2000/svg" height="16.858mm" width="67.498mm" version="1.1" viewBox="0 0 67.497635 16.858498">
 <g transform="translate(-66.793 -111.68)">
  <g aria-label="Geotechnical,Drilling,Oil&amp;Gas" transform="matrix(.26068 0 0 .26855 66.293 111.25)" stroke-width=".98524">
   <path d="m56.707 27.198c0.58323-0.18991 0.73301-1.9142 0.19097-2.1984-0.18053-0.09467-0.32824-0.70369-0.32824-1.3534 0-1.0862-0.42665-1.8497-1.0337-1.8497-0.13524 0-0.62476 0.42149-1.0878 0.93664-0.79793 0.8877-0.82257 1.015-0.47154 2.4371 0.20371 0.82526 0.42272 1.6571 0.48667 1.8486 0.1224 0.36643 1.3639 0.46554 2.2436 0.1791z"/>
   <path d="m288.04 423.53c-0.96251-0.001-1.906 0.0406-2.8223 0.125-17.728 1.6336-30.603 12.799-32.609 28.283-0.83212 6.4212 1.6304 14.49 6.2383 20.445 1.7168 2.2187 6.2909 6.2233 8.8106 7.7129 4.4428 2.6266 9.4803 4.4307 14.867 5.3223 2.7906 0.46181 7.386 0.5253 10.186 0.14258 3.1955-0.43682 8.61-1.9253 11.32-3.1133 4.836-2.1197 10.398-6.4016 13.537-10.422 3.7314-4.7786 6.1921-11.652 6.1816-17.27-0.0114-6.103-2.7333-13.401-6.8262-18.305-1.8817-2.2545-6.1834-5.9347-8.6465-7.3965-5.8274-3.4584-13.499-5.5173-20.236-5.5254zm-0.19922 3.207c2.0728-0.0179 4.1532 0.1365 6.209 0.46875 5.3444 0.86377 7.9678 1.9813 3.8711 1.6484-2.8746-0.23355-3.7972 0.0888-5.6484 1.9746-0.78453 0.79921-2.0427 1.7714-2.7949 2.1602-2.0335 1.0508-4.2382 2.9862-4.0059 3.5156 0.27228 0.62024 1.6176 0.55097 2.3887-0.12305 0.8549-0.74737 0.91138-0.72365 0.85547 0.35352-0.0415 0.80007 0.0653 0.92927 0.82422 1.0059 0.77393 0.0781 0.91058-0.0411 1.2246-1.0606 0.38367-1.2455 0.90427-1.4224 2.416-0.82031 0.99681 0.39702 1.0972 1.359 0.16407 1.5723-0.36286 0.0829-0.86435 0.49775-1.1152 0.92188-0.38225 0.64617-0.73384 0.80038-2.1699 0.95117-1.5712 0.16499-1.7639 0.12169-2.3086-0.52539-0.71274-0.84668-1.1856-0.68138-1.1856 0.41602 0 0.62411-0.26894 0.95063-1.2109 1.457-1.6853 0.906-2.6709 1.2997-3.8008 1.5215l-0.9707 0.18946 1.0508 0.38867c0.79506 0.29261 1.0508 0.56052 1.0508 1.1055 0 0.68563-0.0863 0.7207-1.7969 0.7207h-1.7969l0.0996 1.2012 0.0996 1.2031 1.541 0.0859c1.4386 0.0806 1.5776 0.0267 2.1016-0.80859 0.97195-1.5496 1.4868-1.9061 3.0176-2.0898 1.7821-0.21392 2.8123 0.354 3.1484 1.7363 0.2032 0.83557 0.26344 0.86944 0.97852 0.53321l0.76367-0.35743-1.0059-1.002c-1.4773-1.4708-1.3333-1.9427 0.41602-1.3613 1.275 0.42375 2.1367 1.3405 2.1367 2.2734 0 1.0502 0.82553 1.1528 1.3398 0.16602 0.19574-0.37554 0.62884-0.7459 0.96289-0.82227 0.38477-0.0879 0.60742-0.39139 0.60742-0.82812 0-0.85924 0.93376-1.6279 1.9668-1.6191 0.43066 0.004 1.5091 0.35472 2.3984 0.77929 1.2726 0.60756 1.6172 0.9212 1.6172 1.4766 0 0.69567-0.0411 0.70697-2.9902 0.78711-1.6453 0.0447-2.9922 0.19642-2.9922 0.33594 0 0.13953 0.14294 0.57969 0.31641 0.97852 0.2808 0.64561 0.49269 0.72461 1.9394 0.72461h1.625v0.97265c0 0.93035-0.0596 0.97919-1.375 1.1309-0.75594 0.0874-3.1875 0.1267-5.4043 0.0879l-4.0312-0.0703-0.28515-1.0606-0.28711-1.0605h-2.3535c-1.6193 0-2.4709 0.12315-2.7285 0.39453-0.20599 0.21697-0.86422 0.47605-1.4629 0.57422-0.8117 0.13311-1.57 0.65623-2.9805 2.0605l-1.8906 1.8828v5.7871l1.293 1.0156c2.482 1.9463 3.0037 2.054 6.791 1.4121 1.7284-0.29293 2.6159 0.23815 3.3809 2.0254 0.38071 0.88948 0.99612 1.9898 1.3672 2.4453 0.66382 0.81494 0.66374 0.85363 0.0957 2.3145-0.47817 1.2297-0.512 1.6483-0.19727 2.4375 0.62578 1.5692 2.397 3.6449 3.1152 3.6504 1.2637 0.0112 3.0377-0.58099 3.2168-1.0742 0.1-0.2754 1.2723-1.4618 2.6055-2.6348l2.4238-2.1328v-3.791l1.9141-1.5488c1.3553-1.0969 2.0617-1.9303 2.4238-2.8594 0.28117-0.72136 0.46384-1.3542 0.4043-1.4062-0.0595-0.052-0.58042 0.1102-1.1562 0.36133-0.57585 0.25111-1.5043 0.47444-2.0645 0.49609-0.97607 0.0377-1.016-0.002-0.92773-0.96679 0.0625-0.68293-0.27771-1.7189-1.0586-3.2168-1.0964-2.1031-1.4587-3.5508-0.88868-3.5508 0.47402 0 1.705 1.6902 2.4277 3.334 0.39009 0.88726 0.87835 1.8649 1.0859 2.1738 0.37379 0.55633 0.3913 0.55604 1.7773-0.0859 3.1852-1.4753 4.7949-2.3654 4.7949-2.6523 0-0.52522-1.0887-1.055-2.1875-1.0644-0.83861-0.007-1.1883-0.19795-1.6973-0.92774-1.1188-1.604-0.75939-2.1195 0.66992-0.96094 0.56956 0.46169 1.3434 0.70915 2.5273 0.8086 1.5066 0.12655 1.8901 0.30302 3.2871 1.5059 1.2985 1.118 1.619 1.5935 1.7832 2.6543 0.11003 0.71082 0.26951 1.515 0.35547 1.7871 0.23696 0.74998 1.2528 0.59279 1.6992-0.26367 0.86979-1.6687 3.3082-3.7637 4.3809-3.7637 0.53588 0-0.0588 4.2272-1.123 7.9902-1.5993 5.6545-6.4101 11.697-12.178 15.295-2.8225 1.7607-7.2678 3.5203-10.828 4.2871-3.2284 0.69528-8.7985 1.1014-11.105 0.81054-5.8957-0.7433-12.307-2.9821-16.113-5.6289-1.8148-1.262-1.8659-1.3326-1.377-1.9258 1.0187-1.2358 1.4332-2.0816 1.7383-3.5488 0.30959-1.489 0.30661-1.5026-0.69922-2.043-0.55663-0.29907-1.7684-0.7529-2.6914-1.0098-1.6226-0.45155-1.7109-0.53129-2.668-2.4023-0.54442-1.0644-0.99023-2.0353-0.99023-2.1582-0.00001-0.20765-0.89846-0.73992-3.4609-2.0469-1.7186-0.87652-2.1241-1.9375-2.2949-6.0059-0.14736-3.509-0.12901-3.6385 0.61914-4.3398 0.85525-0.80178 3.5183-2.4078 4.8945-2.9512 0.48913-0.19313 0.89062-0.53154 0.89062-0.75196s-0.51027-1.3256-1.1328-2.457c-1.3957-2.5366-1.4412-3.6595-0.20898-5.1465 0.87491-1.0558 2.294-2.082 2.8809-2.082 0.14808 0 0.21018 0.82535 0.13671 1.834-0.1141 1.5664-0.0492 1.8634 0.44532 2.0293 0.61308 0.20565 0.71831 0.11068 2.4277-2.166 0.52535-0.69968 1.3171-1.706 1.7598-2.2344 1.2168-1.4523 0.99729-3.1556-0.54883-4.2559-0.58027-0.41295-0.48123-0.51271 1.9062-1.8945 5.1737-2.9944 11.321-4.5986 17.539-4.6524z" transform="matrix(1.015 0 0 .98524 -254.31 -414.27)"/>
   <path d="m97.915 41.632h-19.978v-0.82191q3.7091-0.17612 4.9735-1.0567 1.3488-0.88062 1.3488-2.818v-14.266q0-2.5244-0.59008-3.4638-0.50578-0.93932-2.1917-0.93932-1.0959 0-3.5405 0.46966v-0.822l13.487-3.17v22.191q0 1.9961 1.3488 2.8767 1.3488 0.82191 5.1421 0.99803z"/>
   <path d="m91.508 4.6459q0 1.2329-1.2645 2.1135-1.2645 0.88061-2.9504 0.88061-1.8545 0-3.119-0.88061-1.1802-0.88061-1.1802-2.1135 0-1.2916 1.1802-2.1722 1.2645-0.88061 3.119-0.88061 1.6859 0 2.9504 0.88061t1.2645 2.1722z"/>
   <path d="m141.36 33.589-4.7206 8.0429h-32.707v-0.82191l14.246-10.45q11.633-8.7474 11.633-15.675 0-3.8747-3.2876-6.1643-3.2033-2.3483-8.7669-2.3483-7.8396 0-12.055 7.6907l-1.7702-0.35225q1.3488-5.225 5.9851-8.3952 4.7206-3.1702 12.139-3.1702 6.238 0 10.621 2.9941 4.3834 2.9941 4.3834 7.2797 0 3.9334-2.6975 7.2797t-8.8512 7.8668l-13.403 9.7455h17.955q4.7206 0 6.1537-0.52837 1.5174-0.58708 4.0463-3.3463z"/>
   <path d="m160.67 14.744q2.1074 0 4.552 0.64578t3.2876 0.64578q1.0959 0 1.686-0.7632h1.0116v7.9842h-1.2645q-1.4331-3.5225-3.4562-5.3424-1.9388-1.8199-5.9008-1.8199-2.5289 0-4.4678 1.0567-1.8545 1.0567-1.8545 2.7593 0 1.5851 2.0231 2.9941t4.8892 2.5244q2.9504 1.1154 5.8165 2.2896t4.8892 2.8767 2.0231 3.7573q0 3.6399-3.5405 5.8121-3.5405 2.1135-8.8512 2.1135-2.0231 0-5.1421-0.70449-3.0347-0.70449-4.3835-0.70449-1.433 0-1.8545 0.93932h-1.1802v-9.2171h1.433q1.9388 8.2191 10.959 8.2191 2.8661 0 4.8049-1.1154t1.9388-2.9941q0-1.7025-2.0231-3.0528-1.9388-1.409-4.8049-2.4657-2.7818-1.0567-5.5636-2.1722-2.7818-1.1742-4.8049-2.9354-1.9388-1.8199-1.9388-4.1095 0-3.2876 3.3719-5.225 3.4562-1.9961 8.3454-1.9961z"/>
   <path d="m217.8 39.459q-3.0347 0.64578-11.886 2.818v-5.1663l-1.8545 1.3503q-4.6364 3.816-10.706 3.816-4.8892 0-7.4182-2.2309-2.4446-2.2309-2.4446-6.1643v-13.444q0-2.7006-0.92727-3.4638t-4.3835-0.7632v-0.82191h12.476v18.199q0 5.225 6.3223 5.225 3.2033 0 6.5752-1.8786 1.8545-1.0567 1.8545-2.5831v-13.795q0-2.818-1.0116-3.5812t-5.0578-0.7632v-0.82191h13.15v19.197q0 2.3483 0.75867 3.2289 0.75868 0.82191 3.6248 0.82191h0.92727z"/>
   <path d="m480.01 422.09-5.2324 1.3106c-0.83053 0.19862-2.0772 0.43677-3.7383 0.71484-1.6057 0.27808-2.7952 0.49736-3.5703 0.65625v1.0723h2.3262c1.2735 0 2.1026 0.19846 2.4902 0.5957 0.38758 0.39725 0.58203 1.3895 0.58203 2.9785v30.092c0 0.87394 1.5497 1.7491 4.6504 2.623 3.1006 0.83422 6.2288 1.25 9.3848 1.25 5.4815 0 10.022-1.5083 13.621-4.5273 3.6543-3.0191 5.4824-6.5555 5.4824-10.607 0-3.3369-1.2734-6.2968-3.8203-8.8789-2.4916-2.6218-5.98-3.9316-10.465-3.9316-2.4916 0-4.7905 0.41578-6.8945 1.25s-3.709 2.0061-4.8164 3.5156zm8.1387 17.041c1.9933 0 3.7108 0.37804 5.1504 1.1328 1.495 0.75477 2.6025 1.747 3.3223 2.9785 0.77516 1.1917 1.328 2.4241 1.6602 3.6953 0.33221 1.2712 0.49804 2.5621 0.49804 3.873 0 2.8999-0.85778 5.3835-2.5742 7.4492-1.6611 2.0657-4.3736 3.0976-8.1387 3.0976-2.104 0-3.9874-0.27784-5.6484-0.83398-1.6057-0.59587-2.4082-1.2518-2.4082-1.9668v-14.24c0-1.4698 0.63668-2.7022 1.9102-3.6953 1.3288-0.99311 3.4047-1.4902 6.2285-1.4902z" transform="matrix(1.015 0 0 .98524 -254.31 -414.27)"/>
   <path d="m84.173 56.828v-2.4477h-2.0143v-1.0133h3.2352v3.9127q-0.71418 0.50664-1.5748 0.76911-0.86067 0.25637-1.8373 0.25637-2.1364 0-3.345-1.2452-1.2025-1.2513-1.2025-3.4793 0-2.2341 1.2025-3.4793 1.2086-1.2513 3.345-1.2513 0.89119 0 1.6908 0.21975 0.80574 0.21975 1.4833 0.64703v1.3124q-0.68366-0.57989-1.4528-0.87288-0.76911-0.293-1.6176-0.293-1.6725 0-2.5149 0.93392-0.83626 0.93392-0.83626 2.7835 0 1.8434 0.83626 2.7773 0.84236 0.93392 2.5149 0.93392 0.65313 0 1.1659-0.10987 0.51274-0.11598 0.92171-0.35404z"/>
   <path d="m339.69 472.37c-1.0104 0-1.8147 0.3348-2.4121 1.0039-0.59338 0.66498-0.89062 1.5653-0.89062 2.7012 0 1.0987 0.31204 1.9709 0.9375 2.6152 0.62946 0.64433 1.4821 0.96679 2.5566 0.96679 0.42899 0 0.85256-0.0458 1.2695-0.13672 0.41697-0.0909 0.82378-0.22301 1.2207-0.39648v-1.0781c-0.39291 0.21477-0.79047 0.37503-1.1914 0.48242-0.39692 0.10739-0.80743 0.16211-1.2324 0.16211-0.7337 0-1.3077-0.20438-1.7207-0.61328-0.40895-0.41304-0.63743-1.0121-0.68555-1.7969h5.0879v-0.55859c0-1.0326-0.26374-1.8484-0.79297-2.4473-0.52522-0.60303-1.2404-0.9043-2.1465-0.9043zm0.0117 0.9668c0.54527 0 0.98178 0.18491 1.3106 0.55664 0.33277 0.37173 0.50369 0.87046 0.51171 1.4941l-3.9453 0.006c0.0561-0.65259 0.26786-1.1582 0.63672-1.5176 0.37287-0.35934 0.86889-0.53906 1.4863-0.53906z" transform="matrix(1.015 0 0 .98524 -254.31 -414.27)"/>
   <path d="m347.05 472.37c-0.96625 0-1.7242 0.32247-2.2734 0.9668-0.54527 0.64433-0.81836 1.5358-0.81836 2.6758 0 1.1358 0.27309 2.0293 0.81836 2.6777 0.54928 0.64433 1.3072 0.96679 2.2734 0.96679 0.96223 0 1.7164-0.32246 2.2656-0.96679 0.54928-0.64847 0.82422-1.5419 0.82422-2.6777 0-1.14-0.27494-2.0314-0.82422-2.6758-0.54927-0.64433-1.3034-0.9668-2.2656-0.9668zm0 0.9668c0.58937 0 1.0556 0.24136 1.4004 0.72461 0.3448 0.47912 0.51758 1.1292 0.51758 1.9512 0 0.82607-0.17278 1.4799-0.51758 1.959-0.3448 0.47912-0.81102 0.71875-1.4004 0.71875-0.59739 0-1.0693-0.23791-1.4141-0.71289-0.34079-0.47912-0.51171-1.1346-0.51171-1.9648 0-0.83019 0.17277-1.482 0.51757-1.957 0.34481-0.47912 0.81483-0.71875 1.4082-0.71875z" transform="matrix(1.015 0 0 .98524 -254.31 -414.27)"/>
   <path d="m104.05 49.351v1.9411h2.3134v0.87288h-2.3134v3.7113q0 0.83626 0.22585 1.0743 0.23195 0.23806 0.93392 0.23806h1.1537v0.94002h-1.1537q-1.3002 0-1.7946-0.48222-0.49443-0.48832-0.49443-1.7702v-3.7113h-0.82405v-0.87288h0.82405v-1.9411z"/>
   <path d="m359.63 472.37c-1.0104 0-1.8147 0.3348-2.4121 1.0039-0.59338 0.66498-0.88868 1.5653-0.88868 2.7012 0.00001 1.0987 0.31205 1.9709 0.9375 2.6152 0.62947 0.64433 1.4822 0.96679 2.5566 0.96679 0.42899 0 0.8506-0.0458 1.2676-0.13672 0.41697-0.0909 0.82379-0.22301 1.2207-0.39648v-1.0781c-0.39292 0.21477-0.78853 0.37503-1.1895 0.48242-0.39692 0.10739-0.80938 0.16211-1.2344 0.16211-0.7337 0-1.3058-0.20438-1.7188-0.61328-0.40898-0.41304-0.63747-1.0121-0.68555-1.7969h5.0879v-0.55859c0-1.0326-0.26569-1.8484-0.79492-2.4473-0.52522-0.60303-1.2404-0.9043-2.1465-0.9043zm0.0117 0.9668c0.54527 0 0.98179 0.18491 1.3106 0.55664 0.33278 0.37173 0.50371 0.87046 0.51172 1.4941l-3.9453 0.006c0.0561-0.65259 0.26982-1.1582 0.63867-1.5176 0.37287-0.35934 0.86694-0.53906 1.4844-0.53906z" transform="matrix(1.015 0 0 .98524 -254.31 -414.27)"/>
   <path d="m120.46 51.554v1.0499q-0.47612-0.26248-0.95834-0.39066-0.47611-0.13429-0.96444-0.13429-1.0926 0-1.6969 0.69586-0.6043 0.68976-0.6043 1.9411t0.6043 1.9472q0.60431 0.68976 1.6969 0.68976 0.48833 0 0.96444-0.12818 0.48222-0.13429 0.95834-0.39676v1.0377q-0.47001 0.21975-0.97665 0.32962-0.50053 0.10987-1.0682 0.10987-1.5443 0-2.4538-0.97055-0.90951-0.97054-0.90951-2.6186 0-1.6725 0.91561-2.6308 0.92172-0.95834 2.521-0.95834 0.51885 0 1.0133 0.10987 0.49443 0.10377 0.95834 0.31741z"/>
   <path d="m128.1 54.002v4.1263h-1.1232v-4.0897q0-0.97055-0.37845-1.4528-0.37845-0.48222-1.1354-0.48222-0.90951 0-1.4345 0.57988-0.52495 0.57989-0.52495 1.581v3.8639h-1.1292v-9.4979h1.1292v3.7235q0.40287-0.61651 0.94613-0.92171 0.54937-0.3052 1.2635-0.3052 1.1781 0 1.7824 0.73249 0.6043 0.72638 0.6043 2.1425z"/>
   <path d="m136.04 54.002v4.1263h-1.1232v-4.0897q0-0.97055-0.37845-1.4528-0.37845-0.48222-1.1354-0.48222-0.9095 0-1.4344 0.57988-0.52495 0.57989-0.52495 1.581v3.8639h-1.1292v-6.8365h1.1292v1.0621q0.40287-0.61651 0.94613-0.92171 0.54937-0.3052 1.2635-0.3052 1.1781 0 1.7824 0.73249 0.6043 0.72638 0.6043 2.1425z"/>
   <path d="m138.29 48.63h1.1232v1.4222h-1.1232z"/>
   <path d="m138.29 51.292h1.1232v6.8365h-1.1232z"/>
   <path d="m146.68 51.554v1.0499q-0.47611-0.26248-0.95833-0.39066-0.47612-0.13429-0.96445-0.13429-1.0926 0-1.6969 0.69586-0.60431 0.68976-0.60431 1.9411t0.60431 1.9472q0.6043 0.68976 1.6969 0.68976 0.48833 0 0.96445-0.12818 0.48222-0.13429 0.95833-0.39676v1.0377q-0.47001 0.21975-0.97665 0.32962-0.50053 0.10987-1.0682 0.10987-1.5443 0-2.4538-0.97055-0.9095-0.97054-0.9095-2.6186 0-1.6725 0.91561-2.6308 0.92171-0.95834 2.521-0.95834 0.51885 0 1.0133 0.10987 0.49442 0.10377 0.95833 0.31741z"/>
   <path d="m399.37 472.37c-0.36084 0-0.7324 0.0424-1.1133 0.125-0.38089 0.0785-0.77279 0.1983-1.1777 0.35938v1.0527c0.33679-0.18999 0.68789-0.33273 1.0527-0.42773 0.36485-0.095 0.74011-0.14258 1.125-0.14258 0.60541 0 1.0735 0.14447 1.4062 0.43359 0.33678 0.285 0.50586 0.6903 0.50586 1.2148v0.11133h-1.5527c-1.0063 0-1.7642 0.19723-2.2734 0.59375-0.50518 0.39651-0.75782 0.98499-0.75782 1.7656 0 0.66912 0.20249 1.2048 0.60743 1.6055 0.40894 0.39651 0.95883 0.5957 1.6484 0.5957 0.54527 0 1.0059-0.10057 1.3828-0.29882 0.37687-0.20239 0.69273-0.51426 0.94531-0.93555v1.0547h1.1055v-3.959c0-1.0574-0.23959-1.8468-0.72071-2.3672-0.48111-0.52042-1.2093-0.78125-2.1836-0.78125zm0.69727 3.6192h1.1016v0.2539c0 0.74346-0.18769 1.3389-0.56055 1.7891-0.36886 0.44608-0.85923 0.66993-1.4726 0.66993-0.44504 0-0.798-0.11809-1.0586-0.35352-0.25659-0.23956-0.38476-0.56202-0.38476-0.9668 0-0.50803 0.17277-0.86747 0.51757-1.0781 0.34481-0.21065 0.96335-0.31446 1.8574-0.31445z" transform="matrix(1.015 0 0 .98524 -254.31 -414.27)"/>
   <path d="m156.31 48.63h1.1232v9.4979h-1.1232z"/>
   <path d="m160.06 56.578h1.288v1.0499l-1.0011 1.9533h-0.78742l0.50053-1.9533z"/>
   <path d="m411.95 470.22v9.25h2.4941c1.732 0 3.0083-0.37546 3.8262-1.123 0.81791-0.74759 1.2266-1.9174 1.2266-3.5117 0-1.586-0.40682-2.7507-1.2207-3.4941-0.81389-0.74759-2.092-1.1211-3.832-1.1211zm1.2148 1.0273h1.4668c1.2389 0 2.1454 0.28894 2.7188 0.86719 0.57734 0.57411 0.86524 1.4816 0.86524 2.7207 0 1.2474-0.2879 2.16-0.86524 2.7383-0.57333 0.57825-1.4799 0.86719-2.7188 0.86719h-1.4668z" transform="matrix(1.015 0 0 .98524 -254.31 -414.27)"/>
   <path d="m177.34 52.342q-0.18923-0.10987-0.41508-0.15871-0.21974-0.05494-0.48832-0.05494-0.95223 0-1.465 0.62261-0.50663 0.61651-0.50663 1.7763v3.6014h-1.1292v-6.8365h1.1292v1.0621q0.35403-0.62261 0.92171-0.92171 0.56768-0.3052 1.3795-0.3052 0.11598 0 0.25637 0.01831 0.14039 0.01221 0.31131 0.04273z"/>
   <path d="m178.53 48.63h1.1232v1.4222h-1.1232z"/>
   <path d="m178.53 51.292h1.1232v6.8365h-1.1232z"/>
   <path d="m182 48.63h1.1232v9.4979h-1.1232z"/>
   <path d="m185.46 48.63h1.1232v9.4979h-1.1232z"/>
   <path d="m188.93 48.63h1.1232v1.423h-1.12z"/>
   <path d="m188.93 51.292h1.1232v6.8365h-1.12z"/>
   <path d="m198.08 54.002v4.1263h-1.1231v-4.0897q0-0.97055-0.37846-1.4528-0.37845-0.48222-1.1354-0.48222-0.90951 0-1.4345 0.57988-0.52494 0.57989-0.52494 1.581v3.8639h-1.1293v-6.8365h1.1293v1.0621q0.40286-0.61651 0.94613-0.92171 0.54936-0.3052 1.2635-0.3052 1.1781 0 1.7824 0.73249 0.6043 0.72638 0.6043 2.1425z"/>
   <path d="m450.21 472.37c-0.82592 0-1.4909 0.3242-1.9961 0.97266-0.50517 0.64846-0.75781 1.5101-0.75781 2.584 0 1.0698 0.25264 1.9277 0.75781 2.5762 0.50518 0.64846 1.1702 0.97461 1.9961 0.97461 0.49715 0 0.92442-0.1023 1.2812-0.30469 0.35683-0.20239 0.65037-0.50711 0.8789-0.91602v0.5625c0 0.7889-0.18212 1.3774-0.54296 1.7656-0.36085 0.39238-0.90323 0.58984-1.6289 0.58984-0.32876 0-0.65202-0.0441-0.96875-0.13086-0.31674-0.0867-0.63618-0.22061-0.96094-0.40234v1.1094c0.32476 0.12391 0.65911 0.21366 1.0039 0.27149 0.3448 0.0619 0.7107 0.0937 1.0996 0.0937 1.0504 0 1.8307-0.28894 2.3398-0.86719 0.50918-0.57412 0.76367-1.4515 0.76367-2.6328v-6.0781h-1.1055v1.0527c-0.22853-0.40891-0.52207-0.71363-0.8789-0.91602-0.35683-0.20238-0.7841-0.30469-1.2812-0.30469zm0.27148 0.95508c0.59739 0 1.0599 0.22731 1.3887 0.68164 0.33278 0.45434 0.5 1.0939 0.5 1.9199 0 0.82193-0.16722 1.4597-0.5 1.9141-0.32876 0.45433-0.79128 0.68164-1.3887 0.68164-0.59338 0-1.0578-0.22731-1.3906-0.68164-0.32876-0.45434-0.49219-1.0921-0.49219-1.9141 0-0.82607 0.16343-1.4656 0.49219-1.9199 0.33277-0.45433 0.79724-0.68164 1.3906-0.68164z" transform="matrix(1.015 0 0 .98524 -254.31 -414.27)"/>
   <path d="m208.56 56.578h1.288v1.0499l-1.0011 1.9533h-0.78742l0.50053-1.9533z"/>
   <path d="m463.36 470.05c-1.2629 0-2.2735 0.43514-3.0312 1.3066-0.75375 0.86737-1.1289 2.032-1.1289 3.4941s0.37516 2.6268 1.1289 3.4941c0.75776 0.86737 1.7683 1.3027 3.0312 1.3027 1.2589 0 2.2658-0.43536 3.0195-1.3027 0.75375-0.8715 1.1309-2.0361 1.1309-3.4941 0-1.4621-0.37711-2.6268-1.1309-3.4941-0.75375-0.8715-1.7606-1.3066-3.0195-1.3066zm0 1.0156c0.88205 0 1.5806 0.33825 2.0938 1.0156 0.51721 0.67737 0.77539 1.6006 0.77539 2.7695 0 1.1648-0.25818 2.0863-0.77539 2.7637-0.51319 0.67738-1.2117 1.0156-2.0938 1.0156-0.88205 0-1.5823-0.33825-2.1035-1.0156-0.51721-0.67737-0.77735-1.5989-0.77735-2.7637 0-1.1689 0.26014-2.0922 0.77735-2.7695 0.52121-0.67738 1.2215-1.0156 2.1035-1.0156z" transform="matrix(1.015 0 0 .98524 -254.31 -414.27)"/>
   <path d="m222.09 48.63h1.1232v1.4222h-1.1232z"/>
   <path d="m222.09 51.292h1.1232v6.8365h-1.1232z"/>
   <path d="m225.56 48.63h1.1232v9.4979h-1.1232z"/>
   <path d="m479.28 470.05c-0.73771 0-1.3304 0.20438-1.7754 0.61328-0.44503 0.40477-0.66601 0.94221-0.66601 1.6113 0 0.24782 0.0502 0.5015 0.15039 0.76172 0.10024 0.25608 0.24505 0.51322 0.4375 0.77343-0.53725 0.40891-0.9384 0.84773-1.207 1.3145-0.26863 0.46259-0.4043 0.95764-0.4043 1.4863 0 0.88803 0.3065 1.6175 0.91992 2.1875 0.61343 0.56586 1.4029 0.84961 2.3691 0.84961 0.52523 0 1.0176-0.09 1.4746-0.26757 0.45706-0.18174 0.89358-0.45662 1.3106-0.82422l0.85937 0.91211h1.5156l-1.6777-1.7676c0.37287-0.52042 0.66457-1.0453 0.87305-1.5781 0.20845-0.53281 0.33662-1.072 0.38477-1.6172h-1.1191c-0.0241 0.47085-0.10207 0.91659-0.23438 1.3379-0.13231 0.41716-0.31619 0.81013-0.55273 1.1777l-3.0547-3.2227c-0.36485-0.38825-0.60824-0.68779-0.72852-0.89843-0.11627-0.21478-0.17382-0.42803-0.17382-0.63868 0-0.36346 0.13001-0.65759 0.39062-0.88476 0.26462-0.2313 0.60637-0.34766 1.0273-0.34766 0.27264 0 0.56803 0.051 0.88477 0.1543 0.31674 0.0991 0.64924 0.24728 0.99805 0.44141v-1.13c-0.34079-0.14869-0.67699-0.25964-1.0098-0.33398-0.32876-0.0743-0.65941-0.11133-0.99219-0.11133zm-1.2461 4.4414 3.1875 3.3652c-0.29268 0.26434-0.60473 0.46158-0.9375 0.59375-0.33277 0.12804-0.68943 0.19336-1.0703 0.19336-0.64149 0-1.1746-0.20092-1.5996-0.60156-0.42499-0.40065-0.63867-0.90284-0.63867-1.5059 0-0.36347 0.0855-0.71059 0.2539-1.041 0.1724-0.33456 0.43984-0.66935 0.80469-1.0039z" transform="matrix(1.015 0 0 .98524 -254.31 -414.27)"/>
   <path d="m245.03 56.828v-2.4477h-2.0143v-1.0133h3.2352v3.9127q-0.71417 0.50664-1.5748 0.76911-0.86067 0.25637-1.8373 0.25637-2.1364 0-3.345-1.2452-1.2025-1.2513-1.2025-3.4793 0-2.2341 1.2025-3.4793 1.2086-1.2513 3.345-1.2513 0.89119 0 1.6908 0.21975 0.80573 0.21975 1.4833 0.64703v1.3124q-0.68365-0.57989-1.4528-0.87288-0.76912-0.293-1.6176-0.293-1.6725 0-2.5149 0.93392-0.83626 0.93392-0.83626 2.7835 0 1.8434 0.83626 2.7773 0.84236 0.93392 2.5149 0.93392 0.65313 0 1.1659-0.10987 0.51274-0.11598 0.92171-0.35404z"/>
   <path d="m497.71 472.37c-0.36083 0-0.73044 0.0424-1.1113 0.125-0.38089 0.0785-0.77475 0.1983-1.1797 0.35938v1.0527c0.33679-0.18999 0.68789-0.33273 1.0527-0.42773 0.36485-0.095 0.74011-0.14258 1.125-0.14258 0.60541 0 1.0735 0.14447 1.4062 0.43359 0.33678 0.285 0.50586 0.6903 0.50586 1.2148v0.11133h-1.5508c-1.0063 0-1.7642 0.19723-2.2734 0.59375-0.50517 0.39651-0.75781 0.98499-0.75781 1.7656 0 0.66912 0.20248 1.2048 0.60742 1.6055 0.40896 0.39651 0.95689 0.5957 1.6465 0.5957 0.54527 0 1.0079-0.10057 1.3848-0.29882 0.37688-0.20239 0.69078-0.51426 0.94336-0.93555v1.0547h1.1074v-3.959c0-1.0574-0.24153-1.8468-0.72265-2.3672-0.48111-0.52042-1.2093-0.78125-2.1836-0.78125zm0.69922 3.6192h1.0996v0.2539c0 0.74346-0.18573 1.3389-0.55859 1.7891-0.36886 0.44608-0.86119 0.66993-1.4746 0.66993-0.44503 0-0.79799-0.11809-1.0586-0.35352-0.2566-0.23956-0.38477-0.56202-0.38477-0.9668 0-0.50803 0.17278-0.86747 0.51758-1.0781 0.3448-0.21065 0.9653-0.31446 1.8594-0.31445z" transform="matrix(1.015 0 0 .98524 -254.31 -414.27)"/>
   <path d="m260.48 51.493v1.0621q-0.47612-0.24416-0.98886-0.36624t-1.0621-0.12208q-0.83625 0-1.2574 0.25637-0.41508 0.25637-0.41508 0.76911 0 0.39066 0.2991 0.61651 0.2991 0.21975 1.2025 0.42118l0.38455 0.08546q1.1964 0.25637 1.6969 0.72638 0.50664 0.46391 0.50664 1.3002 0 0.95223-0.7569 1.5077-0.7508 0.55547-2.0693 0.55547-0.54937 0-1.1476-0.10987-0.5921-0.10377-1.2513-0.31741v-1.1598q0.62262 0.32352 1.2269 0.48832 0.6043 0.1587 1.1964 0.1587 0.79352 0 1.2208-0.26858 0.42728-0.27468 0.42728-0.76911 0-0.4578-0.3113-0.70197-0.30521-0.24416-1.349-0.47001l-0.39066-0.09156q-1.0438-0.21975-1.5077-0.67145-0.46391-0.4578-0.46391-1.2513 0-0.96444 0.68365-1.4894 0.68366-0.52495 1.9411-0.52495 0.62262 0 1.172 0.09156 0.54937 0.09156 1.0133 0.27468z"/>
  </g>
 </g>
</svg>
