<svg id="svg7275" xmlns="http://www.w3.org/2000/svg" height="63.717" width="255.11" version="1.1" viewBox="0 0 67.497635 16.858497">
 <g id="layer1" transform="translate(-66.793 -111.68)">
  <g id="text373" aria-label="Geotechnical,Drilling,Oil&amp;Gas" transform="matrix(.26068 0 0 .26855 66.293 111.25)" stroke-width=".98524">
   <path id="path7387" d="m56.707 27.198c0.58323-0.18991 0.73301-1.9142 0.19097-2.1984-0.18053-0.09467-0.32824-0.70369-0.32824-1.3534 0-1.0862-0.42665-1.8497-1.0337-1.8497-0.13524 0-0.62476 0.42149-1.0878 0.93664-0.79793 0.8877-0.82257 1.015-0.47154 2.4371 0.20371 0.82526 0.42272 1.6571 0.48667 1.8486 0.1224 0.36643 1.3639 0.46554 2.2436 0.1791z"/>
   <path id="path7385" d="m288.04 423.53c-0.96251-0.001-1.906 0.0406-2.8223 0.125-17.728 1.6336-30.603 12.799-32.609 28.283-0.83212 6.4212 1.6304 14.49 6.2383 20.445 1.7168 2.2187 6.2909 6.2233 8.8106 7.7129 4.4428 2.6266 9.4803 4.4307 14.867 5.3223 2.7906 0.46181 7.386 0.5253 10.186 0.14258 3.1955-0.43682 8.61-1.9253 11.32-3.1133 4.836-2.1197 10.398-6.4016 13.537-10.422 3.7314-4.7786 6.1921-11.652 6.1816-17.27-0.0114-6.103-2.7333-13.401-6.8262-18.305-1.8817-2.2545-6.1834-5.9347-8.6465-7.3965-5.8274-3.4584-13.499-5.5173-20.236-5.5254zm-0.19922 3.207c2.0728-0.0179 4.1532 0.1365 6.209 0.46875 5.3444 0.86377 7.9678 1.9813 3.8711 1.6484-2.8746-0.23355-3.7972 0.0888-5.6484 1.9746-0.78453 0.79921-2.0427 1.7714-2.7949 2.1602-2.0335 1.0508-4.2382 2.9862-4.0059 3.5156 0.27228 0.62024 1.6176 0.55097 2.3887-0.12305 0.8549-0.74737 0.91138-0.72365 0.85547 0.35352-0.0415 0.80007 0.0653 0.92927 0.82422 1.0059 0.77393 0.0781 0.91058-0.0411 1.2246-1.0606 0.38367-1.2455 0.90427-1.4224 2.416-0.82031 0.99681 0.39702 1.0972 1.359 0.16407 1.5723-0.36286 0.0829-0.86435 0.49775-1.1152 0.92188-0.38225 0.64617-0.73384 0.80038-2.1699 0.95117-1.5712 0.16499-1.7639 0.12169-2.3086-0.52539-0.71274-0.84668-1.1856-0.68138-1.1856 0.41602 0 0.62411-0.26894 0.95063-1.2109 1.457-1.6853 0.906-2.6709 1.2997-3.8008 1.5215l-0.9707 0.18946 1.0508 0.38867c0.79506 0.29261 1.0508 0.56052 1.0508 1.1055 0 0.68563-0.0863 0.7207-1.7969 0.7207h-1.7969l0.0996 1.2012 0.0996 1.2031 1.541 0.0859c1.4386 0.0806 1.5776 0.0267 2.1016-0.80859 0.97195-1.5496 1.4868-1.9061 3.0176-2.0898 1.7821-0.21392 2.8123 0.354 3.1484 1.7363 0.2032 0.83557 0.26344 0.86944 0.97852 0.53321l0.76367-0.35743-1.0059-1.002c-1.4773-1.4708-1.3333-1.9427 0.41602-1.3613 1.275 0.42375 2.1367 1.3405 2.1367 2.2734 0 1.0502 0.82553 1.1528 1.3398 0.16602 0.19574-0.37554 0.62884-0.7459 0.96289-0.82227 0.38477-0.0879 0.60742-0.39139 0.60742-0.82812 0-0.85924 0.93376-1.6279 1.9668-1.6191 0.43066 0.004 1.5091 0.35472 2.3984 0.77929 1.2726 0.60756 1.6172 0.9212 1.6172 1.4766 0 0.69567-0.0411 0.70697-2.9902 0.78711-1.6453 0.0447-2.9922 0.19642-2.9922 0.33594 0 0.13953 0.14294 0.57969 0.31641 0.97852 0.2808 0.64561 0.49269 0.72461 1.9394 0.72461h1.625v0.97265c0 0.93035-0.0596 0.97919-1.375 1.1309-0.75594 0.0874-3.1875 0.1267-5.4043 0.0879l-4.0312-0.0703-0.28515-1.0606-0.28711-1.0605h-2.3535c-1.6193 0-2.4709 0.12315-2.7285 0.39453-0.20599 0.21697-0.86422 0.47605-1.4629 0.57422-0.8117 0.13311-1.57 0.65623-2.9805 2.0605l-1.8906 1.8828v5.7871l1.293 1.0156c2.482 1.9463 3.0037 2.054 6.791 1.4121 1.7284-0.29293 2.6159 0.23815 3.3809 2.0254 0.38071 0.88948 0.99612 1.9898 1.3672 2.4453 0.66382 0.81494 0.66374 0.85363 0.0957 2.3145-0.47817 1.2297-0.512 1.6483-0.19727 2.4375 0.62578 1.5692 2.397 3.6449 3.1152 3.6504 1.2637 0.0112 3.0377-0.58099 3.2168-1.0742 0.1-0.2754 1.2723-1.4618 2.6055-2.6348l2.4238-2.1328v-3.791l1.9141-1.5488c1.3553-1.0969 2.0617-1.9303 2.4238-2.8594 0.28117-0.72136 0.46384-1.3542 0.4043-1.4062-0.0595-0.052-0.58042 0.1102-1.1562 0.36133-0.57585 0.25111-1.5043 0.47444-2.0645 0.49609-0.97607 0.0377-1.016-0.002-0.92773-0.96679 0.0625-0.68293-0.27771-1.7189-1.0586-3.2168-1.0964-2.1031-1.4587-3.5508-0.88868-3.5508 0.47402 0 1.705 1.6902 2.4277 3.334 0.39009 0.88726 0.87835 1.8649 1.0859 2.1738 0.37379 0.55633 0.3913 0.55604 1.7773-0.0859 3.1852-1.4753 4.7949-2.3654 4.7949-2.6523 0-0.52522-1.0887-1.055-2.1875-1.0644-0.83861-0.007-1.1883-0.19795-1.6973-0.92774-1.1188-1.604-0.75939-2.1195 0.66992-0.96094 0.56956 0.46169 1.3434 0.70915 2.5273 0.8086 1.5066 0.12655 1.8901 0.30302 3.2871 1.5059 1.2985 1.118 1.619 1.5935 1.7832 2.6543 0.11003 0.71082 0.26951 1.515 0.35547 1.7871 0.23696 0.74998 1.2528 0.59279 1.6992-0.26367 0.86979-1.6687 3.3082-3.7637 4.3809-3.7637 0.53588 0-0.0588 4.2272-1.123 7.9902-1.5993 5.6545-6.4101 11.697-12.178 15.295-2.8225 1.7607-7.2678 3.5203-10.828 4.2871-3.2284 0.69528-8.7985 1.1014-11.105 0.81054-5.8957-0.7433-12.307-2.9821-16.113-5.6289-1.8148-1.262-1.8659-1.3326-1.377-1.9258 1.0187-1.2358 1.4332-2.0816 1.7383-3.5488 0.30959-1.489 0.30661-1.5026-0.69922-2.043-0.55663-0.29907-1.7684-0.7529-2.6914-1.0098-1.6226-0.45155-1.7109-0.53129-2.668-2.4023-0.54442-1.0644-0.99023-2.0353-0.99023-2.1582-0.00001-0.20765-0.89846-0.73992-3.4609-2.0469-1.7186-0.87652-2.1241-1.9375-2.2949-6.0059-0.14736-3.509-0.12901-3.6385 0.61914-4.3398 0.85525-0.80178 3.5183-2.4078 4.8945-2.9512 0.48913-0.19313 0.89062-0.53154 0.89062-0.75196s-0.51027-1.3256-1.1328-2.457c-1.3957-2.5366-1.4412-3.6595-0.20898-5.1465 0.87491-1.0558 2.294-2.082 2.8809-2.082 0.14808 0 0.21018 0.82535 0.13671 1.834-0.1141 1.5664-0.0492 1.8634 0.44532 2.0293 0.61308 0.20565 0.71831 0.11068 2.4277-2.166 0.52535-0.69968 1.3171-1.706 1.7598-2.2344 1.2168-1.4523 0.99729-3.1556-0.54883-4.2559-0.58027-0.41295-0.48123-0.51271 1.9062-1.8945 5.1737-2.9944 11.321-4.5986 17.539-4.6524z" transform="matrix(1.015 0 0 .98524 -254.31 -414.27)"/>
   <path id="path7371" d="m480.01 422.09-5.2324 1.3106c-0.83053 0.19862-2.0772 0.43677-3.7383 0.71484-1.6057 0.27808-2.7952 0.49736-3.5703 0.65625v1.0723h2.3262c1.2735 0 2.1026 0.19846 2.4902 0.5957 0.38758 0.39725 0.58203 1.3895 0.58203 2.9785v30.092c0 0.87394 1.5497 1.7491 4.6504 2.623 3.1006 0.83422 6.2288 1.25 9.3848 1.25 5.4815 0 10.022-1.5083 13.621-4.5273 3.6543-3.0191 5.4824-6.5555 5.4824-10.607 0-3.3369-1.2734-6.2968-3.8203-8.8789-2.4916-2.6218-5.98-3.9316-10.465-3.9316-2.4916 0-4.7905 0.41578-6.8945 1.25s-3.709 2.0061-4.8164 3.5156zm8.1387 17.041c1.9933 0 3.7108 0.37804 5.1504 1.1328 1.495 0.75477 2.6025 1.747 3.3223 2.9785 0.77516 1.1917 1.328 2.4241 1.6602 3.6953 0.33221 1.2712 0.49804 2.5621 0.49804 3.873 0 2.8999-0.85778 5.3835-2.5742 7.4492-1.6611 2.0657-4.3736 3.0976-8.1387 3.0976-2.104 0-3.9874-0.27784-5.6484-0.83398-1.6057-0.59587-2.4082-1.2518-2.4082-1.9668v-14.24c0-1.4698 0.63668-2.7022 1.9102-3.6953 1.3288-0.99311 3.4047-1.4902 6.2285-1.4902zm-23.009 21.392q-2.9899 0.65546-11.71 2.8602v-5.2437l-1.8272 1.3705q-4.5679 3.8732-10.548 3.8732-4.8171 0-7.3087-2.2643-2.4085-2.2643-2.4085-6.2566v-13.645q0-2.741-0.91358-3.5156-0.91358-0.77464-4.3188-0.77464v-0.83421h12.292v18.472q0 5.3032 6.229 5.3032 3.156 0 6.4781-1.9068 1.8272-1.0726 1.8272-2.6218v-14.003q0-2.8602-0.99664-3.6348-0.99664-0.77464-4.9832-0.77464v-0.83421h12.956v19.485q0 2.3835 0.74747 3.2773 0.74748 0.83422 3.5713 0.83422h0.91359zm-56.283-25.086q2.0763 0 4.4849 0.65546 2.4085 0.65545 3.2391 0.65545 1.0797 0 1.6611-0.77463h0.99664v8.1038h-1.2458q-1.4119-3.5752-3.4052-5.4224-1.9102-1.8472-5.8137-1.8472-2.4916 0-4.4018 1.0726-1.8272 1.0726-1.8272 2.8006 0 1.6088 1.9933 3.039 1.9933 1.4301 4.8171 2.5622 2.9069 1.1322 5.7307 2.3239t4.8171 2.9198q1.9933 1.728 1.9933 3.8136 0 3.6944-3.4882 5.8991-3.4882 2.1451-8.7206 2.1451-1.9933 0-5.0662-0.71505-2.9899-0.71504-4.3188-0.71504-1.4119 0-1.8272 0.95339h-1.1628v-9.3552h1.4119q1.9102 8.3422 10.797 8.3422 2.8238 0 4.734-1.1322t1.9102-3.039q0-1.728-1.9933-3.0985-1.9102-1.4301-4.734-2.5026-2.7408-1.0726-5.4815-2.2047-2.7408-1.1917-4.734-2.9794-1.9102-1.8472-1.9102-4.1711 0-3.3369 3.3221-5.3032 3.4052-2.026 8.2223-2.026zm-19.028 19.127-4.651 8.1634h-32.225v-0.83422l14.036-10.606q11.461-8.8785 11.461-15.91 0-3.9328-3.2391-6.2566-3.156-2.3835-8.6375-2.3835-7.7239 0-11.877 7.8059l-1.7441-0.35752q1.3288-5.3032 5.8968-8.521 4.651-3.2177 11.96-3.2177 6.1459 0 10.465 3.0389 4.3188 3.0389 4.3188 7.3888 0 3.9923-2.6577 7.3888t-8.7206 7.9847l-13.205 9.8914h17.69q4.651 0 6.0629-0.53628 1.495-0.59587 3.9866-3.3965zm-49.12-29.37q0 1.2513-1.2458 2.1451-1.2458 0.89381-2.9069 0.89381-1.8272 0-3.073-0.89381-1.1628-0.8938-1.1628-2.1451 0-1.3109 1.1628-2.2047 1.2458-0.8938 3.073-0.8938 1.6611 0 2.9069 0.8938 1.2458 0.89381 1.2458 2.2047zm6.312 37.54h-19.684v-0.83422q3.6543-0.17876 4.9001-1.0726 1.3288-0.8938 1.3288-2.8602v-14.48q0-2.5622-0.58137-3.5156-0.49832-0.9534-2.1594-0.9534-1.0797 0-3.4882 0.4767v-0.83422l13.288-3.2177v22.524q0 2.026 1.3288 2.9198 1.3288 0.83422 5.0662 1.013z" transform="matrix(1.015 0 0 .98524 -254.31 -414.27)"/>
   <path id="path7335" d="m156.31 48.63h1.1232v9.4979h-1.1232zm-5.268 2.4963c-0.36625 0-0.74337 0.04177-1.13 0.12316-0.38659 0.07734-0.78436 0.19537-1.1954 0.35408v1.0372c0.34183-0.18718 0.69819-0.32782 1.0685-0.42142 0.37032-0.0936 0.7512-0.14048 1.1418-0.14048 0.61448 0 1.0896 0.14234 1.4273 0.42719 0.34182 0.28079 0.51344 0.68011 0.51344 1.1969v0.10969h-1.576c-1.0214 0-1.7907 0.19432-2.3075 0.58499-0.51275 0.39066-0.76917 0.97045-0.76917 1.7396 0 0.65924 0.20552 1.187 0.61653 1.5818 0.41506 0.39066 0.97319 0.58691 1.6731 0.58691 0.55344 0 1.021-0.09908 1.4035-0.29441 0.38251-0.1994 0.7031-0.50667 0.95947-0.92174v1.0391h1.122v-3.9006c0-1.0418-0.24318-1.8195-0.73151-2.3323-0.48832-0.51274-1.2274-0.76972-2.2163-0.76972zm0.70771 3.5657h1.1181v0.25015c0 0.73249-0.19051 1.3191-0.56895 1.7627-0.37439 0.4395-0.8721 0.66004-1.4947 0.66004-0.45171 0-0.80996-0.11635-1.0745-0.3483-0.26043-0.23602-0.39052-0.55372-0.39052-0.95253 0-0.50053 0.17535-0.85467 0.52532-1.0622 0.34998-0.20754 0.97778-0.30982 1.8852-0.30981zm-5.0719-3.1382v1.0499q-0.47611-0.26248-0.95833-0.39066-0.47612-0.13429-0.96445-0.13429-1.0926 0-1.6969 0.69586-0.60431 0.68976-0.60431 1.9411t0.60431 1.9472q0.6043 0.68976 1.6969 0.68976 0.48833 0 0.96445-0.12818 0.48222-0.13429 0.95833-0.39676v1.0377q-0.47001 0.21975-0.97665 0.32962-0.50053 0.10987-1.0682 0.10987-1.5443 0-2.4538-0.97055-0.9095-0.97054-0.9095-2.6186 0-1.6725 0.91561-2.6308 0.92171-0.95834 2.521-0.95834 0.51885 0 1.0133 0.10987 0.49442 0.10377 0.95833 0.31741zm-8.387-0.26247h1.1232v6.8365h-1.1232zm0-2.6614h1.1232v1.4222h-1.1232zm-2.2524 5.3716v4.1263h-1.1232v-4.0897q0-0.97055-0.37845-1.4528-0.37845-0.48222-1.1354-0.48222-0.9095 0-1.4344 0.57988-0.52495 0.57989-0.52495 1.581v3.8639h-1.1292v-6.8365h1.1292v1.0621q0.40287-0.61651 0.94613-0.92171 0.54937-0.3052 1.2635-0.3052 1.1781 0 1.7824 0.73249 0.6043 0.72638 0.6043 2.1425zm-7.9353 0v4.1263h-1.1232v-4.0897q0-0.97055-0.37845-1.4528-0.37845-0.48222-1.1354-0.48222-0.90951 0-1.4345 0.57988-0.52495 0.57989-0.52495 1.581v3.8639h-1.1292v-9.4979h1.1292v3.7235q0.40287-0.61651 0.94613-0.92171 0.54937-0.3052 1.2635-0.3052 1.1781 0 1.7824 0.73249 0.6043 0.72638 0.6043 2.1425zm-7.6484-2.4477v1.0499q-0.47612-0.26248-0.95834-0.39066-0.47611-0.13429-0.96444-0.13429-1.0926 0-1.6969 0.69586-0.6043 0.68976-0.6043 1.9411t0.6043 1.9472q0.60431 0.68976 1.6969 0.68976 0.48833 0 0.96444-0.12818 0.48222-0.13429 0.95834-0.39676v1.0377q-0.47001 0.21975-0.97665 0.32962-0.50053 0.10987-1.0682 0.10987-1.5443 0-2.4538-0.97055-0.90951-0.97054-0.90951-2.6186 0-1.6725 0.91561-2.6308 0.92172-0.95834 2.521-0.95834 0.51885 0 1.0133 0.10987 0.49443 0.10377 0.95834 0.31741zm-9.7483-0.42751c-1.0255 0-1.8419 0.32986-2.4482 0.98909-0.60227 0.65516-0.90199 1.5422-0.90199 2.6613 0.00001 1.0825 0.31672 1.9418 0.95154 2.5766 0.6389 0.63482 1.5044 0.95252 2.595 0.95252 0.43542 0 0.86334-0.04512 1.2866-0.1347 0.42322-0.08956 0.83613-0.21972 1.239-0.39063v-1.0622c-0.39881 0.2116-0.80035 0.3695-1.2073 0.4753-0.40287 0.1058-0.82151 0.15972-1.2529 0.15972-0.74469 0-1.3254-0.20136-1.7445-0.60423-0.41511-0.40694-0.64702-0.99718-0.69582-1.7704h5.1641v-0.55035c0-1.0173-0.26967-1.8211-0.80683-2.4112-0.53309-0.59413-1.259-0.89095-2.1786-0.89095zm0.0119 0.95253c0.55344 0 0.9965 0.18218 1.3302 0.54842 0.33777 0.36624 0.51126 0.85761 0.51939 1.4721l-4.0044 0.0059c0.0569-0.64296 0.27386-1.1411 0.64823-1.4952 0.37846-0.35404 0.87993-0.5311 1.5066-0.5311zm-6.6713-2.7286v1.9411h2.3134v0.87288h-2.3134v3.7113q0 0.83626 0.22585 1.0743 0.23195 0.23806 0.93392 0.23806h1.1537v0.94002h-1.1537q-1.3002 0-1.7946-0.48222-0.49443-0.48832-0.49443-1.7702v-3.7113h-0.82405v-0.87288h0.82405v-1.9411zm-6.1032 1.7761c-0.98072 0-1.75 0.31771-2.3075 0.95253-0.55344 0.63482-0.83062 1.5131-0.83062 2.6363 0 1.1191 0.27718 1.9993 0.83062 2.6382 0.55751 0.63482 1.3268 0.95252 2.3075 0.95252 0.97664 0 1.7421-0.3177 2.2996-0.95252 0.55751-0.6389 0.83657-1.5191 0.83657-2.6382 0-1.1231-0.27906-2.0015-0.83657-2.6363-0.5575-0.63482-1.3229-0.95253-2.2996-0.95253zm0 0.95253c0.5982 0 1.0714 0.2378 1.4214 0.71392 0.34997 0.47205 0.52533 1.1126 0.52533 1.9224 0 0.81388-0.17537 1.458-0.52533 1.9301-0.34996 0.47205-0.82317 0.70814-1.4214 0.70814-0.60634 0-1.0853-0.2344-1.4353-0.70237-0.3459-0.47205-0.51938-1.1179-0.51938-1.9358 0-0.81794 0.17536-1.4602 0.52532-1.9281 0.34998-0.47205 0.82704-0.70814 1.4293-0.70814zm-7.4776-0.95253c-1.0255 0-1.8419 0.32986-2.4482 0.98909-0.60227 0.65516-0.90396 1.5422-0.90396 2.6613 0 1.0825 0.31672 1.9418 0.95154 2.5766 0.63889 0.63482 1.5043 0.95252 2.5949 0.95252 0.43542 0 0.86533-0.04512 1.2885-0.1347 0.42322-0.08956 0.83612-0.21972 1.239-0.39063v-1.0622c-0.3988 0.2116-0.80231 0.3695-1.2093 0.4753-0.40287 0.1058-0.81953 0.15972-1.2509 0.15972-0.74469 0-1.3273-0.20136-1.7465-0.60423-0.41508-0.40694-0.64698-0.99718-0.69582-1.7704h5.1641v-0.55035c0-1.0173-0.26769-1.8211-0.80485-2.4112-0.53309-0.59413-1.259-0.89095-2.1786-0.89095zm0.01187 0.95253c0.55344 0 0.99649 0.18218 1.3302 0.54842 0.33776 0.36624 0.51124 0.85761 0.51938 1.4721l-4.0044 0.0059c0.05694-0.64296 0.27187-1.1411 0.64626-1.4952 0.37846-0.35404 0.88191-0.5311 1.5086-0.5311zm-6.3059 4.7489v-2.4477h-2.0143v-1.0133h3.2352v3.9127q-0.71418 0.50664-1.5748 0.76911-0.86067 0.25637-1.8373 0.25637-2.1364 0-3.345-1.2452-1.2025-1.2513-1.2025-3.4793 0-2.2341 1.2025-3.4793 1.2086-1.2513 3.345-1.2513 0.89119 0 1.6908 0.21975 0.80574 0.21975 1.4833 0.64703v1.3124q-0.68366-0.57989-1.4528-0.87288-0.76911-0.293-1.6176-0.293-1.6725 0-2.5149 0.93392-0.83626 0.93392-0.83626 2.7835 0 1.8434 0.83626 2.7773 0.84236 0.93392 2.5149 0.93392 0.65313 0 1.1659-0.10987 0.51274-0.11598 0.92171-0.35404z"/>
   <path id="path7333" d="m160.06 56.578h1.288v1.0499l-1.0011 1.9533h-0.78742l0.50053-1.9533z"/>
   <path id="path7311" d="m450.21 472.37c-0.82592 0-1.4909 0.3242-1.9961 0.97266-0.50517 0.64846-0.75781 1.5101-0.75781 2.584 0 1.0698 0.25264 1.9277 0.75781 2.5762 0.50518 0.64846 1.1702 0.97461 1.9961 0.97461 0.49715 0 0.92442-0.1023 1.2812-0.30469 0.35683-0.20239 0.65037-0.50711 0.8789-0.91602v0.5625c0 0.7889-0.18212 1.3774-0.54296 1.7656-0.36085 0.39238-0.90323 0.58984-1.6289 0.58984-0.32876 0-0.65202-0.0441-0.96875-0.13086-0.31674-0.0867-0.63618-0.22061-0.96094-0.40234v1.1094c0.32476 0.12391 0.65911 0.21366 1.0039 0.27149 0.3448 0.0619 0.7107 0.0937 1.0996 0.0937 1.0504 0 1.8307-0.28894 2.3398-0.86719 0.50918-0.57412 0.76367-1.4515 0.76367-2.6328v-6.0781h-1.1055v1.0527c-0.22853-0.40891-0.52207-0.71363-0.8789-0.91602-0.35683-0.20238-0.7841-0.30469-1.2812-0.30469zm0.27148 0.95508c0.59739 0 1.0599 0.22731 1.3887 0.68164 0.33278 0.45434 0.5 1.0939 0.5 1.9199 0 0.82193-0.16722 1.4597-0.5 1.9141-0.32876 0.45433-0.79128 0.68164-1.3887 0.68164-0.59338 0-1.0578-0.22731-1.3906-0.68164-0.32876-0.45434-0.49219-1.0921-0.49219-1.9141 0-0.82607 0.16343-1.4656 0.49219-1.9199 0.33277-0.45433 0.79724-0.68164 1.3906-0.68164zm-4.7636 1.9632v4.1882h-1.1066v-4.151q0-0.98509-0.37288-1.4745-0.37286-0.48945-1.1186-0.48945-0.89609 0-1.4133 0.58858-0.51719 0.58857-0.51719 1.6046v3.9218h-1.1126v-6.939h1.1126v1.078q0.39691-0.62575 0.93217-0.93552 0.54125-0.30978 1.2449-0.30978 1.1607 0 1.7561 0.74346 0.59538 0.73727 0.59538 2.1746zm-9.0149-2.7508h1.1066v6.939h-1.1066zm0-2.7012h1.1066v1.4436h-1.1066zm-3.4159 0h1.1066v9.6402h-1.1066zm-3.4159 0h1.1066v9.6402h-1.1066zm-3.4159 2.7012h1.1066v6.939h-1.1066zm0-2.7012h1.1066v1.4436h-1.1066zm-1.1727 3.7669q-0.18643-0.11152-0.40895-0.16109-0.2165-0.0558-0.48111-0.0558-0.93818 0-1.4434 0.63194-0.49915 0.62575-0.49915 1.8029v3.6554h-1.1126v-6.939h1.1126v1.078q0.3488-0.63194 0.9081-0.93552 0.5593-0.30977 1.3592-0.30977 0.11427 0 0.25259 0.0186 0.13832 0.0124 0.30671 0.0434zm-13.332-3.3757v9.25h2.4941c1.732 0 3.0083-0.37546 3.8262-1.123 0.81791-0.74759 1.2266-1.9174 1.2266-3.5117 0-1.586-0.40682-2.7507-1.2207-3.4941-0.81389-0.74759-2.092-1.1211-3.832-1.1211zm1.2148 1.0273h1.4668c1.2389 0 2.1454 0.28894 2.7188 0.86719 0.57734 0.57411 0.86524 1.4816 0.86524 2.7207 0 1.2474-0.2879 2.16-0.86524 2.7383-0.57333 0.57825-1.4799 0.86719-2.7188 0.86719h-1.4668z" transform="matrix(1.015 0 0 .98524 -254.31 -414.27)"/>
   <path id="path7307" d="m208.56 56.578h1.288v1.0499l-1.0011 1.9533h-0.78742l0.50053-1.9533z"/>
   <path id="path1563" d="m260.48 51.493v1.0621q-0.47612-0.24416-0.98886-0.36624t-1.0621-0.12208q-0.83625 0-1.2574 0.25637-0.41508 0.25637-0.41508 0.76911 0 0.39066 0.2991 0.61651 0.2991 0.21975 1.2025 0.42118l0.38455 0.08546q1.1964 0.25637 1.6969 0.72638 0.50664 0.46391 0.50664 1.3002 0 0.95223-0.7569 1.5077-0.7508 0.55547-2.0693 0.55547-0.54937 0-1.1476-0.10987-0.5921-0.10377-1.2513-0.31741v-1.1598q0.62262 0.32352 1.2269 0.48832 0.6043 0.1587 1.1964 0.1587 0.79352 0 1.2208-0.26858 0.42728-0.27468 0.42728-0.76911 0-0.4578-0.3113-0.70197-0.30521-0.24416-1.349-0.47001l-0.39066-0.09156q-1.0438-0.21975-1.5077-0.67145-0.46391-0.4578-0.46391-1.2513 0-0.96444 0.68365-1.4894 0.68366-0.52495 1.9411-0.52495 0.62262 0 1.172 0.09156 0.54937 0.09156 1.0133 0.27468zm-9.6269-0.36647c-0.36624 0-0.74138 0.04177-1.128 0.12316-0.38659 0.07734-0.78635 0.19537-1.1974 0.35408v1.0372c0.34183-0.18718 0.69819-0.32782 1.0685-0.42142 0.37032-0.0936 0.7512-0.14048 1.1418-0.14048 0.61448 0 1.0896 0.14234 1.4273 0.42719 0.34182 0.28079 0.51344 0.68011 0.51344 1.1969v0.10969h-1.574c-1.0214 0-1.7907 0.19432-2.3075 0.58499-0.51274 0.39066-0.76916 0.97045-0.76916 1.7396 0 0.65924 0.20551 1.187 0.61652 1.5818 0.41508 0.39066 0.97122 0.58691 1.6712 0.58691 0.55344 0 1.023-0.09908 1.4055-0.29441 0.38253-0.1994 0.70113-0.50667 0.9575-0.92174v1.0391h1.124v-3.9006c0-1.0418-0.24515-1.8195-0.73348-2.3323-0.48832-0.51274-1.2274-0.76972-2.2163-0.76972zm0.70969 3.5657h1.1161v0.25015c0 0.73249-0.18852 1.3191-0.56696 1.7627-0.37439 0.4395-0.87409 0.66004-1.4967 0.66004-0.4517 0-0.80995-0.11635-1.0744-0.3483-0.26044-0.23602-0.39053-0.55372-0.39053-0.95253 0-0.50053 0.17536-0.85467 0.52533-1.0622 0.34997-0.20754 0.97976-0.30982 1.8872-0.30981zm-6.5383 2.1357v-2.4477h-2.0143v-1.0133h3.2352v3.9127q-0.71417 0.50663-1.5748 0.76911-0.86067 0.25637-1.8373 0.25637-2.1364 0-3.345-1.2452-1.2025-1.2513-1.2025-3.4793 0-2.2341 1.2025-3.4793 1.2086-1.2513 3.345-1.2513 0.89119 0 1.6908 0.21975 0.80573 0.21975 1.4833 0.64703v1.3124q-0.68365-0.57989-1.4528-0.87288-0.76913-0.293-1.6176-0.293-1.6725 0-2.5149 0.93393-0.83626 0.93392-0.83626 2.7834 0 1.8434 0.83626 2.7774 0.84236 0.93392 2.5149 0.93392 0.65313 0 1.1659-0.10987 0.51274-0.11597 0.92171-0.35404zm-12.879-7.9779c-0.74876 0-1.3503 0.20136-1.802 0.60423-0.4517 0.3988-0.67599 0.9283-0.67599 1.5875 0 0.24416 0.051 0.4941 0.15265 0.75048 0.10174 0.2523 0.24872 0.50564 0.44405 0.76202-0.5453 0.40287-0.95246 0.83522-1.2251 1.2951-0.27266 0.45576-0.41036 0.94351-0.41036 1.4644 0 0.87492 0.31109 1.5936 0.9337 2.1552 0.62262 0.55751 1.4239 0.83707 2.4046 0.83707 0.5331 0 1.0328-0.08867 1.4967-0.26362 0.46391-0.17906 0.90697-0.44988 1.3302-0.81206l0.87224 0.89865h1.5383l-1.7029-1.7415c0.37846-0.51274 0.67453-1.0299 0.88613-1.5548 0.21157-0.52495 0.34166-1.0562 0.39053-1.5933h-1.1359c-0.0245 0.4639-0.1036 0.90306-0.23789 1.3181-0.13429 0.411-0.32093 0.79817-0.56101 1.1603l-3.1004-3.1751c-0.37032-0.38252-0.61735-0.67764-0.73944-0.88517-0.11801-0.21161-0.17642-0.42171-0.17642-0.62925 0-0.3581 0.13196-0.64788 0.39647-0.8717 0.26859-0.22789 0.61545-0.34253 1.0427-0.34253 0.27673 0 0.57654 0.05025 0.89803 0.15202 0.32148 0.09764 0.65896 0.24363 1.013 0.4349v-1.1122c-0.3459-0.1465-0.68714-0.25581-1.0249-0.32905-0.33369-0.0732-0.66929-0.10969-1.007-0.10969zm-1.2648 4.3758 3.2352 3.3156c-0.29707 0.26044-0.61379 0.45477-0.95154 0.58499-0.33776 0.12615-0.69976 0.19051-1.0864 0.19051-0.6511 0-1.1922-0.19795-1.6236-0.59268-0.43136-0.39474-0.64824-0.88952-0.64824-1.4836 0-0.3581 0.0868-0.7001 0.2577-1.0257 0.17499-0.32962 0.44643-0.65947 0.81675-0.98909zm-5.328-4.5957h1.1232v9.4979h-1.1232zm-3.4671 2.6614h1.1232v6.8365h-1.1232zm0-2.6614h1.1232v1.4222h-1.1232zm-6.0926 0.2199c-1.2818 0-2.3076 0.42872-3.0767 1.2874-0.76504 0.85457-1.1458 2.002-1.1458 3.4426s0.38078 2.588 1.1458 3.4426c0.76911 0.85457 1.7948 1.2835 3.0767 1.2835 1.2778 0 2.2997-0.42893 3.0648-1.2835 0.76504-0.85864 1.1478-2.0061 1.1478-3.4426 0-1.4406-0.38276-2.588-1.1478-3.4426-0.76504-0.85864-1.787-1.2874-3.0648-1.2874zm0 1.0006c0.89526 0 1.6042 0.33326 2.1251 1.0006 0.52496 0.66737 0.78701 1.577 0.78701 2.7287 0 1.1476-0.26205 2.0555-0.78701 2.7229-0.52088 0.66738-1.2298 1.0006-2.1251 1.0006-0.89527 0-1.606-0.33326-2.135-1.0006-0.52496-0.66737-0.789-1.5753-0.789-2.7229 0-1.1516 0.26404-2.0613 0.789-2.7287 0.52901-0.66738 1.2398-1.0006 2.135-1.0006z"/>
  </g>
 </g>
</svg>
