<?xml version="1.0" encoding="UTF-8" standalone="no"?>
<svg
   xmlns:dc="http://purl.org/dc/elements/1.1/"
   xmlns:cc="http://creativecommons.org/ns#"
   xmlns:rdf="http://www.w3.org/1999/02/22-rdf-syntax-ns#"
   xmlns:svg="http://www.w3.org/2000/svg"
   xmlns="http://www.w3.org/2000/svg"
   viewBox="0 0 258.60522 65.902023"
   height="65.902023"
   width="258.60522"
   id="svg249"
   version="1.1">
  <metadata
     id="metadata255">
    <rdf:RDF>
      <cc:Work
         rdf:about="">
        <dc:format>image/svg+xml</dc:format>
        <dc:type
           rdf:resource="http://purl.org/dc/dcmitype/StillImage" />
        <dc:title></dc:title>
      </cc:Work>
    </rdf:RDF>
  </metadata>
  <defs
     id="defs253" />
  <path
     id="path259"
     d="M 31.68145,65.508398 C 26.294593,64.616878 21.257653,62.814127 16.814901,60.187565 14.295255,58.697944 9.7205968,54.693608 8.0037647,52.474925 3.3958632,46.520054 0.9338953,38.450335 1.7660166,32.029104 3.7725569,16.545255 16.646861,5.3784518 34.375143,3.7448831 c 7.330363,-0.675453 16.398609,1.448647 23.058504,5.4011085 2.463109,1.4617874 6.764482,5.1409134 8.646204,7.3954334 4.092838,4.903676 6.814532,12.202671 6.825933,18.305674 0.01048,5.61775 -2.449323,12.490648 -6.180697,17.269202 -3.139244,4.02025 -8.701655,8.302578 -13.537701,10.422247 -2.710297,1.187947 -8.123456,2.677192 -11.318914,3.114009 -2.79956,0.38272 -7.396422,0.317652 -10.187022,-0.144159 z m 13.370708,-3.653821 c 3.560359,-0.766806 8.004979,-2.526823 10.827454,-4.287547 5.767616,-3.597999 10.578593,-9.64039 12.177857,-15.294899 1.064283,-3.762993 1.657911,-7.990425 1.12203,-7.990425 -1.072674,0 -3.511443,2.095115 -4.38123,3.763851 -0.4464,0.856463 -1.461327,1.014611 -1.698279,0.264636 -0.08596,-0.272103 -0.246328,-1.076303 -0.356354,-1.787121 -0.164209,-1.060839 -0.483471,-1.536427 -1.781997,-2.654473 -1.396997,-1.202834 -1.781432,-1.378839 -3.288063,-1.505388 -1.183908,-0.09945 -1.957336,-0.346939 -2.526899,-0.808622 -1.429309,-1.158541 -1.788049,-0.643806 -0.669242,0.960229 0.509008,0.729787 0.858014,0.920633 1.696625,0.927778 1.098776,0.0094 2.187687,0.539133 2.187687,1.064352 0,0.286888 -1.610023,1.17761 -4.795217,2.652922 -1.386038,0.641981 -1.403189,0.642816 -1.776979,0.08649 -0.207591,-0.308947 -0.6966,-1.287676 -1.08669,-2.174931 -0.722704,-1.643806 -1.953237,-3.33406 -2.427251,-3.33406 -0.570064,0 -0.207561,1.448475 0.888847,3.551606 0.780888,1.497913 1.121784,2.532767 1.059307,3.215692 -0.0883,0.965058 -0.04973,1.005342 0.926353,0.967607 0.560163,-0.02165 1.489624,-0.244837 2.065472,-0.495944 0.575836,-0.251126 1.095703,-0.413997 1.155245,-0.361945 0.05954,0.05201 -0.121793,0.684825 -0.402965,1.406186 -0.362133,0.929062 -1.069212,1.763137 -2.42454,2.860022 l -1.913312,1.548479 v 1.895913 1.895895 l -2.423985,2.132721 c -1.333184,1.172996 -2.505787,2.358036 -2.605777,2.633431 -0.179085,0.493236 -1.95317,1.086008 -3.216879,1.074845 -0.718284,-0.0055 -2.488969,-2.082008 -3.114747,-3.651234 -0.314734,-0.789232 -0.280857,-1.20775 0.197315,-2.437468 0.568029,-1.460829 0.566463,-1.49794 -0.09735,-2.312881 -0.37106,-0.455519 -0.986135,-1.555982 -1.366846,-2.445466 -0.764949,-1.78724 -1.651464,-2.318522 -3.379908,-2.025589 -3.787273,0.641852 -4.309342,0.533226 -6.791346,-1.413034 L 25.536905,38.761828 V 35.8682 32.974562 l 1.891414,-1.883155 c 1.410457,-1.404317 2.168203,-1.92857 2.979905,-2.061683 0.598668,-0.09817 1.257023,-0.356017 1.463011,-0.572986 0.257649,-0.271378 1.109,-0.39447 2.728273,-0.39447 h 2.353754 l 0.286649,1.060124 0.286643,1.060132 4.030503,0.07044 c 2.216772,0.0388 4.64899,-6.15e-4 5.404931,-0.08796 1.315374,-0.151672 1.374441,-0.200257 1.374441,-1.130606 V 28.062265 H 46.71144 c -1.446757,0 -1.659587,-0.07954 -1.940388,-0.725159 -0.173467,-0.398833 -0.315392,-0.839318 -0.315392,-0.97885 0,-0.139525 1.346138,-0.290262 2.991424,-0.334968 2.949158,-0.08014 2.991429,-0.09125 2.991429,-0.786917 0,-0.555368 -0.34434,-0.87002 -1.616988,-1.477575 -0.889345,-0.424569 -1.96935,-0.774915 -2.400015,-0.778549 -1.033035,-0.0087 -1.96585,0.759303 -1.96585,1.618535 0,0.436738 -0.222603,0.740293 -0.607375,0.828249 -0.334052,0.07637 -0.767521,0.4461 -0.963257,0.821637 -0.514308,0.986739 -1.339946,0.884871 -1.339946,-0.165312 0,-0.932927 -0.861051,-1.849147 -2.136052,-2.272894 -1.749344,-0.581404 -1.893659,-0.109571 -0.416355,1.361258 l 1.004966,1.000562 -0.762418,0.358496 c -0.715074,0.336233 -0.775869,0.303172 -0.979063,-0.532389 -0.336158,-1.382321 -1.366938,-1.950876 -3.149055,-1.736956 -1.530761,0.183753 -2.044687,0.539694 -3.01664,2.089325 -0.523927,0.835316 -0.663492,0.888987 -2.102084,0.808385 l -1.540904,-0.08633 -0.09944,-1.201478 -0.09944,-1.201483 h 1.797282 c 1.710577,0 1.797276,-0.03476 1.797276,-0.720397 0,-0.544942 -0.255982,-0.814611 -1.05104,-1.107222 l -1.051044,-0.386823 0.970192,-0.190431 c 1.129906,-0.221782 2.114579,-0.616237 3.799921,-1.522244 0.941997,-0.506395 1.212745,-0.831324 1.212745,-1.455438 0,-1.097401 0.471815,-1.26337 1.184554,-0.416686 0.544715,0.647079 0.736686,0.690817 2.307936,0.525825 1.436079,-0.150796 1.787729,-0.304925 2.169986,-0.9511 0.250888,-0.424125 0.753063,-0.839004 1.11592,-0.921954 0.93314,-0.213315 0.83284,-1.174856 -0.163962,-1.571876 -1.511743,-0.602115 -2.031919,-0.425533 -2.415593,0.820003 -0.314031,1.01948 -0.451275,1.138229 -1.225201,1.060127 -0.758952,-0.07659 -0.865397,-0.206659 -0.82387,-1.00673 0.05591,-1.077172 -0.0013,-1.10075 -0.856182,-0.353375 -0.771043,0.674014 -2.116462,0.743355 -2.388737,0.123111 -0.232393,-0.529391 1.973619,-2.464761 4.007129,-3.515522 0.752263,-0.388714 2.009653,-1.360652 2.794181,-2.159864 C 43.281312,9.033401 44.20421,8.7107201 47.078771,8.9442646 51.17553,9.277101 48.551568,8.160464 43.207188,7.2966955 34.984167,5.9676751 26.35849,7.48706 19.460201,11.479643 c -2.387475,1.381821 -2.487283,1.480942 -1.907018,1.893889 1.546121,1.100313 1.766062,2.805385 0.549211,4.257678 -0.44267,0.528322 -1.234687,1.533054 -1.760034,2.232737 -1.709423,2.276695 -1.815647,2.371417 -2.428734,2.165762 -0.494505,-0.165884 -0.559461,-0.461678 -0.445362,-2.028087 0.07347,-1.008633 0.01241,-1.83388 -0.135671,-1.83388 -0.586809,0 -2.006188,1.025207 -2.8811,2.080998 -1.2322017,1.486949 -1.1865627,2.610203 0.209122,5.146797 0.62254,1.131433 1.131892,2.237499 1.131892,2.457923 0,0.220416 -0.400206,0.558781 -0.889343,0.75191 -1.3762301,0.543407 -4.0391324,2.148669 -4.8943837,2.950448 -0.7481503,0.701381 -0.7665529,0.830351 -0.6191976,4.339343 0.1708439,4.068372 0.5767107,5.130578 2.295306,6.007101 2.5624803,1.306957 3.4608213,1.837945 3.4608213,2.045594 0,0.122871 0.445435,1.094217 0.989858,2.158569 0.957045,1.871047 1.045477,1.950662 2.668029,2.402209 0.922995,0.256868 2.133604,0.711727 2.69024,1.010796 1.00583,0.540398 1.010143,0.552992 0.700557,2.041962 -0.305061,1.467204 -0.719347,2.313147 -1.738041,3.548973 -0.48893,0.593139 -0.438804,0.663279 1.375987,1.925328 3.806002,2.646768 10.217234,4.88707 16.112899,5.630367 2.306991,0.29086 7.878563,-0.116212 11.106919,-0.811501 z M 55.586414,28.173395 c 0.574624,-0.192756 0.722192,-1.942844 0.188153,-2.231366 -0.17787,-0.09609 -0.323397,-0.714229 -0.323397,-1.373646 0,-1.102504 -0.420357,-1.877413 -1.018414,-1.877413 -0.13324,0 -0.615535,0.427801 -1.071755,0.950671 -0.786156,0.901 -0.810431,1.030244 -0.464581,2.473638 0.200706,0.837625 0.416479,1.681974 0.479491,1.876335 0.12059,0.371923 1.343792,0.472511 2.210503,0.181781 z"
     style="opacity:1;vector-effect:none;fill:#000000;fill-opacity:1;stroke-width:0.30236518;stroke-linecap:butt;stroke-linejoin:miter;stroke-miterlimit:4;stroke-dasharray:none;stroke-dashoffset:0;stroke-opacity:1" />
  <path
     id="path287"
     d="M -2.4213052,70.907243 V -62.388379 l 114.2247052,-0.0072 114.22471,-0.0072 2.2522,2.616942 2.25219,2.616942 -0.50928,-2.609703 -0.50928,-2.609704 h 13.2206 13.2206 l -0.37141,5.420153 c -0.20427,2.981085 -0.70468,6.46777 -1.11201,7.748189 -0.40733,1.28042 -0.74061,3.674321 -0.74061,5.31978 0,4.617337 -0.8593,7.860194 -2.2213,8.382842 -0.68095,0.261307 -7.05425,0.873377 -14.16288,1.360156 -12.78902,0.875755 -14.01754,1.05576 -13.14697,1.926329 0.52956,0.529557 13.6918,2.374355 22.50503,3.154266 5.02536,0.44471 6.23065,0.807985 6.26213,1.88742 0.0427,1.465193 1.33347,14.36691 2.26257,22.6158333 0.52452,4.65693998 0.68019,5.00307398 1.44448,3.211943 0.47113,-1.104105 1.101,-5.801571 1.39969,-10.4388133 0.67374,-10.459644 1.96986,-16.862699 3.4134,-16.862699 0.89533,0 1.0767,19.6135833 1.0767,116.432924 V 204.20287 H 130.07132 -2.4213052 Z M 144.90559,197.02141 c 10.6253,-1.34343 24.64936,-4.82815 30.53442,-7.58725 6.24563,-2.92815 16.22252,-7.85558 17.66569,-8.72483 6.30972,-3.80044 11.27226,-7.28152 16.59586,-11.64149 6.3432,-5.19504 16.80768,-15.92154 18.99244,-19.46799 0.68017,-1.10411 1.6233,-2.36881 2.09584,-2.81045 4.76352,-4.45201 16.88061,-28.48366 19.02921,-37.74033 0.51255,-2.20821 1.2335,-4.40414 1.60211,-4.87983 0.65617,-0.84682 2.02024,-9.300467 3.92399,-24.318387 0.73127,-5.76878 0.73433,-9.41133 0.0131,-15.65822 -1.54464,-13.3793 -3.17617,-23.7171 -3.97835,-25.20774 -0.41482,-0.77086 -1.16654,-3.208274 -1.67049,-5.416485 -1.03186,-4.521499 -1.76041,-6.295768 -7.27457,-17.716078 -10.35594,-21.4481947 -27.45902,-40.161007 -48.1476,-52.679312 -5.82468,-3.524408 -16.7798,-8.734466 -20.85468,-9.918109 -1.10411,-0.320712 -2.36881,-0.860206 -2.81045,-1.198875 -0.44164,-0.338669 -3.51306,-1.230901 -6.82538,-1.982737 -3.31232,-0.751836 -6.74508,-1.688207 -7.62836,-2.080823 -6.97308,-3.099508 -46.99663,-3.067453 -53.80004,0.04309 -0.88329,0.40384 -3.774035,1.153104 -6.423881,1.665029 -2.649852,0.511926 -6.263288,1.569242 -8.029856,2.349589 -1.766569,0.780348 -4.609226,1.86765 -6.317024,2.416228 -4.114964,1.32181 -16.978144,8.040639 -21.443731,11.200715 -1.955627,1.383902 -4.820389,3.363955 -6.366136,4.400117 -7.508231,5.032994 -19.145627,16.765163 -27.145753,27.3668103 -4.783814,6.339439 -12.868624,21.0073667 -14.605716,26.4985277 -0.558842,1.766569 -1.331989,3.612312 -1.718103,4.101651 -0.6823532,0.864768 -2.8960515,8.582247 -5.2727236,18.381952 -1.6311843,6.72584 -2.317059,34.12515 -1.0860924,43.38718 4.3844548,32.989497 22.747229,63.180247 51.434349,84.564667 6.024623,4.49097 17.853931,11.13727 23.688077,13.30915 2.208211,0.82206 4.376272,1.76636 4.817914,2.09846 0.441643,0.33209 3.151719,1.21855 6.022393,1.96992 2.870674,0.75136 5.942094,1.68731 6.825378,2.07986 2.747,1.22084 8.838365,2.30779 16.031895,2.86073 3.79908,0.29202 7.11075,0.85995 7.35927,1.26206 0.54139,0.87599 14.69864,0.34622 24.767,-0.9268 z"
     style="opacity:1;vector-effect:none;fill:none;fill-opacity:1;stroke-width:0.80298561;stroke-linecap:butt;stroke-linejoin:miter;stroke-miterlimit:4;stroke-dasharray:none;stroke-dashoffset:0;stroke-opacity:1" />
  <flowRoot
     transform="matrix(1.7302728,0,0,1.2413978,-111.58449,-100.76635)"
     style="font-style:normal;font-variant:normal;font-weight:normal;font-stretch:normal;font-size:40px;line-height:1.25;font-family:Dingbats;-inkscape-font-specification:Dingbats;letter-spacing:0px;word-spacing:0px;fill:#000000;fill-opacity:1;stroke:none"
     id="flowRoot357"
     xml:space="preserve"><flowRegion
       style="font-style:normal;font-variant:normal;font-weight:normal;font-stretch:normal;font-family:Dingbats;-inkscape-font-specification:Dingbats"
       id="flowRegion359"><rect
         style="font-style:normal;font-variant:normal;font-weight:normal;font-stretch:normal;font-family:Dingbats;-inkscape-font-specification:Dingbats"
         y="71.268509"
         x="107.60008"
         height="83.510506"
         width="177.45984"
         id="rect361" /></flowRegion><flowPara
       style="font-style:normal;font-variant:normal;font-weight:normal;font-stretch:normal;font-size:48px;font-family:Kinnari;-inkscape-font-specification:Kinnari;fill:#b87333;fill-opacity:1"
       id="flowPara363">i2sub</flowPara></flowRoot>  <text
     transform="scale(0.9852407,1.0149804)"
     id="text373"
     y="58.687668"
     x="76.444122"
     style="font-style:normal;font-weight:normal;font-size:15.76385117px;line-height:1.25;font-family:sans-serif;letter-spacing:0px;word-spacing:0px;fill:#000000;fill-opacity:1;stroke:none;stroke-width:0.9852407"
     xml:space="preserve"><tspan
       style="font-size:12.50111485px;stroke-width:0.9852407;fill:#b87333;fill-opacity:1"
       y="58.687668"
       x="76.444122"
       id="tspan371">Geotechnical,Drilling,Oil&amp;Gas</tspan></text>
</svg>
