<?xml version="1.0" encoding="UTF-8" standalone="no"?>
<!-- Created with Inkscape (http://www.inkscape.org/) -->

<svg
   xmlns:dc="http://purl.org/dc/elements/1.1/"
   xmlns:cc="http://creativecommons.org/ns#"
   xmlns:rdf="http://www.w3.org/1999/02/22-rdf-syntax-ns#"
   xmlns:svg="http://www.w3.org/2000/svg"
   xmlns="http://www.w3.org/2000/svg"
   xmlns:sodipodi="http://sodipodi.sourceforge.net/DTD/sodipodi-0.dtd"
   xmlns:inkscape="http://www.inkscape.org/namespaces/inkscape"
   width="69.517357mm"
   height="17.965734mm"
   viewBox="0 0 69.517357 17.965734"
   version="1.1"
   id="svg428"
   inkscape:version="0.92.3 (3ce5693, 2018-03-11)"
   sodipodi:docname="Screenshot from 2018-04-08 17-25-52.svg">
  <defs
     id="defs422" />
  <sodipodi:namedview
     id="base"
     pagecolor="#ffffff"
     bordercolor="#666666"
     borderopacity="1.0"
     inkscape:pageopacity="0.0"
     inkscape:pageshadow="2"
     inkscape:zoom="2.8"
     inkscape:cx="125.30214"
     inkscape:cy="34.417455"
     inkscape:document-units="mm"
     inkscape:current-layer="layer1"
     showgrid="false"
     inkscape:window-width="1301"
     inkscape:window-height="744"
     inkscape:window-x="65"
     inkscape:window-y="24"
     inkscape:window-maximized="1"
     fit-margin-top="0"
     fit-margin-left="0"
     fit-margin-right="0"
     fit-margin-bottom="0" />
  <metadata
     id="metadata425">
    <rdf:RDF>
      <cc:Work
         rdf:about="">
        <dc:format>image/svg+xml</dc:format>
        <dc:type
           rdf:resource="http://purl.org/dc/dcmitype/StillImage" />
        <dc:title></dc:title>
      </cc:Work>
    </rdf:RDF>
  </metadata>
  <g
     inkscape:label="Layer 1"
     inkscape:groupmode="layer"
     id="layer1"
     transform="translate(-65.78299,-101.29689)">
    <path
       style="opacity:1;vector-effect:none;fill:#000000;fill-opacity:1;stroke-width:0.08446839;stroke-linecap:butt;stroke-linejoin:miter;stroke-miterlimit:4;stroke-dasharray:none;stroke-dashoffset:0;stroke-opacity:1;stroke:none"
       d="m 73.919691,119.14909 c -1.45737,-0.25717 -2.82008,-0.7772 -4.02203,-1.53486 -0.68168,-0.4297 -1.91932,-1.5848 -2.38379,-2.22481 -1.24664,-1.71775 -1.91271,-4.04556 -1.68758,-5.89784 0.54285,-4.4665 4.0259,-7.6877 8.82216,-8.15893 1.98318,-0.19484 4.43653,0.41788 6.23832,1.55802 0.66637,0.42167 1.83008,1.48296 2.33917,2.1333 1.10728,1.41453 1.84362,3.52001 1.8467,5.2805 0.003,1.6205 -0.66264,3.60307 -1.67214,4.98151 -0.8493,1.15969 -2.35417,2.39497 -3.66253,3.00642 -0.73325,0.34268 -2.19774,0.77227 -3.06225,0.89827 -0.7574,0.1104 -2.00105,0.0916 -2.75603,-0.0416 z m 3.61735,-1.05399 c 0.96323,-0.2212 2.16569,-0.72889 2.92929,-1.2368 1.56039,-1.03788 2.86197,-2.78088 3.29464,-4.41199 0.28793,-1.08549 0.44853,-2.30494 0.30355,-2.30494 -0.2902,0 -0.94999,0.60436 -1.18531,1.08573 -0.12077,0.24706 -0.39535,0.29268 -0.45945,0.0763 -0.0233,-0.0785 -0.0666,-0.31047 -0.0964,-0.51552 -0.0444,-0.30601 -0.1308,-0.4432 -0.48211,-0.76571 -0.37795,-0.34697 -0.48195,-0.39774 -0.88956,-0.43425 -0.3203,-0.0287 -0.52954,-0.10008 -0.68364,-0.23326 -0.38669,-0.33419 -0.48374,-0.18571 -0.18105,0.27699 0.1377,0.21052 0.23213,0.26557 0.45901,0.26763 0.29726,0.003 0.59186,0.15552 0.59186,0.30703 0,0.0828 -0.43558,0.33969 -1.29731,0.76527 -0.37499,0.18518 -0.37963,0.18542 -0.48075,0.025 -0.0562,-0.0891 -0.18846,-0.37145 -0.294,-0.62739 -0.19552,-0.47418 -0.52843,-0.96175 -0.65667,-0.96175 -0.15423,0 -0.0562,0.41783 0.24047,1.0245 0.21126,0.43209 0.30349,0.73061 0.28659,0.92761 -0.0239,0.27838 -0.0134,0.29 0.25061,0.27912 0.15155,-0.006 0.40301,-0.0706 0.5588,-0.14306 0.15579,-0.0724 0.29644,-0.11943 0.31255,-0.10441 0.0161,0.015 -0.0329,0.19754 -0.10902,0.40563 -0.098,0.268 -0.28927,0.5086 -0.65595,0.82501 l -0.51763,0.44668 v 0.54689 0.5469 l -0.65579,0.61521 c -0.36068,0.33836 -0.67792,0.6802 -0.70498,0.75964 -0.0485,0.14228 -0.52841,0.31327 -0.8703,0.31005 -0.19433,-0.002 -0.67337,-0.60058 -0.84267,-1.05324 -0.0851,-0.22766 -0.076,-0.34839 0.0534,-0.70312 0.15368,-0.42139 0.15325,-0.43209 -0.0263,-0.66717 -0.10038,-0.1314 -0.26679,-0.44885 -0.36979,-0.70543 -0.20695,-0.51555 -0.44679,-0.6688 -0.91441,-0.5843 -1.02462,0.18515 -1.16586,0.15381 -1.83735,-0.40761 l -0.34997,-0.29261 v -0.8347 -0.83471 l 0.51171,-0.54322 c 0.38159,-0.40509 0.58659,-0.55631 0.80619,-0.59471 0.16197,-0.0283 0.34008,-0.1027 0.39581,-0.16529 0.0697,-0.0783 0.30003,-0.11379 0.73811,-0.11379 h 0.6368 l 0.0776,0.30581 0.0775,0.30581 1.09042,0.0203 c 0.59973,0.0112 1.25775,-1.8e-4 1.46226,-0.0254 0.35587,-0.0437 0.37185,-0.0578 0.37185,-0.32614 v -0.28042 h -0.43963 c -0.39141,0 -0.44899,-0.0229 -0.52496,-0.20919 -0.0469,-0.11504 -0.0853,-0.24211 -0.0853,-0.28236 0,-0.0403 0.36419,-0.0837 0.80931,-0.0966 0.79787,-0.0231 0.80931,-0.0263 0.80931,-0.22699 0,-0.1602 -0.0932,-0.25097 -0.43746,-0.42623 -0.24061,-0.12247 -0.5328,-0.22353 -0.64931,-0.22458 -0.27948,-0.003 -0.53185,0.21903 -0.53185,0.46689 0,0.12598 -0.0602,0.21354 -0.16432,0.23892 -0.0904,0.022 -0.20765,0.12868 -0.2606,0.23701 -0.13914,0.28463 -0.36251,0.25525 -0.36251,-0.0477 0,-0.26912 -0.23295,-0.53341 -0.5779,-0.65565 -0.47327,-0.16771 -0.51231,-0.0316 -0.11264,0.39267 l 0.27189,0.28863 -0.20627,0.10341 c -0.19345,0.097 -0.2099,0.0875 -0.26487,-0.15357 -0.091,-0.39875 -0.36982,-0.56276 -0.85196,-0.50105 -0.41414,0.053 -0.55317,0.15568 -0.81613,0.60269 -0.14174,0.24096 -0.1795,0.25644 -0.5687,0.23319 l -0.41688,-0.0249 -0.0269,-0.34658 -0.0269,-0.34658 h 0.48624 c 0.46279,0 0.48624,-0.01 0.48624,-0.20781 0,-0.1572 -0.0693,-0.23498 -0.28435,-0.31939 l -0.28435,-0.11159 0.26248,-0.0549 c 0.30568,-0.064 0.57208,-0.17776 1.02804,-0.43911 0.25485,-0.14607 0.3281,-0.2398 0.3281,-0.41983 0,-0.31656 0.12764,-0.36444 0.32047,-0.1202 0.14737,0.18666 0.1993,0.19927 0.62439,0.15168 0.38853,-0.0435 0.48366,-0.088 0.58708,-0.27436 0.0679,-0.12234 0.20374,-0.24202 0.3019,-0.26595 0.25246,-0.0615 0.22532,-0.3389 -0.0444,-0.45342 -0.40899,-0.17369 -0.54972,-0.12275 -0.65352,0.23654 -0.085,0.29408 -0.12209,0.32833 -0.33147,0.3058 -0.20532,-0.0221 -0.23412,-0.0596 -0.22289,-0.2904 0.0151,-0.31072 -3.4e-4,-0.31752 -0.23163,-0.10194 -0.2086,0.19443 -0.5726,0.21443 -0.64626,0.0355 -0.0629,-0.15271 0.53395,-0.71099 1.0841,-1.01409 0.20352,-0.11213 0.5437,-0.3925 0.75595,-0.62304 0.50083,-0.544 0.75052,-0.63708 1.52821,-0.56971 1.10835,0.096 0.39845,-0.2261 -1.04743,-0.47526 -2.22468,-0.38337 -4.55829,0.0549 -6.42458,1.20662 -0.64591,0.3986 -0.67291,0.42719 -0.51593,0.54631 0.4183,0.3174 0.4778,0.80925 0.14859,1.22818 -0.11976,0.1524 -0.33404,0.44223 -0.47617,0.64406 -0.46247,0.65674 -0.49121,0.68407 -0.65707,0.62474 -0.13379,-0.0478 -0.15136,-0.13317 -0.12049,-0.58502 0.0199,-0.29096 0.003,-0.52901 -0.0367,-0.52901 -0.15875,0 -0.54276,0.29574 -0.77946,0.60029 -0.33336,0.42893 -0.32101,0.75295 0.0566,1.48466 0.16842,0.32637 0.30622,0.64543 0.30622,0.70901 0,0.0636 -0.10827,0.16119 -0.2406,0.2169 -0.37233,0.15675 -1.09276,0.61981 -1.32414,0.85109 -0.20241,0.20233 -0.20739,0.23953 -0.16752,1.25174 0.0462,1.17357 0.15602,1.47998 0.62098,1.73282 0.69326,0.37701 0.9363,0.53018 0.9363,0.59008 0,0.0354 0.12051,0.31564 0.2678,0.62266 0.25892,0.53973 0.28284,0.56269 0.72181,0.69295 0.24971,0.0741 0.57723,0.20531 0.72783,0.29158 0.27212,0.15588 0.27328,0.15951 0.18953,0.58902 -0.0825,0.42324 -0.19462,0.66726 -0.47022,1.02375 -0.13227,0.1711 -0.11871,0.19133 0.37227,0.55538 1.02968,0.76349 2.7642,1.40974 4.35923,1.62415 0.62414,0.0839 2.13149,-0.0335 3.00489,-0.23409 z m 2.84997,-9.71575 c 0.15546,-0.0556 0.19539,-0.56043 0.0509,-0.64366 -0.0481,-0.0277 -0.0875,-0.20603 -0.0875,-0.39624 0,-0.31804 -0.11372,-0.54157 -0.27552,-0.54157 -0.036,0 -0.16653,0.12341 -0.28996,0.27424 -0.21269,0.2599 -0.21926,0.29718 -0.12569,0.71355 0.0543,0.24162 0.11268,0.48518 0.12973,0.54125 0.0326,0.10728 0.36355,0.1363 0.59803,0.0524 z"
       id="path259"
       inkscape:connector-curvature="0" />
    <flowRoot
       xml:space="preserve"
       id="flowRoot357"
       style="font-style:normal;font-weight:normal;font-size:40px;line-height:1.25;font-family:sans-serif;letter-spacing:0px;word-spacing:0px;fill:#ff7f2a;fill-opacity:1;stroke:none"
       transform="matrix(0.34301435,0,0,0.26458333,48.692571,82.583286)"><flowRegion
         id="flowRegion359"
         style="fill:#ff7f2a"><rect
           id="rect361"
           width="177.45984"
           height="83.510506"
           x="107.60008"
           y="71.268509"
           style="fill:#ff7f2a" /></flowRegion><flowPara
         id="flowPara363"
         style="font-style:normal;font-variant:normal;font-weight:bold;font-stretch:normal;font-size:48px;font-family:KacstNaskh;-inkscape-font-specification:'KacstNaskh Bold';fill:#ff7f2a">i2sub</flowPara></flowRoot>    <text
       xml:space="preserve"
       style="font-style:normal;font-weight:normal;font-size:4.22608662px;line-height:1.25;font-family:sans-serif;letter-spacing:0px;word-spacing:0px;fill:#ff9955;fill-opacity:1;stroke:none;stroke-width:0.26413041"
       x="85.852386"
       y="117.38517"
       id="text373"
       transform="scale(0.99828824,1.0017147)"><tspan
         sodipodi:role="line"
         id="tspan371"
         x="85.852386"
         y="117.38517"
         style="font-size:3.35138893px;fill:#ff9955;stroke-width:0.26413041">Geotechnical,Drilling,Oil&amp;Gas</tspan></text>
    <path
       style="opacity:1;vector-effect:none;fill:#ff9955;fill-opacity:1;stroke:none;stroke-width:0.35714284;stroke-linecap:butt;stroke-linejoin:miter;stroke-miterlimit:4;stroke-dasharray:none;stroke-dashoffset:0;stroke-opacity:1"
       d="M 80.159283,29.913105 V 17.055962 h 5.357143 5.357143 v 12.857143 12.857143 h -5.357143 -5.357143 z"
       id="path10626"
       inkscape:connector-curvature="0"
       transform="matrix(0.26458333,0,0,0.26458333,65.78299,101.29689)" />
    <path
       style="opacity:1;vector-effect:none;fill:#ff9955;fill-opacity:1;stroke:none;stroke-width:0.35714284;stroke-linecap:butt;stroke-linejoin:miter;stroke-miterlimit:4;stroke-dasharray:none;stroke-dashoffset:0;stroke-opacity:1"
       d="M 80.159283,9.9131049 V 6.6988192 h 5.357143 5.357143 v 3.2142857 3.2142861 h -5.357143 -5.357143 z"
       id="path10628"
       inkscape:connector-curvature="0"
       transform="matrix(0.26458333,0,0,0.26458333,65.78299,101.29689)" />
    <path
       style="opacity:1;vector-effect:none;fill:#ff9955;fill-opacity:1;stroke:none;stroke-width:0.35714284;stroke-linecap:butt;stroke-linejoin:miter;stroke-miterlimit:4;stroke-dasharray:none;stroke-dashoffset:0;stroke-opacity:1"
       d="m 101.23096,39.645248 2.4e-4,-3.125 8.59648,-5.836691 c 4.72806,-3.210181 9.15706,-6.328893 9.84222,-6.930472 3.0412,-2.670208 3.39622,-5.869175 0.90886,-8.189363 -1.82447,-1.701852 -3.739,-2.205741 -7.56682,-1.991529 -2.71814,0.152113 -7.058,1.331675 -10.79909,2.935162 -0.57159,0.244993 -0.625,-0.03939 -0.625,-3.327988 V 9.5834935 l 1.33929,-0.3582249 c 5.30135,-1.417977 15.8834,-2.0478287 20.08929,-1.1957294 6.72149,1.3617539 10.71428,4.9917348 10.71428,9.7407088 0,4.030545 -2.97445,7.253048 -12.85714,13.929362 l -6.60714,4.463495 9.91071,0.09493 9.91071,0.09493 v 3.208637 3.208636 h -16.42857 -16.42857 z"
       id="path10630"
       inkscape:connector-curvature="0"
       transform="matrix(0.26458333,0,0,0.26458333,65.78299,101.29689)" />
    <path
       style="opacity:1;vector-effect:none;fill:#ff9955;fill-opacity:1;stroke:none;stroke-width:0.35714284;stroke-linecap:butt;stroke-linejoin:miter;stroke-miterlimit:4;stroke-dasharray:none;stroke-dashoffset:0;stroke-opacity:1"
       d="m 149.62357,42.973378 c -1.76786,-0.263767 -3.89732,-0.598631 -4.73214,-0.744142 l -1.51786,-0.264565 v -3.031723 c 0,-2.975228 0.015,-3.027363 0.80357,-2.797784 5.77138,1.680185 6.20087,1.746203 11.57854,1.779804 4.97348,0.03108 5.50071,-0.02763 6.42857,-0.715755 0.55591,-0.412283 1.05965,-1.155471 1.11942,-1.651528 0.22134,-1.83689 -0.73949,-2.182598 -9.12135,-3.281899 -5.14528,-0.674818 -7.74747,-1.558909 -9.28738,-3.155386 -1.38031,-1.431017 -1.87851,-2.695478 -1.87851,-4.76773 0,-4.076476 2.96214,-6.708929 8.57358,-7.619321 3.25576,-0.528211 9.83486,-0.460718 14.40703,0.147797 5.64875,0.7518 5.23367,0.44331 5.23367,3.889676 v 2.94244 l -3.30357,-0.86295 c -4.59107,-1.199268 -12.35535,-1.494445 -14.19643,-0.53971 -1.43315,0.743197 -1.80188,1.965182 -0.89527,2.966978 0.74328,0.821311 1.12629,0.911868 6.78813,1.60495 8.58507,1.050923 11.35733,2.056265 12.89216,4.675257 0.64692,1.10388 0.85639,1.982945 0.85196,3.575267 -0.0106,3.828981 -2.2118,6.199029 -6.95841,7.492343 -2.91704,0.794809 -12.48964,0.99896 -16.78571,0.357981 z"
       id="path10632"
       inkscape:connector-curvature="0"
       transform="matrix(0.26458333,0,0,0.26458333,65.78299,101.29689)" />
    <path
       style="opacity:1;vector-effect:none;fill:#ff9955;fill-opacity:1;stroke:none;stroke-width:0.35714284;stroke-linecap:butt;stroke-linejoin:miter;stroke-miterlimit:4;stroke-dasharray:none;stroke-dashoffset:0;stroke-opacity:1"
       d="m 189.35016,43.095944 c -2.08233,-0.490593 -3.96767,-1.584328 -5.25151,-3.046538 -2.24425,-2.55606 -2.31318,-2.93515 -2.44382,-13.439873 l -0.11881,-9.553571 h 5.38306 5.38306 v 8.225757 c 0,9.190322 0.18758,10.160037 2.21065,11.428295 1.76479,1.106342 5.35705,0.868761 7.41043,-0.490104 2.60634,-1.724794 2.86196,-2.755334 2.87108,-11.574662 l 0.008,-7.589286 h 5.35714 5.35715 v 12.857143 12.857143 h -5.35715 -5.35714 v -1.774605 -1.774605 l -2.03355,1.424505 c -2.71354,1.900846 -5.87299,2.848716 -9.34335,2.803115 -1.50164,-0.01973 -3.33542,-0.178453 -4.07508,-0.352714 z"
       id="path10634"
       inkscape:connector-curvature="0"
       transform="matrix(0.26458333,0,0,0.26458333,65.78299,101.29689)" />
    <path
       style="opacity:1;vector-effect:none;fill:#ff9955;fill-opacity:1;stroke:none;stroke-width:0.35714284;stroke-linecap:butt;stroke-linejoin:miter;stroke-miterlimit:4;stroke-dasharray:none;stroke-dashoffset:0;stroke-opacity:1"
       d="m 243.31513,42.821594 c -2.25479,-0.746028 -4.1203,-1.803683 -5.1097,-2.896958 -1.00166,-1.106822 -1.26043,-0.889219 -1.26043,1.059898 v 1.785714 h -5.35715 -5.35714 V 24.734533 6.6988192 h 5.34959 5.3496 l 0.0968,6.9718918 0.0968,6.971892 1.91223,-1.437206 c 2.82976,-2.12681 6.04783,-3.002367 10.23086,-2.783567 2.69972,0.141213 3.73689,0.370766 5.58705,1.236558 5.55908,2.601407 8.55579,8.364542 7.53925,14.499144 -0.76438,4.612897 -3.3615,8.055283 -7.55941,10.019723 -1.97789,0.925564 -2.78577,1.089104 -5.89388,1.193086 -2.80785,0.09393 -4.04769,-0.02704 -5.62454,-0.548747 z m 4.89866,-5.980316 c 1.03757,-0.526238 1.67549,-1.228765 2.41619,-2.660881 0.89348,-1.727527 0.99223,-2.246413 0.88006,-4.624435 -0.15366,-3.257599 -0.96825,-5.09388 -2.79638,-6.303674 -1.62929,-1.078215 -4.5425,-1.442245 -6.75571,-0.844184 -6.42664,1.736619 -6.82597,12.541037 -0.54867,14.844823 1.86768,0.685441 5.01707,0.494914 6.80451,-0.411649 z"
       id="path10636"
       inkscape:connector-curvature="0"
       transform="matrix(0.26458333,0,0,0.26458333,65.78299,101.29689)" />
  </g>
</svg>
